G04 #@! TF.FileFunction,Soldermask,Top*
%FSLAX46Y46*%
G04 Gerber Fmt 4.6, Leading zero omitted, Abs format (unit mm)*
G04 Created by KiCad (PCBNEW 4.0.4-stable) date 03/17/17 17:10:39*
%MOMM*%
%LPD*%
G01*
G04 APERTURE LIST*
%ADD10C,0.100000*%
%ADD11C,2.900000*%
%ADD12C,3.600000*%
%ADD13C,2.400000*%
%ADD14O,2.924000X1.924000*%
%ADD15R,2.400000X3.000000*%
%ADD16O,2.400000X3.000000*%
%ADD17R,2.800000X2.000000*%
%ADD18O,2.800000X2.000000*%
%ADD19O,1.920000X2.920000*%
%ADD20O,2.400000X1.924000*%
%ADD21R,4.400000X4.400000*%
%ADD22R,2.400000X2.100000*%
%ADD23R,2.100000X2.400000*%
%ADD24R,1.974800X2.686000*%
%ADD25O,1.974800X2.686000*%
%ADD26C,2.899360*%
%ADD27O,3.900120X2.099260*%
%ADD28C,4.199840*%
%ADD29R,2.900000X2.400000*%
%ADD30R,2.200000X3.900000*%
%ADD31C,0.254000*%
G04 APERTURE END LIST*
D10*
D11*
X161750000Y-86500000D03*
X161750000Y-99500000D03*
X161750000Y-112500000D03*
X161750000Y-126500000D03*
X132250000Y-126500000D03*
X132250000Y-112500000D03*
X132250000Y-99500000D03*
D12*
X125000000Y-127000000D03*
X169000000Y-127000000D03*
X169000000Y-73000000D03*
D13*
X94500000Y-101000000D03*
X94500000Y-106000000D03*
D14*
X116620000Y-106080000D03*
X116620000Y-103540000D03*
X116620000Y-101000000D03*
X116620000Y-98460000D03*
X116620000Y-95920000D03*
X101380000Y-95920000D03*
X101380000Y-98460000D03*
X101380000Y-101000000D03*
X101380000Y-103540000D03*
X101380000Y-106080000D03*
D15*
X78500000Y-126000000D03*
D16*
X81040000Y-126000000D03*
D17*
X81000000Y-98000000D03*
D18*
X88620000Y-105620000D03*
X81000000Y-100540000D03*
X88620000Y-103080000D03*
X81000000Y-103080000D03*
X88620000Y-100540000D03*
X81000000Y-105620000D03*
X88620000Y-98000000D03*
D19*
X80000000Y-72000000D03*
X82540000Y-72000000D03*
X110000000Y-72000000D03*
X107460000Y-72000000D03*
D20*
X108000000Y-112500000D03*
X108000000Y-115000000D03*
X108000000Y-117500000D03*
D21*
X115000000Y-119400000D03*
X115000000Y-110600000D03*
D22*
X89000000Y-86000000D03*
X93000000Y-86000000D03*
D23*
X80000000Y-115000000D03*
X80000000Y-111000000D03*
X83000000Y-121000000D03*
X83000000Y-117000000D03*
X86000000Y-115000000D03*
X86000000Y-111000000D03*
X89000000Y-123000000D03*
X89000000Y-119000000D03*
X92000000Y-115000000D03*
X92000000Y-111000000D03*
X95000000Y-123000000D03*
X95000000Y-119000000D03*
X98000000Y-115000000D03*
X98000000Y-111000000D03*
X101000000Y-123000000D03*
X101000000Y-119000000D03*
D22*
X93000000Y-96000000D03*
X97000000Y-96000000D03*
D23*
X74100000Y-111500000D03*
X74100000Y-107500000D03*
D22*
X81500000Y-86000000D03*
X77500000Y-86000000D03*
D24*
X112050000Y-76380000D03*
D25*
X109510000Y-76380000D03*
X106970000Y-76380000D03*
X104430000Y-76380000D03*
X101890000Y-76380000D03*
X99350000Y-76380000D03*
X96810000Y-76380000D03*
X94270000Y-76380000D03*
X91730000Y-76380000D03*
X89190000Y-76380000D03*
X86650000Y-76380000D03*
X84110000Y-76380000D03*
X81570000Y-76380000D03*
X79030000Y-76380000D03*
X76490000Y-76380000D03*
X76490000Y-91620000D03*
X79030000Y-91620000D03*
X81570000Y-91620000D03*
X84110000Y-91620000D03*
X86650000Y-91620000D03*
X89190000Y-91620000D03*
X91730000Y-91620000D03*
X94270000Y-91620000D03*
X96810000Y-91620000D03*
X99350000Y-91620000D03*
X101890000Y-91620000D03*
X104430000Y-91620000D03*
X106970000Y-91620000D03*
X109510000Y-91620000D03*
X112050000Y-91620000D03*
D12*
X73000000Y-73000000D03*
X117000000Y-73000000D03*
X73000000Y-127000000D03*
X117000000Y-127000000D03*
D26*
X112000000Y-128000000D03*
X108000000Y-128000000D03*
D19*
X132000000Y-72000000D03*
X134540000Y-72000000D03*
X162000000Y-72000000D03*
X159460000Y-72000000D03*
D12*
X125000000Y-73000000D03*
D11*
X132250000Y-86500000D03*
D27*
X169000000Y-119000000D03*
X169000000Y-121540000D03*
X169000000Y-116460000D03*
D28*
X151236000Y-119000000D03*
D27*
X169000000Y-106000000D03*
X169000000Y-108540000D03*
X169000000Y-103460000D03*
D28*
X151236000Y-106000000D03*
D27*
X169000000Y-93000000D03*
X169000000Y-95540000D03*
X169000000Y-90460000D03*
D28*
X151236000Y-93000000D03*
D27*
X169000000Y-80000000D03*
X169000000Y-82540000D03*
X169000000Y-77460000D03*
D28*
X151236000Y-80000000D03*
D27*
X125000000Y-80000000D03*
X125000000Y-77460000D03*
X125000000Y-82540000D03*
D28*
X142764000Y-80000000D03*
D27*
X125000000Y-93000000D03*
X125000000Y-90460000D03*
X125000000Y-95540000D03*
D28*
X142764000Y-93000000D03*
D27*
X125000000Y-106000000D03*
X125000000Y-103460000D03*
X125000000Y-108540000D03*
D28*
X142764000Y-106000000D03*
D27*
X125000000Y-119000000D03*
X125000000Y-116460000D03*
X125000000Y-121540000D03*
D28*
X142764000Y-119000000D03*
D19*
X86100000Y-128000000D03*
X88640000Y-128000000D03*
X91180000Y-128000000D03*
X93720000Y-128000000D03*
X96260000Y-128000000D03*
X98800000Y-128000000D03*
X101340000Y-128000000D03*
X103880000Y-128000000D03*
X138100000Y-128000000D03*
X140640000Y-128000000D03*
X143180000Y-128000000D03*
X145720000Y-128000000D03*
X148260000Y-128000000D03*
X150800000Y-128000000D03*
X153340000Y-128000000D03*
X155880000Y-128000000D03*
D23*
X77000000Y-107500000D03*
X77000000Y-111500000D03*
D29*
X76000000Y-100250000D03*
X76000000Y-104250000D03*
D30*
X104250000Y-113500000D03*
X104250000Y-118500000D03*
D31*
G36*
X155373000Y-124373000D02*
X138627000Y-124373000D01*
X138627000Y-71127000D01*
X155373000Y-71127000D01*
X155373000Y-124373000D01*
X155373000Y-124373000D01*
G37*
X155373000Y-124373000D02*
X138627000Y-124373000D01*
X138627000Y-71127000D01*
X155373000Y-71127000D01*
X155373000Y-124373000D01*
M02*
