G04 #@! TF.FileFunction,Soldermask,Bot*
%FSLAX46Y46*%
G04 Gerber Fmt 4.6, Leading zero omitted, Abs format (unit mm)*
G04 Created by KiCad (PCBNEW 4.0.4-stable) date 03/17/17 17:10:39*
%MOMM*%
%LPD*%
G01*
G04 APERTURE LIST*
%ADD10C,0.100000*%
%ADD11C,2.900000*%
%ADD12C,3.600000*%
%ADD13C,2.400000*%
%ADD14O,2.924000X1.924000*%
%ADD15R,2.400000X3.000000*%
%ADD16O,2.400000X3.000000*%
%ADD17R,2.800000X2.000000*%
%ADD18O,2.800000X2.000000*%
%ADD19O,1.920000X2.920000*%
%ADD20O,2.400000X1.924000*%
%ADD21R,4.400000X4.400000*%
%ADD22R,1.974800X2.686000*%
%ADD23O,1.974800X2.686000*%
%ADD24C,2.899360*%
%ADD25O,3.900120X2.099260*%
%ADD26C,4.199840*%
%ADD27C,0.254000*%
G04 APERTURE END LIST*
D10*
D11*
X161750000Y-86500000D03*
X161750000Y-99500000D03*
X161750000Y-112500000D03*
X161750000Y-126500000D03*
X132250000Y-126500000D03*
X132250000Y-112500000D03*
X132250000Y-99500000D03*
D12*
X125000000Y-127000000D03*
X169000000Y-127000000D03*
X169000000Y-73000000D03*
D13*
X94500000Y-101000000D03*
X94500000Y-106000000D03*
D14*
X116620000Y-106080000D03*
X116620000Y-103540000D03*
X116620000Y-101000000D03*
X116620000Y-98460000D03*
X116620000Y-95920000D03*
X101380000Y-95920000D03*
X101380000Y-98460000D03*
X101380000Y-101000000D03*
X101380000Y-103540000D03*
X101380000Y-106080000D03*
D15*
X78500000Y-126000000D03*
D16*
X81040000Y-126000000D03*
D17*
X81000000Y-98000000D03*
D18*
X88620000Y-105620000D03*
X81000000Y-100540000D03*
X88620000Y-103080000D03*
X81000000Y-103080000D03*
X88620000Y-100540000D03*
X81000000Y-105620000D03*
X88620000Y-98000000D03*
D19*
X80000000Y-72000000D03*
X82540000Y-72000000D03*
X110000000Y-72000000D03*
X107460000Y-72000000D03*
D20*
X108000000Y-112500000D03*
X108000000Y-115000000D03*
X108000000Y-117500000D03*
D21*
X115000000Y-119400000D03*
X115000000Y-110600000D03*
D22*
X112050000Y-76380000D03*
D23*
X109510000Y-76380000D03*
X106970000Y-76380000D03*
X104430000Y-76380000D03*
X101890000Y-76380000D03*
X99350000Y-76380000D03*
X96810000Y-76380000D03*
X94270000Y-76380000D03*
X91730000Y-76380000D03*
X89190000Y-76380000D03*
X86650000Y-76380000D03*
X84110000Y-76380000D03*
X81570000Y-76380000D03*
X79030000Y-76380000D03*
X76490000Y-76380000D03*
X76490000Y-91620000D03*
X79030000Y-91620000D03*
X81570000Y-91620000D03*
X84110000Y-91620000D03*
X86650000Y-91620000D03*
X89190000Y-91620000D03*
X91730000Y-91620000D03*
X94270000Y-91620000D03*
X96810000Y-91620000D03*
X99350000Y-91620000D03*
X101890000Y-91620000D03*
X104430000Y-91620000D03*
X106970000Y-91620000D03*
X109510000Y-91620000D03*
X112050000Y-91620000D03*
D12*
X73000000Y-73000000D03*
X117000000Y-73000000D03*
X73000000Y-127000000D03*
X117000000Y-127000000D03*
D24*
X112000000Y-128000000D03*
X108000000Y-128000000D03*
D19*
X132000000Y-72000000D03*
X134540000Y-72000000D03*
X162000000Y-72000000D03*
X159460000Y-72000000D03*
D12*
X125000000Y-73000000D03*
D11*
X132250000Y-86500000D03*
D25*
X169000000Y-119000000D03*
X169000000Y-121540000D03*
X169000000Y-116460000D03*
D26*
X151236000Y-119000000D03*
D25*
X169000000Y-106000000D03*
X169000000Y-108540000D03*
X169000000Y-103460000D03*
D26*
X151236000Y-106000000D03*
D25*
X169000000Y-93000000D03*
X169000000Y-95540000D03*
X169000000Y-90460000D03*
D26*
X151236000Y-93000000D03*
D25*
X169000000Y-80000000D03*
X169000000Y-82540000D03*
X169000000Y-77460000D03*
D26*
X151236000Y-80000000D03*
D25*
X125000000Y-80000000D03*
X125000000Y-77460000D03*
X125000000Y-82540000D03*
D26*
X142764000Y-80000000D03*
D25*
X125000000Y-93000000D03*
X125000000Y-90460000D03*
X125000000Y-95540000D03*
D26*
X142764000Y-93000000D03*
D25*
X125000000Y-106000000D03*
X125000000Y-103460000D03*
X125000000Y-108540000D03*
D26*
X142764000Y-106000000D03*
D25*
X125000000Y-119000000D03*
X125000000Y-116460000D03*
X125000000Y-121540000D03*
D26*
X142764000Y-119000000D03*
D19*
X86100000Y-128000000D03*
X88640000Y-128000000D03*
X91180000Y-128000000D03*
X93720000Y-128000000D03*
X96260000Y-128000000D03*
X98800000Y-128000000D03*
X101340000Y-128000000D03*
X103880000Y-128000000D03*
X138100000Y-128000000D03*
X140640000Y-128000000D03*
X143180000Y-128000000D03*
X145720000Y-128000000D03*
X148260000Y-128000000D03*
X150800000Y-128000000D03*
X153340000Y-128000000D03*
X155880000Y-128000000D03*
D27*
G36*
X165373000Y-76500000D02*
X165383006Y-76549410D01*
X165411447Y-76591035D01*
X165453841Y-76618315D01*
X165500000Y-76627000D01*
X169373000Y-76627000D01*
X169373000Y-78373000D01*
X165500000Y-78373000D01*
X165450590Y-78383006D01*
X165408965Y-78411447D01*
X165381685Y-78453841D01*
X165373000Y-78500000D01*
X165373000Y-89500000D01*
X165383006Y-89549410D01*
X165411447Y-89591035D01*
X165453841Y-89618315D01*
X165500000Y-89627000D01*
X169373000Y-89627000D01*
X169373000Y-91373000D01*
X165500000Y-91373000D01*
X165450590Y-91383006D01*
X165408965Y-91411447D01*
X165381685Y-91453841D01*
X165373000Y-91500000D01*
X165373000Y-102500000D01*
X165383006Y-102549410D01*
X165411447Y-102591035D01*
X165453841Y-102618315D01*
X165500000Y-102627000D01*
X169373000Y-102627000D01*
X169373000Y-104373000D01*
X165500000Y-104373000D01*
X165450590Y-104383006D01*
X165408965Y-104411447D01*
X165381685Y-104453841D01*
X165373000Y-104500000D01*
X165373000Y-115500000D01*
X165383006Y-115549410D01*
X165411447Y-115591035D01*
X165453841Y-115618315D01*
X165500000Y-115627000D01*
X169373000Y-115627000D01*
X169373000Y-117373000D01*
X165500000Y-117373000D01*
X165450590Y-117383006D01*
X165408965Y-117411447D01*
X165381685Y-117453841D01*
X165373000Y-117500000D01*
X165373000Y-129373000D01*
X158127000Y-129373000D01*
X158127000Y-73627000D01*
X165373000Y-73627000D01*
X165373000Y-76500000D01*
X165373000Y-76500000D01*
G37*
X165373000Y-76500000D02*
X165383006Y-76549410D01*
X165411447Y-76591035D01*
X165453841Y-76618315D01*
X165500000Y-76627000D01*
X169373000Y-76627000D01*
X169373000Y-78373000D01*
X165500000Y-78373000D01*
X165450590Y-78383006D01*
X165408965Y-78411447D01*
X165381685Y-78453841D01*
X165373000Y-78500000D01*
X165373000Y-89500000D01*
X165383006Y-89549410D01*
X165411447Y-89591035D01*
X165453841Y-89618315D01*
X165500000Y-89627000D01*
X169373000Y-89627000D01*
X169373000Y-91373000D01*
X165500000Y-91373000D01*
X165450590Y-91383006D01*
X165408965Y-91411447D01*
X165381685Y-91453841D01*
X165373000Y-91500000D01*
X165373000Y-102500000D01*
X165383006Y-102549410D01*
X165411447Y-102591035D01*
X165453841Y-102618315D01*
X165500000Y-102627000D01*
X169373000Y-102627000D01*
X169373000Y-104373000D01*
X165500000Y-104373000D01*
X165450590Y-104383006D01*
X165408965Y-104411447D01*
X165381685Y-104453841D01*
X165373000Y-104500000D01*
X165373000Y-115500000D01*
X165383006Y-115549410D01*
X165411447Y-115591035D01*
X165453841Y-115618315D01*
X165500000Y-115627000D01*
X169373000Y-115627000D01*
X169373000Y-117373000D01*
X165500000Y-117373000D01*
X165450590Y-117383006D01*
X165408965Y-117411447D01*
X165381685Y-117453841D01*
X165373000Y-117500000D01*
X165373000Y-129373000D01*
X158127000Y-129373000D01*
X158127000Y-73627000D01*
X165373000Y-73627000D01*
X165373000Y-76500000D01*
G36*
X135873000Y-129373000D02*
X128627000Y-129373000D01*
X128627000Y-122500000D01*
X128616994Y-122450590D01*
X128588553Y-122408965D01*
X128546159Y-122381685D01*
X128500000Y-122373000D01*
X124627000Y-122373000D01*
X124627000Y-120627000D01*
X128500000Y-120627000D01*
X128549410Y-120616994D01*
X128591035Y-120588553D01*
X128618315Y-120546159D01*
X128627000Y-120500000D01*
X128627000Y-109500000D01*
X128616994Y-109450590D01*
X128588553Y-109408965D01*
X128546159Y-109381685D01*
X128500000Y-109373000D01*
X124627000Y-109373000D01*
X124627000Y-107627000D01*
X128500000Y-107627000D01*
X128549410Y-107616994D01*
X128591035Y-107588553D01*
X128618315Y-107546159D01*
X128627000Y-107500000D01*
X128627000Y-96500000D01*
X128616994Y-96450590D01*
X128588553Y-96408965D01*
X128546159Y-96381685D01*
X128500000Y-96373000D01*
X126127000Y-96373000D01*
X126127000Y-94627000D01*
X128500000Y-94627000D01*
X128549410Y-94616994D01*
X128591035Y-94588553D01*
X128618315Y-94546159D01*
X128627000Y-94500000D01*
X128627000Y-83500000D01*
X128616994Y-83450590D01*
X128588553Y-83408965D01*
X128546159Y-83381685D01*
X128500000Y-83373000D01*
X124627000Y-83373000D01*
X124627000Y-81627000D01*
X128500000Y-81627000D01*
X128549410Y-81616994D01*
X128591035Y-81588553D01*
X128618315Y-81546159D01*
X128627000Y-81500000D01*
X128627000Y-73627000D01*
X135873000Y-73627000D01*
X135873000Y-129373000D01*
X135873000Y-129373000D01*
G37*
X135873000Y-129373000D02*
X128627000Y-129373000D01*
X128627000Y-122500000D01*
X128616994Y-122450590D01*
X128588553Y-122408965D01*
X128546159Y-122381685D01*
X128500000Y-122373000D01*
X124627000Y-122373000D01*
X124627000Y-120627000D01*
X128500000Y-120627000D01*
X128549410Y-120616994D01*
X128591035Y-120588553D01*
X128618315Y-120546159D01*
X128627000Y-120500000D01*
X128627000Y-109500000D01*
X128616994Y-109450590D01*
X128588553Y-109408965D01*
X128546159Y-109381685D01*
X128500000Y-109373000D01*
X124627000Y-109373000D01*
X124627000Y-107627000D01*
X128500000Y-107627000D01*
X128549410Y-107616994D01*
X128591035Y-107588553D01*
X128618315Y-107546159D01*
X128627000Y-107500000D01*
X128627000Y-96500000D01*
X128616994Y-96450590D01*
X128588553Y-96408965D01*
X128546159Y-96381685D01*
X128500000Y-96373000D01*
X126127000Y-96373000D01*
X126127000Y-94627000D01*
X128500000Y-94627000D01*
X128549410Y-94616994D01*
X128591035Y-94588553D01*
X128618315Y-94546159D01*
X128627000Y-94500000D01*
X128627000Y-83500000D01*
X128616994Y-83450590D01*
X128588553Y-83408965D01*
X128546159Y-83381685D01*
X128500000Y-83373000D01*
X124627000Y-83373000D01*
X124627000Y-81627000D01*
X128500000Y-81627000D01*
X128549410Y-81616994D01*
X128591035Y-81588553D01*
X128618315Y-81546159D01*
X128627000Y-81500000D01*
X128627000Y-73627000D01*
X135873000Y-73627000D01*
X135873000Y-129373000D01*
M02*
