G04 #@! TF.FileFunction,Copper,L2,Bot,Signal*
%FSLAX46Y46*%
G04 Gerber Fmt 4.6, Leading zero omitted, Abs format (unit mm)*
G04 Created by KiCad (PCBNEW 4.0.4-stable) date 06/09/17 11:55:04*
%MOMM*%
%LPD*%
G01*
G04 APERTURE LIST*
%ADD10C,0.100000*%
%ADD11O,3.500120X1.699260*%
%ADD12O,1.520000X2.520000*%
%ADD13C,0.600000*%
%ADD14C,0.500000*%
%ADD15C,2.000000*%
%ADD16C,0.254000*%
G04 APERTURE END LIST*
D10*
D11*
X133000000Y-80000000D03*
X133000000Y-77460000D03*
X133000000Y-82540000D03*
D12*
X140000000Y-72000000D03*
X142540000Y-72000000D03*
X170000000Y-72000000D03*
X167460000Y-72000000D03*
D11*
X177000000Y-119000000D03*
X177000000Y-121540000D03*
X177000000Y-116460000D03*
X177000000Y-106000000D03*
X177000000Y-108540000D03*
X177000000Y-103460000D03*
X177000000Y-93000000D03*
X177000000Y-95540000D03*
X177000000Y-90460000D03*
X177000000Y-80000000D03*
X177000000Y-82540000D03*
X177000000Y-77460000D03*
X133000000Y-93000000D03*
X133000000Y-90460000D03*
X133000000Y-95540000D03*
X133000000Y-106000000D03*
X133000000Y-103460000D03*
X133000000Y-108540000D03*
X133000000Y-119000000D03*
X133000000Y-116460000D03*
X133000000Y-121540000D03*
D12*
X146100000Y-128000000D03*
X148640000Y-128000000D03*
X151180000Y-128000000D03*
X153720000Y-128000000D03*
X156260000Y-128000000D03*
X158800000Y-128000000D03*
X161340000Y-128000000D03*
X163880000Y-128000000D03*
D13*
X145000000Y-90500000D03*
X145000000Y-77500000D03*
X165000000Y-82500000D03*
X165000000Y-95500000D03*
D14*
X151180000Y-126680000D02*
X151180000Y-128000000D01*
X150000000Y-125500000D02*
X151180000Y-126680000D01*
X146000000Y-125500000D02*
X150000000Y-125500000D01*
X145500000Y-125000000D02*
X146000000Y-125500000D01*
X145500000Y-91000000D02*
X145500000Y-125000000D01*
X145000000Y-90500000D02*
X145500000Y-91000000D01*
X153720000Y-126220000D02*
X153720000Y-128000000D01*
X152000000Y-124500000D02*
X153720000Y-126220000D01*
X147000000Y-124500000D02*
X152000000Y-124500000D01*
X146500000Y-124000000D02*
X147000000Y-124500000D01*
X146500000Y-79000000D02*
X146500000Y-124000000D01*
X145000000Y-77500000D02*
X146500000Y-79000000D01*
X156260000Y-125740000D02*
X156260000Y-128000000D01*
X157500000Y-124500000D02*
X156260000Y-125740000D01*
X162500000Y-124500000D02*
X157500000Y-124500000D01*
X163500000Y-123500000D02*
X162500000Y-124500000D01*
X163500000Y-84000000D02*
X163500000Y-123500000D01*
X165000000Y-82500000D02*
X163500000Y-84000000D01*
X158800000Y-126700000D02*
X158800000Y-128000000D01*
X160000000Y-125500000D02*
X158800000Y-126700000D01*
X163500000Y-125500000D02*
X160000000Y-125500000D01*
X164500000Y-124500000D02*
X163500000Y-125500000D01*
X164500000Y-96000000D02*
X164500000Y-124500000D01*
X165000000Y-95500000D02*
X164500000Y-96000000D01*
D15*
X133000000Y-82540000D02*
X137710000Y-82540000D01*
X137710000Y-82540000D02*
X137750000Y-82500000D01*
X133000000Y-108540000D02*
X137210000Y-108540000D01*
X137210000Y-108540000D02*
X137250000Y-108500000D01*
X133000000Y-121540000D02*
X137960000Y-121540000D01*
X137960000Y-121540000D02*
X138000000Y-121500000D01*
X177000000Y-116460000D02*
X172290000Y-116460000D01*
X172290000Y-116460000D02*
X172250000Y-116500000D01*
X177000000Y-103460000D02*
X172460000Y-103460000D01*
X172460000Y-103460000D02*
X172250000Y-103250000D01*
X177000000Y-90460000D02*
X172540000Y-90460000D01*
X172540000Y-90460000D02*
X172500000Y-90500000D01*
X177000000Y-77460000D02*
X172290000Y-77460000D01*
X172290000Y-77460000D02*
X172250000Y-77500000D01*
X133000000Y-95540000D02*
X137460000Y-95540000D01*
X137460000Y-95540000D02*
X137500000Y-95500000D01*
D16*
G36*
X173373000Y-74750000D02*
X173383006Y-74799410D01*
X173410197Y-74839803D01*
X175123000Y-76552606D01*
X175123000Y-78447394D01*
X173410197Y-80160197D01*
X173382334Y-80202211D01*
X173373000Y-80250000D01*
X173373000Y-87750000D01*
X173383006Y-87799410D01*
X173410197Y-87839803D01*
X175123000Y-89552606D01*
X175123000Y-91447394D01*
X173410197Y-93160197D01*
X173382334Y-93202211D01*
X173373000Y-93250000D01*
X173373000Y-100750000D01*
X173383006Y-100799410D01*
X173410197Y-100839803D01*
X175123000Y-102552606D01*
X175123000Y-104447394D01*
X173410197Y-106160197D01*
X173382334Y-106202211D01*
X173373000Y-106250000D01*
X173373000Y-113750000D01*
X173383006Y-113799410D01*
X173410197Y-113839803D01*
X175123000Y-115552606D01*
X175123000Y-117447394D01*
X173410197Y-119160197D01*
X173382334Y-119202211D01*
X173373000Y-119250000D01*
X173373000Y-129290000D01*
X166127000Y-129290000D01*
X166127000Y-126883207D01*
X167814665Y-126883207D01*
X168108630Y-127594658D01*
X168652479Y-128139457D01*
X169363416Y-128434663D01*
X170133207Y-128435335D01*
X170844658Y-128141370D01*
X171389457Y-127597521D01*
X171684663Y-126886584D01*
X171685335Y-126116793D01*
X171391370Y-125405342D01*
X170847521Y-124860543D01*
X170136584Y-124565337D01*
X169366793Y-124564665D01*
X168655342Y-124858630D01*
X168110543Y-125402479D01*
X167815337Y-126113416D01*
X167814665Y-126883207D01*
X166127000Y-126883207D01*
X166127000Y-112883207D01*
X167814665Y-112883207D01*
X168108630Y-113594658D01*
X168652479Y-114139457D01*
X169363416Y-114434663D01*
X170133207Y-114435335D01*
X170844658Y-114141370D01*
X171389457Y-113597521D01*
X171684663Y-112886584D01*
X171685335Y-112116793D01*
X171391370Y-111405342D01*
X170847521Y-110860543D01*
X170136584Y-110565337D01*
X169366793Y-110564665D01*
X168655342Y-110858630D01*
X168110543Y-111402479D01*
X167815337Y-112113416D01*
X167814665Y-112883207D01*
X166127000Y-112883207D01*
X166127000Y-99883207D01*
X167814665Y-99883207D01*
X168108630Y-100594658D01*
X168652479Y-101139457D01*
X169363416Y-101434663D01*
X170133207Y-101435335D01*
X170844658Y-101141370D01*
X171389457Y-100597521D01*
X171684663Y-99886584D01*
X171685335Y-99116793D01*
X171391370Y-98405342D01*
X170847521Y-97860543D01*
X170136584Y-97565337D01*
X169366793Y-97564665D01*
X168655342Y-97858630D01*
X168110543Y-98402479D01*
X167815337Y-99113416D01*
X167814665Y-99883207D01*
X166127000Y-99883207D01*
X166127000Y-86883207D01*
X167814665Y-86883207D01*
X168108630Y-87594658D01*
X168652479Y-88139457D01*
X169363416Y-88434663D01*
X170133207Y-88435335D01*
X170844658Y-88141370D01*
X171389457Y-87597521D01*
X171684663Y-86886584D01*
X171685335Y-86116793D01*
X171391370Y-85405342D01*
X170847521Y-84860543D01*
X170136584Y-84565337D01*
X169366793Y-84564665D01*
X168655342Y-84858630D01*
X168110543Y-85402479D01*
X167815337Y-86113416D01*
X167814665Y-86883207D01*
X166127000Y-86883207D01*
X166127000Y-72848820D01*
X166171188Y-73070968D01*
X166473586Y-73523539D01*
X166926157Y-73825937D01*
X167460000Y-73932125D01*
X167993843Y-73825937D01*
X168446414Y-73523539D01*
X168748812Y-73070968D01*
X168855000Y-72537125D01*
X168855000Y-71462875D01*
X168748812Y-70929032D01*
X168602460Y-70710000D01*
X173373000Y-70710000D01*
X173373000Y-74750000D01*
X173373000Y-74750000D01*
G37*
X173373000Y-74750000D02*
X173383006Y-74799410D01*
X173410197Y-74839803D01*
X175123000Y-76552606D01*
X175123000Y-78447394D01*
X173410197Y-80160197D01*
X173382334Y-80202211D01*
X173373000Y-80250000D01*
X173373000Y-87750000D01*
X173383006Y-87799410D01*
X173410197Y-87839803D01*
X175123000Y-89552606D01*
X175123000Y-91447394D01*
X173410197Y-93160197D01*
X173382334Y-93202211D01*
X173373000Y-93250000D01*
X173373000Y-100750000D01*
X173383006Y-100799410D01*
X173410197Y-100839803D01*
X175123000Y-102552606D01*
X175123000Y-104447394D01*
X173410197Y-106160197D01*
X173382334Y-106202211D01*
X173373000Y-106250000D01*
X173373000Y-113750000D01*
X173383006Y-113799410D01*
X173410197Y-113839803D01*
X175123000Y-115552606D01*
X175123000Y-117447394D01*
X173410197Y-119160197D01*
X173382334Y-119202211D01*
X173373000Y-119250000D01*
X173373000Y-129290000D01*
X166127000Y-129290000D01*
X166127000Y-126883207D01*
X167814665Y-126883207D01*
X168108630Y-127594658D01*
X168652479Y-128139457D01*
X169363416Y-128434663D01*
X170133207Y-128435335D01*
X170844658Y-128141370D01*
X171389457Y-127597521D01*
X171684663Y-126886584D01*
X171685335Y-126116793D01*
X171391370Y-125405342D01*
X170847521Y-124860543D01*
X170136584Y-124565337D01*
X169366793Y-124564665D01*
X168655342Y-124858630D01*
X168110543Y-125402479D01*
X167815337Y-126113416D01*
X167814665Y-126883207D01*
X166127000Y-126883207D01*
X166127000Y-112883207D01*
X167814665Y-112883207D01*
X168108630Y-113594658D01*
X168652479Y-114139457D01*
X169363416Y-114434663D01*
X170133207Y-114435335D01*
X170844658Y-114141370D01*
X171389457Y-113597521D01*
X171684663Y-112886584D01*
X171685335Y-112116793D01*
X171391370Y-111405342D01*
X170847521Y-110860543D01*
X170136584Y-110565337D01*
X169366793Y-110564665D01*
X168655342Y-110858630D01*
X168110543Y-111402479D01*
X167815337Y-112113416D01*
X167814665Y-112883207D01*
X166127000Y-112883207D01*
X166127000Y-99883207D01*
X167814665Y-99883207D01*
X168108630Y-100594658D01*
X168652479Y-101139457D01*
X169363416Y-101434663D01*
X170133207Y-101435335D01*
X170844658Y-101141370D01*
X171389457Y-100597521D01*
X171684663Y-99886584D01*
X171685335Y-99116793D01*
X171391370Y-98405342D01*
X170847521Y-97860543D01*
X170136584Y-97565337D01*
X169366793Y-97564665D01*
X168655342Y-97858630D01*
X168110543Y-98402479D01*
X167815337Y-99113416D01*
X167814665Y-99883207D01*
X166127000Y-99883207D01*
X166127000Y-86883207D01*
X167814665Y-86883207D01*
X168108630Y-87594658D01*
X168652479Y-88139457D01*
X169363416Y-88434663D01*
X170133207Y-88435335D01*
X170844658Y-88141370D01*
X171389457Y-87597521D01*
X171684663Y-86886584D01*
X171685335Y-86116793D01*
X171391370Y-85405342D01*
X170847521Y-84860543D01*
X170136584Y-84565337D01*
X169366793Y-84564665D01*
X168655342Y-84858630D01*
X168110543Y-85402479D01*
X167815337Y-86113416D01*
X167814665Y-86883207D01*
X166127000Y-86883207D01*
X166127000Y-72848820D01*
X166171188Y-73070968D01*
X166473586Y-73523539D01*
X166926157Y-73825937D01*
X167460000Y-73932125D01*
X167993843Y-73825937D01*
X168446414Y-73523539D01*
X168748812Y-73070968D01*
X168855000Y-72537125D01*
X168855000Y-71462875D01*
X168748812Y-70929032D01*
X168602460Y-70710000D01*
X173373000Y-70710000D01*
X173373000Y-74750000D01*
G36*
X143873000Y-129290000D02*
X136627000Y-129290000D01*
X136627000Y-126883207D01*
X138314665Y-126883207D01*
X138608630Y-127594658D01*
X139152479Y-128139457D01*
X139863416Y-128434663D01*
X140633207Y-128435335D01*
X141344658Y-128141370D01*
X141889457Y-127597521D01*
X142184663Y-126886584D01*
X142185335Y-126116793D01*
X141891370Y-125405342D01*
X141347521Y-124860543D01*
X140636584Y-124565337D01*
X139866793Y-124564665D01*
X139155342Y-124858630D01*
X138610543Y-125402479D01*
X138315337Y-126113416D01*
X138314665Y-126883207D01*
X136627000Y-126883207D01*
X136627000Y-124250000D01*
X136616994Y-124200590D01*
X136583630Y-124154423D01*
X134627000Y-122442372D01*
X134627000Y-120557628D01*
X136583630Y-118845577D01*
X136614226Y-118805510D01*
X136627000Y-118750000D01*
X136627000Y-112883207D01*
X138314665Y-112883207D01*
X138608630Y-113594658D01*
X139152479Y-114139457D01*
X139863416Y-114434663D01*
X140633207Y-114435335D01*
X141344658Y-114141370D01*
X141889457Y-113597521D01*
X142184663Y-112886584D01*
X142185335Y-112116793D01*
X141891370Y-111405342D01*
X141347521Y-110860543D01*
X140636584Y-110565337D01*
X139866793Y-110564665D01*
X139155342Y-110858630D01*
X138610543Y-111402479D01*
X138315337Y-112113416D01*
X138314665Y-112883207D01*
X136627000Y-112883207D01*
X136627000Y-111250000D01*
X136616994Y-111200590D01*
X136583630Y-111154423D01*
X134627000Y-109442372D01*
X134627000Y-107557628D01*
X136583630Y-105845577D01*
X136614226Y-105805510D01*
X136627000Y-105750000D01*
X136627000Y-99883207D01*
X138314665Y-99883207D01*
X138608630Y-100594658D01*
X139152479Y-101139457D01*
X139863416Y-101434663D01*
X140633207Y-101435335D01*
X141344658Y-101141370D01*
X141889457Y-100597521D01*
X142184663Y-99886584D01*
X142185335Y-99116793D01*
X141891370Y-98405342D01*
X141347521Y-97860543D01*
X140636584Y-97565337D01*
X139866793Y-97564665D01*
X139155342Y-97858630D01*
X138610543Y-98402479D01*
X138315337Y-99113416D01*
X138314665Y-99883207D01*
X136627000Y-99883207D01*
X136627000Y-98250000D01*
X136616994Y-98200590D01*
X136589803Y-98160197D01*
X134877000Y-96447394D01*
X134877000Y-94552606D01*
X136589803Y-92839803D01*
X136617666Y-92797789D01*
X136627000Y-92750000D01*
X136627000Y-86883207D01*
X138314665Y-86883207D01*
X138608630Y-87594658D01*
X139152479Y-88139457D01*
X139863416Y-88434663D01*
X140633207Y-88435335D01*
X141344658Y-88141370D01*
X141889457Y-87597521D01*
X142184663Y-86886584D01*
X142185335Y-86116793D01*
X141891370Y-85405342D01*
X141347521Y-84860543D01*
X140636584Y-84565337D01*
X139866793Y-84564665D01*
X139155342Y-84858630D01*
X138610543Y-85402479D01*
X138315337Y-86113416D01*
X138314665Y-86883207D01*
X136627000Y-86883207D01*
X136627000Y-85250000D01*
X136616994Y-85200590D01*
X136589803Y-85160197D01*
X134877000Y-83447394D01*
X134877000Y-81552606D01*
X136589803Y-79839803D01*
X136617666Y-79797789D01*
X136627000Y-79750000D01*
X136627000Y-70710000D01*
X143873000Y-70710000D01*
X143873000Y-129290000D01*
X143873000Y-129290000D01*
G37*
X143873000Y-129290000D02*
X136627000Y-129290000D01*
X136627000Y-126883207D01*
X138314665Y-126883207D01*
X138608630Y-127594658D01*
X139152479Y-128139457D01*
X139863416Y-128434663D01*
X140633207Y-128435335D01*
X141344658Y-128141370D01*
X141889457Y-127597521D01*
X142184663Y-126886584D01*
X142185335Y-126116793D01*
X141891370Y-125405342D01*
X141347521Y-124860543D01*
X140636584Y-124565337D01*
X139866793Y-124564665D01*
X139155342Y-124858630D01*
X138610543Y-125402479D01*
X138315337Y-126113416D01*
X138314665Y-126883207D01*
X136627000Y-126883207D01*
X136627000Y-124250000D01*
X136616994Y-124200590D01*
X136583630Y-124154423D01*
X134627000Y-122442372D01*
X134627000Y-120557628D01*
X136583630Y-118845577D01*
X136614226Y-118805510D01*
X136627000Y-118750000D01*
X136627000Y-112883207D01*
X138314665Y-112883207D01*
X138608630Y-113594658D01*
X139152479Y-114139457D01*
X139863416Y-114434663D01*
X140633207Y-114435335D01*
X141344658Y-114141370D01*
X141889457Y-113597521D01*
X142184663Y-112886584D01*
X142185335Y-112116793D01*
X141891370Y-111405342D01*
X141347521Y-110860543D01*
X140636584Y-110565337D01*
X139866793Y-110564665D01*
X139155342Y-110858630D01*
X138610543Y-111402479D01*
X138315337Y-112113416D01*
X138314665Y-112883207D01*
X136627000Y-112883207D01*
X136627000Y-111250000D01*
X136616994Y-111200590D01*
X136583630Y-111154423D01*
X134627000Y-109442372D01*
X134627000Y-107557628D01*
X136583630Y-105845577D01*
X136614226Y-105805510D01*
X136627000Y-105750000D01*
X136627000Y-99883207D01*
X138314665Y-99883207D01*
X138608630Y-100594658D01*
X139152479Y-101139457D01*
X139863416Y-101434663D01*
X140633207Y-101435335D01*
X141344658Y-101141370D01*
X141889457Y-100597521D01*
X142184663Y-99886584D01*
X142185335Y-99116793D01*
X141891370Y-98405342D01*
X141347521Y-97860543D01*
X140636584Y-97565337D01*
X139866793Y-97564665D01*
X139155342Y-97858630D01*
X138610543Y-98402479D01*
X138315337Y-99113416D01*
X138314665Y-99883207D01*
X136627000Y-99883207D01*
X136627000Y-98250000D01*
X136616994Y-98200590D01*
X136589803Y-98160197D01*
X134877000Y-96447394D01*
X134877000Y-94552606D01*
X136589803Y-92839803D01*
X136617666Y-92797789D01*
X136627000Y-92750000D01*
X136627000Y-86883207D01*
X138314665Y-86883207D01*
X138608630Y-87594658D01*
X139152479Y-88139457D01*
X139863416Y-88434663D01*
X140633207Y-88435335D01*
X141344658Y-88141370D01*
X141889457Y-87597521D01*
X142184663Y-86886584D01*
X142185335Y-86116793D01*
X141891370Y-85405342D01*
X141347521Y-84860543D01*
X140636584Y-84565337D01*
X139866793Y-84564665D01*
X139155342Y-84858630D01*
X138610543Y-85402479D01*
X138315337Y-86113416D01*
X138314665Y-86883207D01*
X136627000Y-86883207D01*
X136627000Y-85250000D01*
X136616994Y-85200590D01*
X136589803Y-85160197D01*
X134877000Y-83447394D01*
X134877000Y-81552606D01*
X136589803Y-79839803D01*
X136617666Y-79797789D01*
X136627000Y-79750000D01*
X136627000Y-70710000D01*
X143873000Y-70710000D01*
X143873000Y-129290000D01*
M02*
