M48
;DRILL file {KiCad 4.0.4-stable} date 06/09/17 11:55:06
;FORMAT={3:3/ absolute / metric / suppress trailing zeros}
FMAT,2
METRIC,LZ
T1C0.400
T2C1.000
T3C1.001
T4C2.600
T5C3.200
T6C3.800
%
G90
G05
M71
T1
X145Y-0775
X145Y-0905
X165Y-0825
X165Y-0955
T2
X14Y-072
X14254Y-072
X1461Y-128
X14864Y-128
X15118Y-128
X15372Y-128
X15626Y-128
X1588Y-128
X16134Y-128
X16388Y-128
X16746Y-072
X17Y-072
T3
X133Y-07746
X133Y-08
X133Y-08254
X133Y-09046
X133Y-093
X133Y-09554
X133Y-10346
X133Y-106
X133Y-10854
X133Y-11646
X133Y-119
X133Y-12154
X177Y-07746
X177Y-08
X177Y-08254
X177Y-09046
X177Y-093
X177Y-09554
X177Y-10346
X177Y-106
X177Y-10854
X177Y-11646
X177Y-119
X177Y-12154
T4
X14025Y-0865
X14025Y-0995
X14025Y-1125
X14025Y-1265
X16975Y-0865
X16975Y-0995
X16975Y-1125
X16975Y-1265
T5
X133Y-073
X133Y-127
X177Y-073
X177Y-127
T6
X150764Y-08
X150764Y-093
X150764Y-106
X150764Y-119
X159236Y-08
X159236Y-093
X159236Y-106
X159236Y-119
T0
M30
