M48
;DRILL file {KiCad 4.0.4-stable} date 05/01/17 17:02:02
;FORMAT={3:3/ absolute / metric / suppress trailing zeros}
FMAT,2
METRIC,LZ
T1C0.400
T2C0.762
T3C0.800
T4C0.813
T5C1.000
T6C1.001
T7C1.200
T8C2.900
T9C3.200
%
G90
G05
M71
T1
X0715Y-099
X0725Y-0825
X07375Y-0775
X075Y-0825
X075Y-097
X0753Y-1043
X0767Y-1043
X07725Y-081
X0785Y-0965
X0785Y-0995
X086Y-0965
X086Y-0995
X08625Y-085
X091Y-096
T2
X108Y-1125
X108Y-115
X108Y-1175
T3
X081Y-098
X081Y-10054
X081Y-10308
X081Y-10562
X08862Y-098
X08862Y-10054
X08862Y-10308
X08862Y-10562
X10138Y-09592
X10138Y-09846
X10138Y-101
X10138Y-10354
X10138Y-10608
X11662Y-09592
X11662Y-09846
X11662Y-101
X11662Y-10354
X11662Y-10608
T4
X07649Y-07638
X07649Y-09162
X07903Y-07638
X07903Y-09162
X08157Y-07638
X08157Y-09162
X08411Y-07638
X08411Y-09162
X08665Y-07638
X08665Y-09162
X08919Y-07638
X08919Y-09162
X09173Y-07638
X09173Y-09162
X09427Y-07638
X09427Y-09162
X09681Y-07638
X09681Y-09162
X09935Y-07638
X09935Y-09162
X10189Y-07638
X10189Y-09162
X10443Y-07638
X10443Y-09162
X10697Y-07638
X10697Y-09162
X10951Y-07638
X10951Y-09162
X11205Y-07638
X11205Y-09162
T5
X08Y-072
X08254Y-072
X0861Y-128
X08864Y-128
X09118Y-128
X09372Y-128
X0945Y-101
X0945Y-106
X095Y-07225
X09626Y-128
X09754Y-07225
X0988Y-128
X10134Y-128
X10388Y-128
X10746Y-072
X11Y-072
T6
X108Y-128
X112Y-128
T7
X0785Y-126
X08104Y-126
T8
X115Y-1106
X115Y-1194
T9
X073Y-073
X073Y-127
X117Y-073
X117Y-127
T0
M30
