G04 #@! TF.FileFunction,Soldermask,Top*
%FSLAX46Y46*%
G04 Gerber Fmt 4.6, Leading zero omitted, Abs format (unit mm)*
G04 Created by KiCad (PCBNEW 4.0.4-stable) date 06/09/17 11:44:03*
%MOMM*%
%LPD*%
G01*
G04 APERTURE LIST*
%ADD10C,0.100000*%
%ADD11R,3.700000X2.100000*%
%ADD12C,2.400000*%
%ADD13O,2.924000X1.924000*%
%ADD14R,2.400000X3.000000*%
%ADD15O,2.400000X3.000000*%
%ADD16R,2.800000X2.000000*%
%ADD17O,2.800000X2.000000*%
%ADD18O,1.920000X2.920000*%
%ADD19O,2.400000X1.924000*%
%ADD20R,4.400000X4.400000*%
%ADD21R,2.400000X2.100000*%
%ADD22R,2.100000X2.400000*%
%ADD23R,1.974800X2.686000*%
%ADD24O,1.974800X2.686000*%
%ADD25C,3.600000*%
%ADD26C,2.899360*%
%ADD27R,2.900000X2.400000*%
%ADD28R,2.200000X3.900000*%
%ADD29R,2.100000X2.100000*%
%ADD30O,2.100000X2.100000*%
G04 APERTURE END LIST*
D10*
D11*
X104250000Y-82750000D03*
X98750000Y-82750000D03*
D12*
X94500000Y-101000000D03*
X94500000Y-106000000D03*
D13*
X116620000Y-106080000D03*
X116620000Y-103540000D03*
X116620000Y-101000000D03*
X116620000Y-98460000D03*
X116620000Y-95920000D03*
X101380000Y-95920000D03*
X101380000Y-98460000D03*
X101380000Y-101000000D03*
X101380000Y-103540000D03*
X101380000Y-106080000D03*
D14*
X78500000Y-126000000D03*
D15*
X81040000Y-126000000D03*
D16*
X81000000Y-98000000D03*
D17*
X88620000Y-105620000D03*
X81000000Y-100540000D03*
X88620000Y-103080000D03*
X81000000Y-103080000D03*
X88620000Y-100540000D03*
X81000000Y-105620000D03*
X88620000Y-98000000D03*
D18*
X80000000Y-72000000D03*
X82540000Y-72000000D03*
X110000000Y-72000000D03*
X107460000Y-72000000D03*
D19*
X108000000Y-112500000D03*
X108000000Y-115000000D03*
X108000000Y-117500000D03*
D20*
X115000000Y-119400000D03*
X115000000Y-110600000D03*
D21*
X89000000Y-86000000D03*
X93000000Y-86000000D03*
D22*
X80000000Y-115000000D03*
X80000000Y-111000000D03*
X83000000Y-121000000D03*
X83000000Y-117000000D03*
X86000000Y-115000000D03*
X86000000Y-111000000D03*
X89000000Y-123000000D03*
X89000000Y-119000000D03*
X92000000Y-115000000D03*
X92000000Y-111000000D03*
X95000000Y-123000000D03*
X95000000Y-119000000D03*
X98000000Y-115000000D03*
X98000000Y-111000000D03*
X101000000Y-123000000D03*
X101000000Y-119000000D03*
D21*
X93000000Y-96000000D03*
X97000000Y-96000000D03*
D22*
X74100000Y-111500000D03*
X74100000Y-107500000D03*
D21*
X81500000Y-86000000D03*
X77500000Y-86000000D03*
D23*
X112050000Y-76380000D03*
D24*
X109510000Y-76380000D03*
X106970000Y-76380000D03*
X104430000Y-76380000D03*
X101890000Y-76380000D03*
X99350000Y-76380000D03*
X96810000Y-76380000D03*
X94270000Y-76380000D03*
X91730000Y-76380000D03*
X89190000Y-76380000D03*
X86650000Y-76380000D03*
X84110000Y-76380000D03*
X81570000Y-76380000D03*
X79030000Y-76380000D03*
X76490000Y-76380000D03*
X76490000Y-91620000D03*
X79030000Y-91620000D03*
X81570000Y-91620000D03*
X84110000Y-91620000D03*
X86650000Y-91620000D03*
X89190000Y-91620000D03*
X91730000Y-91620000D03*
X94270000Y-91620000D03*
X96810000Y-91620000D03*
X99350000Y-91620000D03*
X101890000Y-91620000D03*
X104430000Y-91620000D03*
X106970000Y-91620000D03*
X109510000Y-91620000D03*
X112050000Y-91620000D03*
D25*
X73000000Y-73000000D03*
X117000000Y-73000000D03*
X73000000Y-127000000D03*
X117000000Y-127000000D03*
D26*
X112000000Y-128000000D03*
X108000000Y-128000000D03*
D18*
X86100000Y-128000000D03*
X88640000Y-128000000D03*
X91180000Y-128000000D03*
X93720000Y-128000000D03*
X96260000Y-128000000D03*
X98800000Y-128000000D03*
X101340000Y-128000000D03*
X103880000Y-128000000D03*
D22*
X77000000Y-107500000D03*
X77000000Y-111500000D03*
D27*
X76000000Y-100250000D03*
X76000000Y-104250000D03*
D28*
X104250000Y-113500000D03*
X104250000Y-118500000D03*
D29*
X95000000Y-72250000D03*
D30*
X97540000Y-72250000D03*
D21*
X81750000Y-81750000D03*
X85750000Y-81750000D03*
X91250000Y-72000000D03*
X87250000Y-72000000D03*
M02*
