G04 #@! TF.FileFunction,Soldermask,Bot*
%FSLAX46Y46*%
G04 Gerber Fmt 4.6, Leading zero omitted, Abs format (unit mm)*
G04 Created by KiCad (PCBNEW 4.0.4-stable) date 05/01/17 17:01:59*
%MOMM*%
%LPD*%
G01*
G04 APERTURE LIST*
%ADD10C,0.100000*%
%ADD11C,2.400000*%
%ADD12O,2.924000X1.924000*%
%ADD13R,2.400000X3.000000*%
%ADD14O,2.400000X3.000000*%
%ADD15R,2.800000X2.000000*%
%ADD16O,2.800000X2.000000*%
%ADD17O,1.920000X2.920000*%
%ADD18O,2.400000X1.924000*%
%ADD19R,4.400000X4.400000*%
%ADD20R,1.974800X2.686000*%
%ADD21O,1.974800X2.686000*%
%ADD22C,3.600000*%
%ADD23C,2.899360*%
%ADD24R,2.100000X2.100000*%
%ADD25O,2.100000X2.100000*%
G04 APERTURE END LIST*
D10*
D11*
X94500000Y-101000000D03*
X94500000Y-106000000D03*
D12*
X116620000Y-106080000D03*
X116620000Y-103540000D03*
X116620000Y-101000000D03*
X116620000Y-98460000D03*
X116620000Y-95920000D03*
X101380000Y-95920000D03*
X101380000Y-98460000D03*
X101380000Y-101000000D03*
X101380000Y-103540000D03*
X101380000Y-106080000D03*
D13*
X78500000Y-126000000D03*
D14*
X81040000Y-126000000D03*
D15*
X81000000Y-98000000D03*
D16*
X88620000Y-105620000D03*
X81000000Y-100540000D03*
X88620000Y-103080000D03*
X81000000Y-103080000D03*
X88620000Y-100540000D03*
X81000000Y-105620000D03*
X88620000Y-98000000D03*
D17*
X80000000Y-72000000D03*
X82540000Y-72000000D03*
X110000000Y-72000000D03*
X107460000Y-72000000D03*
D18*
X108000000Y-112500000D03*
X108000000Y-115000000D03*
X108000000Y-117500000D03*
D19*
X115000000Y-119400000D03*
X115000000Y-110600000D03*
D20*
X112050000Y-76380000D03*
D21*
X109510000Y-76380000D03*
X106970000Y-76380000D03*
X104430000Y-76380000D03*
X101890000Y-76380000D03*
X99350000Y-76380000D03*
X96810000Y-76380000D03*
X94270000Y-76380000D03*
X91730000Y-76380000D03*
X89190000Y-76380000D03*
X86650000Y-76380000D03*
X84110000Y-76380000D03*
X81570000Y-76380000D03*
X79030000Y-76380000D03*
X76490000Y-76380000D03*
X76490000Y-91620000D03*
X79030000Y-91620000D03*
X81570000Y-91620000D03*
X84110000Y-91620000D03*
X86650000Y-91620000D03*
X89190000Y-91620000D03*
X91730000Y-91620000D03*
X94270000Y-91620000D03*
X96810000Y-91620000D03*
X99350000Y-91620000D03*
X101890000Y-91620000D03*
X104430000Y-91620000D03*
X106970000Y-91620000D03*
X109510000Y-91620000D03*
X112050000Y-91620000D03*
D22*
X73000000Y-73000000D03*
X117000000Y-73000000D03*
X73000000Y-127000000D03*
X117000000Y-127000000D03*
D23*
X112000000Y-128000000D03*
X108000000Y-128000000D03*
D17*
X86100000Y-128000000D03*
X88640000Y-128000000D03*
X91180000Y-128000000D03*
X93720000Y-128000000D03*
X96260000Y-128000000D03*
X98800000Y-128000000D03*
X101340000Y-128000000D03*
X103880000Y-128000000D03*
D24*
X95000000Y-72250000D03*
D25*
X97540000Y-72250000D03*
M02*
