G04 #@! TF.FileFunction,Copper,L1,Top,Signal*
%FSLAX46Y46*%
G04 Gerber Fmt 4.6, Leading zero omitted, Abs format (unit mm)*
G04 Created by KiCad (PCBNEW 4.0.4-stable) date 02/25/17 10:50:14*
%MOMM*%
%LPD*%
G01*
G04 APERTURE LIST*
%ADD10C,0.100000*%
%ADD11C,1.600000*%
%ADD12C,2.000000*%
%ADD13R,2.200000X2.200000*%
%ADD14O,2.200000X2.200000*%
%ADD15R,1.500000X1.500000*%
%ADD16O,2.524000X1.524000*%
%ADD17R,2.000000X2.600000*%
%ADD18O,2.000000X2.600000*%
%ADD19R,1.700000X1.700000*%
%ADD20O,1.700000X1.700000*%
%ADD21R,2.400000X1.600000*%
%ADD22O,2.400000X1.600000*%
%ADD23O,2.000000X1.524000*%
%ADD24R,4.000000X4.000000*%
%ADD25R,2.000000X1.700000*%
%ADD26R,1.700000X2.000000*%
%ADD27R,1.574800X2.286000*%
%ADD28O,1.574800X2.286000*%
%ADD29C,2.499360*%
%ADD30O,3.500120X1.699260*%
%ADD31C,0.600000*%
%ADD32C,1.000000*%
%ADD33C,0.500000*%
%ADD34C,0.350000*%
%ADD35C,0.750000*%
%ADD36C,0.250000*%
%ADD37C,0.254000*%
G04 APERTURE END LIST*
D10*
D11*
X76000000Y-99000000D03*
X76000000Y-104000000D03*
D12*
X94500000Y-101000000D03*
X94500000Y-106000000D03*
D13*
X104500000Y-111000000D03*
D14*
X104500000Y-121160000D03*
D15*
X77000000Y-111150000D03*
X77000000Y-107850000D03*
D16*
X116620000Y-106080000D03*
X116620000Y-103540000D03*
X116620000Y-101000000D03*
X116620000Y-98460000D03*
X116620000Y-95920000D03*
X101380000Y-95920000D03*
X101380000Y-98460000D03*
X101380000Y-101000000D03*
X101380000Y-103540000D03*
X101380000Y-106080000D03*
D17*
X78500000Y-126000000D03*
D18*
X81040000Y-126000000D03*
D19*
X86100000Y-128000000D03*
D20*
X88640000Y-128000000D03*
X91180000Y-128000000D03*
X93720000Y-128000000D03*
X96260000Y-128000000D03*
X98800000Y-128000000D03*
X101340000Y-128000000D03*
X103880000Y-128000000D03*
D21*
X81000000Y-98000000D03*
D22*
X88620000Y-105620000D03*
X81000000Y-100540000D03*
X88620000Y-103080000D03*
X81000000Y-103080000D03*
X88620000Y-100540000D03*
X81000000Y-105620000D03*
X88620000Y-98000000D03*
D19*
X80000000Y-72000000D03*
D20*
X82540000Y-72000000D03*
D19*
X110000000Y-72000000D03*
D20*
X107460000Y-72000000D03*
D23*
X108000000Y-112500000D03*
X108000000Y-115000000D03*
X108000000Y-117500000D03*
D24*
X115000000Y-119400000D03*
X115000000Y-110600000D03*
D25*
X89000000Y-86000000D03*
X93000000Y-86000000D03*
D26*
X80000000Y-115000000D03*
X80000000Y-111000000D03*
X83000000Y-121000000D03*
X83000000Y-117000000D03*
X86000000Y-115000000D03*
X86000000Y-111000000D03*
X89000000Y-123000000D03*
X89000000Y-119000000D03*
X92000000Y-115000000D03*
X92000000Y-111000000D03*
X95000000Y-123000000D03*
X95000000Y-119000000D03*
X98000000Y-115000000D03*
X98000000Y-111000000D03*
X101000000Y-123000000D03*
X101000000Y-119000000D03*
D25*
X93000000Y-96000000D03*
X97000000Y-96000000D03*
D26*
X74100000Y-111500000D03*
X74100000Y-107500000D03*
D25*
X81500000Y-86000000D03*
X77500000Y-86000000D03*
D27*
X112050000Y-76380000D03*
D28*
X109510000Y-76380000D03*
X106970000Y-76380000D03*
X104430000Y-76380000D03*
X101890000Y-76380000D03*
X99350000Y-76380000D03*
X96810000Y-76380000D03*
X94270000Y-76380000D03*
X91730000Y-76380000D03*
X89190000Y-76380000D03*
X86650000Y-76380000D03*
X84110000Y-76380000D03*
X81570000Y-76380000D03*
X79030000Y-76380000D03*
X76490000Y-76380000D03*
X76490000Y-91620000D03*
X79030000Y-91620000D03*
X81570000Y-91620000D03*
X84110000Y-91620000D03*
X86650000Y-91620000D03*
X89190000Y-91620000D03*
X91730000Y-91620000D03*
X94270000Y-91620000D03*
X96810000Y-91620000D03*
X99350000Y-91620000D03*
X101890000Y-91620000D03*
X104430000Y-91620000D03*
X106970000Y-91620000D03*
X109510000Y-91620000D03*
X112050000Y-91620000D03*
D29*
X112000000Y-128000000D03*
X108000000Y-128000000D03*
D19*
X130000000Y-72000000D03*
D20*
X132540000Y-72000000D03*
D19*
X160000000Y-72000000D03*
D20*
X157460000Y-72000000D03*
D30*
X166000000Y-119000000D03*
X166000000Y-121540000D03*
X166000000Y-116460000D03*
X166000000Y-106000000D03*
X166000000Y-108540000D03*
X166000000Y-103460000D03*
X166000000Y-93000000D03*
X166000000Y-95540000D03*
X166000000Y-90460000D03*
X166000000Y-80000000D03*
X166000000Y-82540000D03*
X166000000Y-77460000D03*
X124000000Y-80000000D03*
X124000000Y-77460000D03*
X124000000Y-82540000D03*
X124000000Y-93000000D03*
X124000000Y-90460000D03*
X124000000Y-95540000D03*
X124000000Y-106000000D03*
X124000000Y-103460000D03*
X124000000Y-108540000D03*
X124000000Y-119000000D03*
X124000000Y-116460000D03*
X124000000Y-121540000D03*
D19*
X136100000Y-128000000D03*
D20*
X138640000Y-128000000D03*
X141180000Y-128000000D03*
X143720000Y-128000000D03*
X146260000Y-128000000D03*
X148800000Y-128000000D03*
X151340000Y-128000000D03*
X153880000Y-128000000D03*
D31*
X91000000Y-96000000D03*
X71500000Y-99000000D03*
X75000000Y-97000000D03*
X72500000Y-82500000D03*
X75000000Y-82500000D03*
X86000000Y-96500000D03*
X86000000Y-99500000D03*
X78500000Y-96500000D03*
X78500000Y-99500000D03*
X135000000Y-90500000D03*
X135000000Y-77500000D03*
X155000000Y-82500000D03*
X155000000Y-95500000D03*
D32*
X81000000Y-98000000D02*
X77000000Y-98000000D01*
X77000000Y-98000000D02*
X76000000Y-99000000D01*
X88620000Y-98000000D02*
X81000000Y-98000000D01*
X95000000Y-101000000D02*
X94000000Y-101000000D01*
X94000000Y-101000000D02*
X92500000Y-99500000D01*
X91500000Y-98000000D02*
X88620000Y-98000000D01*
X92500000Y-99000000D02*
X91500000Y-98000000D01*
X92500000Y-99500000D02*
X92500000Y-99000000D01*
X104500000Y-111000000D02*
X103500000Y-111000000D01*
X103500000Y-111000000D02*
X101000000Y-108500000D01*
X101000000Y-108500000D02*
X100000000Y-108500000D01*
X100000000Y-108500000D02*
X98500000Y-107000000D01*
X98500000Y-107000000D02*
X98500000Y-103000000D01*
X98500000Y-103000000D02*
X96500000Y-101000000D01*
X96500000Y-101000000D02*
X95000000Y-101000000D01*
D33*
X76000000Y-99000000D02*
X75500000Y-99000000D01*
X75500000Y-99000000D02*
X73500000Y-97000000D01*
X73500000Y-79370000D02*
X76490000Y-76380000D01*
X73500000Y-97000000D02*
X73500000Y-79370000D01*
D34*
X93000000Y-96000000D02*
X91000000Y-96000000D01*
X77000000Y-107850000D02*
X78770000Y-107850000D01*
X78770000Y-107850000D02*
X81000000Y-105620000D01*
X84000000Y-86000000D02*
X84000000Y-91510000D01*
X84000000Y-91510000D02*
X84110000Y-91620000D01*
X81500000Y-86000000D02*
X84000000Y-86000000D01*
X84000000Y-86000000D02*
X89000000Y-86000000D01*
D32*
X108000000Y-127500000D02*
X108000000Y-125000000D01*
X104500000Y-123500000D02*
X104500000Y-121160000D01*
X105000000Y-124000000D02*
X104500000Y-123500000D01*
X107000000Y-124000000D02*
X105000000Y-124000000D01*
X108000000Y-125000000D02*
X107000000Y-124000000D01*
D34*
X74500000Y-111500000D02*
X76650000Y-111500000D01*
X76650000Y-111500000D02*
X77000000Y-111150000D01*
X116620000Y-106080000D02*
X116080000Y-106080000D01*
X116080000Y-106080000D02*
X113800000Y-103800000D01*
X113800000Y-103800000D02*
X113800000Y-99400000D01*
X113800000Y-99400000D02*
X112200000Y-97800000D01*
X112200000Y-97800000D02*
X112200000Y-94800000D01*
X112200000Y-94800000D02*
X113800000Y-93200000D01*
X113800000Y-93200000D02*
X113800000Y-90400000D01*
X113800000Y-90400000D02*
X113000000Y-89600000D01*
X113000000Y-89600000D02*
X107400000Y-89600000D01*
X107400000Y-89600000D02*
X106970000Y-90030000D01*
X106970000Y-90030000D02*
X106970000Y-91620000D01*
X116620000Y-103540000D02*
X115040000Y-103540000D01*
X104430000Y-89570000D02*
X104430000Y-91620000D01*
X105000000Y-89000000D02*
X104430000Y-89570000D01*
X113500000Y-89000000D02*
X105000000Y-89000000D01*
X114500000Y-90000000D02*
X113500000Y-89000000D01*
X114500000Y-93500000D02*
X114500000Y-90000000D01*
X113000000Y-95000000D02*
X114500000Y-93500000D01*
X113000000Y-97500000D02*
X113000000Y-95000000D01*
X114500000Y-99000000D02*
X113000000Y-97500000D01*
X114500000Y-103000000D02*
X114500000Y-99000000D01*
X115040000Y-103540000D02*
X114500000Y-103000000D01*
X97000000Y-96000000D02*
X97000000Y-97500000D01*
X99000000Y-101000000D02*
X101380000Y-101000000D01*
X98500000Y-100500000D02*
X99000000Y-101000000D01*
X98500000Y-99000000D02*
X98500000Y-100500000D01*
X97000000Y-97500000D02*
X98500000Y-99000000D01*
X116620000Y-98460000D02*
X114960000Y-98460000D01*
X101890000Y-89110000D02*
X101890000Y-91620000D01*
X103000000Y-88000000D02*
X101890000Y-89110000D01*
X114000000Y-88000000D02*
X103000000Y-88000000D01*
X115500000Y-89500000D02*
X114000000Y-88000000D01*
X115500000Y-94000000D02*
X115500000Y-89500000D01*
X114000000Y-95500000D02*
X115500000Y-94000000D01*
X114000000Y-97500000D02*
X114000000Y-95500000D01*
X114960000Y-98460000D02*
X114000000Y-97500000D01*
X116620000Y-95920000D02*
X116620000Y-81620000D01*
X112050000Y-79550000D02*
X112050000Y-76380000D01*
X113000000Y-80500000D02*
X112050000Y-79550000D01*
X115500000Y-80500000D02*
X113000000Y-80500000D01*
X116620000Y-81620000D02*
X115500000Y-80500000D01*
X101380000Y-95920000D02*
X101380000Y-94880000D01*
X99350000Y-92850000D02*
X99350000Y-91620000D01*
X101380000Y-94880000D02*
X99350000Y-92850000D01*
X101380000Y-98460000D02*
X99960000Y-98460000D01*
X96810000Y-93310000D02*
X96810000Y-91620000D01*
X97500000Y-94000000D02*
X96810000Y-93310000D01*
X98000000Y-94000000D02*
X97500000Y-94000000D01*
X99000000Y-95000000D02*
X98000000Y-94000000D01*
X99000000Y-97500000D02*
X99000000Y-95000000D01*
X99960000Y-98460000D02*
X99000000Y-97500000D01*
X101380000Y-103540000D02*
X103460000Y-103540000D01*
X109510000Y-94490000D02*
X109510000Y-91620000D01*
X109000000Y-95000000D02*
X109510000Y-94490000D01*
X107500000Y-95000000D02*
X109000000Y-95000000D01*
X105500000Y-97000000D02*
X107500000Y-95000000D01*
X105500000Y-101500000D02*
X105500000Y-97000000D01*
X103460000Y-103540000D02*
X105500000Y-101500000D01*
X101380000Y-106080000D02*
X102420000Y-106080000D01*
X102420000Y-106080000D02*
X106500000Y-102000000D01*
X106500000Y-102000000D02*
X106500000Y-97500000D01*
X106500000Y-97500000D02*
X108000000Y-96000000D01*
X108000000Y-96000000D02*
X109500000Y-96000000D01*
X109500000Y-96000000D02*
X111000000Y-94500000D01*
X111000000Y-94500000D02*
X112000000Y-93500000D01*
X112000000Y-93500000D02*
X112000000Y-91670000D01*
X112000000Y-91670000D02*
X112050000Y-91620000D01*
X75000000Y-94000000D02*
X75000000Y-97000000D01*
X78000000Y-120500000D02*
X78000000Y-126000000D01*
X77000000Y-119500000D02*
X78000000Y-120500000D01*
X75000000Y-119500000D02*
X77000000Y-119500000D01*
X71500000Y-116000000D02*
X75000000Y-119500000D01*
X71500000Y-99000000D02*
X71500000Y-116000000D01*
X77500000Y-86000000D02*
X77500000Y-86500000D01*
X77500000Y-86500000D02*
X74500000Y-89500000D01*
X74500000Y-89500000D02*
X74500000Y-93500000D01*
X74500000Y-93500000D02*
X75000000Y-94000000D01*
X75000000Y-94000000D02*
X85500000Y-94000000D01*
X85500000Y-94000000D02*
X86650000Y-92850000D01*
X86650000Y-92850000D02*
X86650000Y-91620000D01*
X84110000Y-76380000D02*
X84110000Y-78390000D01*
X79000000Y-123000000D02*
X80500000Y-124500000D01*
X79000000Y-119000000D02*
X79000000Y-123000000D01*
X78000000Y-118000000D02*
X79000000Y-119000000D01*
X75500000Y-118000000D02*
X78000000Y-118000000D01*
X72500000Y-115000000D02*
X75500000Y-118000000D01*
X72500000Y-83000000D02*
X72500000Y-115000000D01*
X72500000Y-82500000D02*
X72500000Y-83000000D01*
X80000000Y-82500000D02*
X75000000Y-82500000D01*
X84110000Y-78390000D02*
X80000000Y-82500000D01*
X80500000Y-124500000D02*
X80540000Y-126000000D01*
X84110000Y-76380000D02*
X84110000Y-75610000D01*
D33*
X86100000Y-128000000D02*
X86100000Y-127600000D01*
X86100000Y-127600000D02*
X82000000Y-123500000D01*
X82000000Y-123500000D02*
X80500000Y-123500000D01*
X80500000Y-123500000D02*
X80000000Y-123000000D01*
X80000000Y-123000000D02*
X80000000Y-115000000D01*
X83000000Y-121000000D02*
X83000000Y-123000000D01*
X88640000Y-127140000D02*
X88640000Y-128000000D01*
X86500000Y-126500000D02*
X83000000Y-123000000D01*
X88000000Y-126500000D02*
X86500000Y-126500000D01*
X88640000Y-127140000D02*
X88000000Y-126500000D01*
X91180000Y-128000000D02*
X91180000Y-127180000D01*
X91180000Y-127180000D02*
X89500000Y-125500000D01*
X89500000Y-125500000D02*
X87500000Y-125500000D01*
X87500000Y-125500000D02*
X86000000Y-124000000D01*
X86000000Y-124000000D02*
X86000000Y-115000000D01*
X93720000Y-128000000D02*
X93720000Y-126720000D01*
X92000000Y-126000000D02*
X89000000Y-123000000D01*
X93000000Y-126000000D02*
X92000000Y-126000000D01*
X93720000Y-126720000D02*
X93000000Y-126000000D01*
X96260000Y-128000000D02*
X96260000Y-127260000D01*
X96260000Y-127260000D02*
X94000000Y-125000000D01*
X94000000Y-125000000D02*
X93000000Y-125000000D01*
X93000000Y-125000000D02*
X92000000Y-124000000D01*
X92000000Y-124000000D02*
X92000000Y-115000000D01*
X95000000Y-123000000D02*
X95000000Y-124000000D01*
X95000000Y-124000000D02*
X98800000Y-127800000D01*
X98800000Y-127800000D02*
X98800000Y-128000000D01*
X101340000Y-128000000D02*
X101340000Y-126840000D01*
X98000000Y-125000000D02*
X98000000Y-115000000D01*
X98500000Y-125500000D02*
X98000000Y-125000000D01*
X100000000Y-125500000D02*
X98500000Y-125500000D01*
X101340000Y-126840000D02*
X100000000Y-125500000D01*
X103880000Y-128000000D02*
X103880000Y-125880000D01*
X103880000Y-125880000D02*
X101000000Y-123000000D01*
D34*
X81000000Y-100540000D02*
X84960000Y-100540000D01*
X94270000Y-93730000D02*
X94270000Y-91620000D01*
X94000000Y-94000000D02*
X94270000Y-93730000D01*
X91500000Y-94000000D02*
X94000000Y-94000000D01*
X90500000Y-95000000D02*
X91500000Y-94000000D01*
X87500000Y-95000000D02*
X90500000Y-95000000D01*
X86000000Y-96500000D02*
X87500000Y-95000000D01*
X84960000Y-100540000D02*
X86000000Y-99500000D01*
X94270000Y-91620000D02*
X94270000Y-87270000D01*
X94270000Y-87270000D02*
X93000000Y-86000000D01*
D32*
X88620000Y-103080000D02*
X86420000Y-103080000D01*
X89000000Y-108500000D02*
X89000000Y-111000000D01*
X88500000Y-108000000D02*
X89000000Y-108500000D01*
X86500000Y-108000000D02*
X88500000Y-108000000D01*
X86000000Y-107500000D02*
X86500000Y-108000000D01*
X86000000Y-103500000D02*
X86000000Y-107500000D01*
X86420000Y-103080000D02*
X86000000Y-103500000D01*
X88620000Y-100540000D02*
X88620000Y-103080000D01*
X88620000Y-103080000D02*
X88540000Y-103000000D01*
D35*
X83000000Y-111000000D02*
X80000000Y-111000000D01*
X98000000Y-111000000D02*
X100000000Y-111000000D01*
X101000000Y-112000000D02*
X101000000Y-119000000D01*
X100000000Y-111000000D02*
X101000000Y-112000000D01*
X95000000Y-111000000D02*
X95000000Y-119000000D01*
X83000000Y-117000000D02*
X83000000Y-111000000D01*
X89000000Y-111000000D02*
X89000000Y-119000000D01*
X86000000Y-111000000D02*
X83000000Y-111000000D01*
X92000000Y-111000000D02*
X95000000Y-111000000D01*
X95000000Y-111000000D02*
X98000000Y-111000000D01*
X86000000Y-111000000D02*
X89000000Y-111000000D01*
X89000000Y-111000000D02*
X92000000Y-111000000D01*
X85500000Y-110500000D02*
X86000000Y-111000000D01*
D34*
X74500000Y-107500000D02*
X76000000Y-106000000D01*
X91730000Y-92770000D02*
X91730000Y-91620000D01*
X90500000Y-94000000D02*
X91730000Y-92770000D01*
X87000000Y-94000000D02*
X90500000Y-94000000D01*
X86000000Y-95000000D02*
X87000000Y-94000000D01*
X80000000Y-95000000D02*
X86000000Y-95000000D01*
X78500000Y-96500000D02*
X80000000Y-95000000D01*
X78500000Y-105500000D02*
X78500000Y-99500000D01*
X78000000Y-106000000D02*
X78500000Y-105500000D01*
X76000000Y-106000000D02*
X78000000Y-106000000D01*
D33*
X124000000Y-116460000D02*
X129460000Y-116460000D01*
X134000000Y-128000000D02*
X136100000Y-128000000D01*
X133500000Y-127500000D02*
X134000000Y-128000000D01*
X133500000Y-120500000D02*
X133500000Y-127500000D01*
X129460000Y-116460000D02*
X133500000Y-120500000D01*
X124000000Y-103460000D02*
X133460000Y-103460000D01*
X138640000Y-127140000D02*
X138640000Y-128000000D01*
X138000000Y-126500000D02*
X138640000Y-127140000D01*
X135500000Y-126500000D02*
X138000000Y-126500000D01*
X134500000Y-125500000D02*
X135500000Y-126500000D01*
X134500000Y-104500000D02*
X134500000Y-125500000D01*
X133460000Y-103460000D02*
X134500000Y-104500000D01*
X124000000Y-90460000D02*
X134960000Y-90460000D01*
X134960000Y-90460000D02*
X135000000Y-90500000D01*
X124000000Y-77460000D02*
X134960000Y-77460000D01*
X134960000Y-77460000D02*
X135000000Y-77500000D01*
X166000000Y-82540000D02*
X155040000Y-82540000D01*
X155040000Y-82540000D02*
X155000000Y-82500000D01*
X166000000Y-95540000D02*
X155040000Y-95540000D01*
X155040000Y-95540000D02*
X155000000Y-95500000D01*
X166000000Y-108540000D02*
X156960000Y-108540000D01*
X151340000Y-127000000D02*
X151340000Y-128000000D01*
X152000000Y-126500000D02*
X151340000Y-127000000D01*
X154500000Y-126500000D02*
X152000000Y-126500000D01*
X155500000Y-125500000D02*
X154500000Y-126500000D01*
X155500000Y-110000000D02*
X155500000Y-125500000D01*
X156960000Y-108540000D02*
X155500000Y-110000000D01*
X166000000Y-121540000D02*
X159460000Y-121540000D01*
X155500000Y-128000000D02*
X153880000Y-128000000D01*
X156500000Y-127000000D02*
X155500000Y-128000000D01*
X156500000Y-124500000D02*
X156500000Y-127000000D01*
X159460000Y-121540000D02*
X156500000Y-124500000D01*
D36*
X124000000Y-80000000D02*
X137000000Y-80000000D01*
D34*
X108000000Y-115000000D02*
X116600000Y-115000000D01*
X86650000Y-74950000D02*
X86650000Y-76380000D01*
X87400000Y-74200000D02*
X86650000Y-74950000D01*
X113000000Y-74200000D02*
X87400000Y-74200000D01*
X113700000Y-74900000D02*
X113000000Y-74200000D01*
X113700000Y-78600000D02*
X113700000Y-74900000D01*
X114800000Y-79700000D02*
X113700000Y-78600000D01*
X115900000Y-79700000D02*
X114800000Y-79700000D01*
X117400000Y-81200000D02*
X115900000Y-79700000D01*
X117400000Y-93900000D02*
X117400000Y-81200000D01*
X118600000Y-95100000D02*
X117400000Y-93900000D01*
X118600000Y-113000000D02*
X118600000Y-95100000D01*
X116600000Y-115000000D02*
X118600000Y-113000000D01*
X104430000Y-76380000D02*
X104430000Y-75570000D01*
D37*
G36*
X153373000Y-124373000D02*
X136627000Y-124373000D01*
X136627000Y-119502015D01*
X138228641Y-119502015D01*
X138613746Y-120434041D01*
X139326208Y-121147748D01*
X140257561Y-121534479D01*
X141266015Y-121535359D01*
X142198041Y-121150254D01*
X142911748Y-120437792D01*
X143298479Y-119506439D01*
X143298482Y-119502015D01*
X146700641Y-119502015D01*
X147085746Y-120434041D01*
X147798208Y-121147748D01*
X148729561Y-121534479D01*
X149738015Y-121535359D01*
X150670041Y-121150254D01*
X151383748Y-120437792D01*
X151770479Y-119506439D01*
X151771359Y-118497985D01*
X151386254Y-117565959D01*
X150673792Y-116852252D01*
X149742439Y-116465521D01*
X148733985Y-116464641D01*
X147801959Y-116849746D01*
X147088252Y-117562208D01*
X146701521Y-118493561D01*
X146700641Y-119502015D01*
X143298482Y-119502015D01*
X143299359Y-118497985D01*
X142914254Y-117565959D01*
X142201792Y-116852252D01*
X141270439Y-116465521D01*
X140261985Y-116464641D01*
X139329959Y-116849746D01*
X138616252Y-117562208D01*
X138229521Y-118493561D01*
X138228641Y-119502015D01*
X136627000Y-119502015D01*
X136627000Y-106502015D01*
X138228641Y-106502015D01*
X138613746Y-107434041D01*
X139326208Y-108147748D01*
X140257561Y-108534479D01*
X141266015Y-108535359D01*
X142198041Y-108150254D01*
X142911748Y-107437792D01*
X143298479Y-106506439D01*
X143298482Y-106502015D01*
X146700641Y-106502015D01*
X147085746Y-107434041D01*
X147798208Y-108147748D01*
X148729561Y-108534479D01*
X149738015Y-108535359D01*
X150670041Y-108150254D01*
X151383748Y-107437792D01*
X151770479Y-106506439D01*
X151771359Y-105497985D01*
X151386254Y-104565959D01*
X150673792Y-103852252D01*
X149742439Y-103465521D01*
X148733985Y-103464641D01*
X147801959Y-103849746D01*
X147088252Y-104562208D01*
X146701521Y-105493561D01*
X146700641Y-106502015D01*
X143298482Y-106502015D01*
X143299359Y-105497985D01*
X142914254Y-104565959D01*
X142201792Y-103852252D01*
X141270439Y-103465521D01*
X140261985Y-103464641D01*
X139329959Y-103849746D01*
X138616252Y-104562208D01*
X138229521Y-105493561D01*
X138228641Y-106502015D01*
X136627000Y-106502015D01*
X136627000Y-93502015D01*
X138228641Y-93502015D01*
X138613746Y-94434041D01*
X139326208Y-95147748D01*
X140257561Y-95534479D01*
X141266015Y-95535359D01*
X142198041Y-95150254D01*
X142911748Y-94437792D01*
X143298479Y-93506439D01*
X143298482Y-93502015D01*
X146700641Y-93502015D01*
X147085746Y-94434041D01*
X147798208Y-95147748D01*
X148729561Y-95534479D01*
X149738015Y-95535359D01*
X150670041Y-95150254D01*
X151383748Y-94437792D01*
X151770479Y-93506439D01*
X151771359Y-92497985D01*
X151386254Y-91565959D01*
X150673792Y-90852252D01*
X149742439Y-90465521D01*
X148733985Y-90464641D01*
X147801959Y-90849746D01*
X147088252Y-91562208D01*
X146701521Y-92493561D01*
X146700641Y-93502015D01*
X143298482Y-93502015D01*
X143299359Y-92497985D01*
X142914254Y-91565959D01*
X142201792Y-90852252D01*
X141270439Y-90465521D01*
X140261985Y-90464641D01*
X139329959Y-90849746D01*
X138616252Y-91562208D01*
X138229521Y-92493561D01*
X138228641Y-93502015D01*
X136627000Y-93502015D01*
X136627000Y-80502015D01*
X138228641Y-80502015D01*
X138613746Y-81434041D01*
X139326208Y-82147748D01*
X140257561Y-82534479D01*
X141266015Y-82535359D01*
X142198041Y-82150254D01*
X142911748Y-81437792D01*
X143298479Y-80506439D01*
X143298482Y-80502015D01*
X146700641Y-80502015D01*
X147085746Y-81434041D01*
X147798208Y-82147748D01*
X148729561Y-82534479D01*
X149738015Y-82535359D01*
X150670041Y-82150254D01*
X151383748Y-81437792D01*
X151770479Y-80506439D01*
X151771359Y-79497985D01*
X151386254Y-78565959D01*
X150673792Y-77852252D01*
X149742439Y-77465521D01*
X148733985Y-77464641D01*
X147801959Y-77849746D01*
X147088252Y-78562208D01*
X146701521Y-79493561D01*
X146700641Y-80502015D01*
X143298482Y-80502015D01*
X143299359Y-79497985D01*
X142914254Y-78565959D01*
X142201792Y-77852252D01*
X141270439Y-77465521D01*
X140261985Y-77464641D01*
X139329959Y-77849746D01*
X138616252Y-78562208D01*
X138229521Y-79493561D01*
X138228641Y-80502015D01*
X136627000Y-80502015D01*
X136627000Y-71127000D01*
X153373000Y-71127000D01*
X153373000Y-124373000D01*
X153373000Y-124373000D01*
G37*
X153373000Y-124373000D02*
X136627000Y-124373000D01*
X136627000Y-119502015D01*
X138228641Y-119502015D01*
X138613746Y-120434041D01*
X139326208Y-121147748D01*
X140257561Y-121534479D01*
X141266015Y-121535359D01*
X142198041Y-121150254D01*
X142911748Y-120437792D01*
X143298479Y-119506439D01*
X143298482Y-119502015D01*
X146700641Y-119502015D01*
X147085746Y-120434041D01*
X147798208Y-121147748D01*
X148729561Y-121534479D01*
X149738015Y-121535359D01*
X150670041Y-121150254D01*
X151383748Y-120437792D01*
X151770479Y-119506439D01*
X151771359Y-118497985D01*
X151386254Y-117565959D01*
X150673792Y-116852252D01*
X149742439Y-116465521D01*
X148733985Y-116464641D01*
X147801959Y-116849746D01*
X147088252Y-117562208D01*
X146701521Y-118493561D01*
X146700641Y-119502015D01*
X143298482Y-119502015D01*
X143299359Y-118497985D01*
X142914254Y-117565959D01*
X142201792Y-116852252D01*
X141270439Y-116465521D01*
X140261985Y-116464641D01*
X139329959Y-116849746D01*
X138616252Y-117562208D01*
X138229521Y-118493561D01*
X138228641Y-119502015D01*
X136627000Y-119502015D01*
X136627000Y-106502015D01*
X138228641Y-106502015D01*
X138613746Y-107434041D01*
X139326208Y-108147748D01*
X140257561Y-108534479D01*
X141266015Y-108535359D01*
X142198041Y-108150254D01*
X142911748Y-107437792D01*
X143298479Y-106506439D01*
X143298482Y-106502015D01*
X146700641Y-106502015D01*
X147085746Y-107434041D01*
X147798208Y-108147748D01*
X148729561Y-108534479D01*
X149738015Y-108535359D01*
X150670041Y-108150254D01*
X151383748Y-107437792D01*
X151770479Y-106506439D01*
X151771359Y-105497985D01*
X151386254Y-104565959D01*
X150673792Y-103852252D01*
X149742439Y-103465521D01*
X148733985Y-103464641D01*
X147801959Y-103849746D01*
X147088252Y-104562208D01*
X146701521Y-105493561D01*
X146700641Y-106502015D01*
X143298482Y-106502015D01*
X143299359Y-105497985D01*
X142914254Y-104565959D01*
X142201792Y-103852252D01*
X141270439Y-103465521D01*
X140261985Y-103464641D01*
X139329959Y-103849746D01*
X138616252Y-104562208D01*
X138229521Y-105493561D01*
X138228641Y-106502015D01*
X136627000Y-106502015D01*
X136627000Y-93502015D01*
X138228641Y-93502015D01*
X138613746Y-94434041D01*
X139326208Y-95147748D01*
X140257561Y-95534479D01*
X141266015Y-95535359D01*
X142198041Y-95150254D01*
X142911748Y-94437792D01*
X143298479Y-93506439D01*
X143298482Y-93502015D01*
X146700641Y-93502015D01*
X147085746Y-94434041D01*
X147798208Y-95147748D01*
X148729561Y-95534479D01*
X149738015Y-95535359D01*
X150670041Y-95150254D01*
X151383748Y-94437792D01*
X151770479Y-93506439D01*
X151771359Y-92497985D01*
X151386254Y-91565959D01*
X150673792Y-90852252D01*
X149742439Y-90465521D01*
X148733985Y-90464641D01*
X147801959Y-90849746D01*
X147088252Y-91562208D01*
X146701521Y-92493561D01*
X146700641Y-93502015D01*
X143298482Y-93502015D01*
X143299359Y-92497985D01*
X142914254Y-91565959D01*
X142201792Y-90852252D01*
X141270439Y-90465521D01*
X140261985Y-90464641D01*
X139329959Y-90849746D01*
X138616252Y-91562208D01*
X138229521Y-92493561D01*
X138228641Y-93502015D01*
X136627000Y-93502015D01*
X136627000Y-80502015D01*
X138228641Y-80502015D01*
X138613746Y-81434041D01*
X139326208Y-82147748D01*
X140257561Y-82534479D01*
X141266015Y-82535359D01*
X142198041Y-82150254D01*
X142911748Y-81437792D01*
X143298479Y-80506439D01*
X143298482Y-80502015D01*
X146700641Y-80502015D01*
X147085746Y-81434041D01*
X147798208Y-82147748D01*
X148729561Y-82534479D01*
X149738015Y-82535359D01*
X150670041Y-82150254D01*
X151383748Y-81437792D01*
X151770479Y-80506439D01*
X151771359Y-79497985D01*
X151386254Y-78565959D01*
X150673792Y-77852252D01*
X149742439Y-77465521D01*
X148733985Y-77464641D01*
X147801959Y-77849746D01*
X147088252Y-78562208D01*
X146701521Y-79493561D01*
X146700641Y-80502015D01*
X143298482Y-80502015D01*
X143299359Y-79497985D01*
X142914254Y-78565959D01*
X142201792Y-77852252D01*
X141270439Y-77465521D01*
X140261985Y-77464641D01*
X139329959Y-77849746D01*
X138616252Y-78562208D01*
X138229521Y-79493561D01*
X138228641Y-80502015D01*
X136627000Y-80502015D01*
X136627000Y-71127000D01*
X153373000Y-71127000D01*
X153373000Y-124373000D01*
M02*
