G04 #@! TF.FileFunction,Copper,L2,Bot,Signal*
%FSLAX46Y46*%
G04 Gerber Fmt 4.6, Leading zero omitted, Abs format (unit mm)*
G04 Created by KiCad (PCBNEW 4.0.4-stable) date 02/25/17 10:50:14*
%MOMM*%
%LPD*%
G01*
G04 APERTURE LIST*
%ADD10C,0.100000*%
%ADD11C,1.600000*%
%ADD12C,2.000000*%
%ADD13R,2.200000X2.200000*%
%ADD14O,2.200000X2.200000*%
%ADD15O,2.524000X1.524000*%
%ADD16R,2.000000X2.600000*%
%ADD17O,2.000000X2.600000*%
%ADD18R,1.700000X1.700000*%
%ADD19O,1.700000X1.700000*%
%ADD20R,2.400000X1.600000*%
%ADD21O,2.400000X1.600000*%
%ADD22O,2.000000X1.524000*%
%ADD23R,4.000000X4.000000*%
%ADD24R,1.574800X2.286000*%
%ADD25O,1.574800X2.286000*%
%ADD26C,2.499360*%
%ADD27O,3.500120X1.699260*%
%ADD28C,0.600000*%
%ADD29C,1.000000*%
%ADD30C,0.350000*%
%ADD31C,0.500000*%
%ADD32C,0.250000*%
%ADD33C,2.000000*%
%ADD34C,0.254000*%
G04 APERTURE END LIST*
D10*
D11*
X76000000Y-99000000D03*
X76000000Y-104000000D03*
D12*
X94500000Y-101000000D03*
X94500000Y-106000000D03*
D13*
X104500000Y-111000000D03*
D14*
X104500000Y-121160000D03*
D15*
X116620000Y-106080000D03*
X116620000Y-103540000D03*
X116620000Y-101000000D03*
X116620000Y-98460000D03*
X116620000Y-95920000D03*
X101380000Y-95920000D03*
X101380000Y-98460000D03*
X101380000Y-101000000D03*
X101380000Y-103540000D03*
X101380000Y-106080000D03*
D16*
X78500000Y-126000000D03*
D17*
X81040000Y-126000000D03*
D18*
X86100000Y-128000000D03*
D19*
X88640000Y-128000000D03*
X91180000Y-128000000D03*
X93720000Y-128000000D03*
X96260000Y-128000000D03*
X98800000Y-128000000D03*
X101340000Y-128000000D03*
X103880000Y-128000000D03*
D20*
X81000000Y-98000000D03*
D21*
X88620000Y-105620000D03*
X81000000Y-100540000D03*
X88620000Y-103080000D03*
X81000000Y-103080000D03*
X88620000Y-100540000D03*
X81000000Y-105620000D03*
X88620000Y-98000000D03*
D18*
X80000000Y-72000000D03*
D19*
X82540000Y-72000000D03*
D18*
X110000000Y-72000000D03*
D19*
X107460000Y-72000000D03*
D22*
X108000000Y-112500000D03*
X108000000Y-115000000D03*
X108000000Y-117500000D03*
D23*
X115000000Y-119400000D03*
X115000000Y-110600000D03*
D24*
X112050000Y-76380000D03*
D25*
X109510000Y-76380000D03*
X106970000Y-76380000D03*
X104430000Y-76380000D03*
X101890000Y-76380000D03*
X99350000Y-76380000D03*
X96810000Y-76380000D03*
X94270000Y-76380000D03*
X91730000Y-76380000D03*
X89190000Y-76380000D03*
X86650000Y-76380000D03*
X84110000Y-76380000D03*
X81570000Y-76380000D03*
X79030000Y-76380000D03*
X76490000Y-76380000D03*
X76490000Y-91620000D03*
X79030000Y-91620000D03*
X81570000Y-91620000D03*
X84110000Y-91620000D03*
X86650000Y-91620000D03*
X89190000Y-91620000D03*
X91730000Y-91620000D03*
X94270000Y-91620000D03*
X96810000Y-91620000D03*
X99350000Y-91620000D03*
X101890000Y-91620000D03*
X104430000Y-91620000D03*
X106970000Y-91620000D03*
X109510000Y-91620000D03*
X112050000Y-91620000D03*
D26*
X112000000Y-128000000D03*
X108000000Y-128000000D03*
D18*
X130000000Y-72000000D03*
D19*
X132540000Y-72000000D03*
D18*
X160000000Y-72000000D03*
D19*
X157460000Y-72000000D03*
D27*
X166000000Y-119000000D03*
X166000000Y-121540000D03*
X166000000Y-116460000D03*
X166000000Y-106000000D03*
X166000000Y-108540000D03*
X166000000Y-103460000D03*
X166000000Y-93000000D03*
X166000000Y-95540000D03*
X166000000Y-90460000D03*
X166000000Y-80000000D03*
X166000000Y-82540000D03*
X166000000Y-77460000D03*
X124000000Y-80000000D03*
X124000000Y-77460000D03*
X124000000Y-82540000D03*
X124000000Y-93000000D03*
X124000000Y-90460000D03*
X124000000Y-95540000D03*
X124000000Y-106000000D03*
X124000000Y-103460000D03*
X124000000Y-108540000D03*
X124000000Y-119000000D03*
X124000000Y-116460000D03*
X124000000Y-121540000D03*
D18*
X136100000Y-128000000D03*
D19*
X138640000Y-128000000D03*
X141180000Y-128000000D03*
X143720000Y-128000000D03*
X146260000Y-128000000D03*
X148800000Y-128000000D03*
X151340000Y-128000000D03*
X153880000Y-128000000D03*
D28*
X91000000Y-96000000D03*
X71500000Y-99000000D03*
X75000000Y-97000000D03*
X72500000Y-82500000D03*
X75000000Y-82500000D03*
X86000000Y-96500000D03*
X86000000Y-99500000D03*
X78500000Y-96500000D03*
X78500000Y-99500000D03*
X135000000Y-90500000D03*
X135000000Y-77500000D03*
X155000000Y-82500000D03*
X155000000Y-95500000D03*
D29*
X94500000Y-106000000D02*
X93500000Y-107000000D01*
X94500000Y-106000000D02*
X95500000Y-107000000D01*
X94500000Y-106000000D02*
X95500000Y-105000000D01*
X94500000Y-106000000D02*
X93500000Y-105000000D01*
X112000000Y-128000000D02*
X111000000Y-129000000D01*
X112000000Y-128000000D02*
X113000000Y-129000000D01*
X112000000Y-128000000D02*
X113500000Y-126500000D01*
X112000000Y-128000000D02*
X110500000Y-126500000D01*
X81000000Y-105620000D02*
X79120000Y-105620000D01*
X79120000Y-105620000D02*
X79000000Y-105500000D01*
X81000000Y-105620000D02*
X82880000Y-105620000D01*
X82880000Y-105620000D02*
X83000000Y-105500000D01*
X88620000Y-105620000D02*
X90380000Y-105620000D01*
X90380000Y-105620000D02*
X90500000Y-105500000D01*
X88620000Y-105620000D02*
X86620000Y-105620000D01*
X86620000Y-105620000D02*
X86500000Y-105500000D01*
X111500000Y-128000000D02*
X112000000Y-128000000D01*
D30*
X116620000Y-101000000D02*
X101380000Y-101000000D01*
X73000000Y-99000000D02*
X71500000Y-99000000D01*
X75000000Y-97000000D02*
X73000000Y-99000000D01*
X77540000Y-125500000D02*
X78000000Y-125500000D01*
X81040000Y-126000000D02*
X81040000Y-122460000D01*
X106500000Y-112500000D02*
X108000000Y-112500000D01*
X102500000Y-116500000D02*
X106500000Y-112500000D01*
X87000000Y-116500000D02*
X102500000Y-116500000D01*
X81040000Y-122460000D02*
X87000000Y-116500000D01*
X75000000Y-82500000D02*
X72500000Y-82500000D01*
X86000000Y-99500000D02*
X86000000Y-96500000D01*
X78500000Y-99500000D02*
X78500000Y-96500000D01*
D31*
X141180000Y-126680000D02*
X141180000Y-128000000D01*
X140000000Y-125500000D02*
X141180000Y-126680000D01*
X136000000Y-125500000D02*
X140000000Y-125500000D01*
X135500000Y-125000000D02*
X136000000Y-125500000D01*
X135500000Y-91000000D02*
X135500000Y-125000000D01*
X135000000Y-90500000D02*
X135500000Y-91000000D01*
X143720000Y-126220000D02*
X143720000Y-128000000D01*
X142000000Y-124500000D02*
X143720000Y-126220000D01*
X137000000Y-124500000D02*
X142000000Y-124500000D01*
X136500000Y-124000000D02*
X137000000Y-124500000D01*
X136500000Y-79000000D02*
X136500000Y-124000000D01*
X135000000Y-77500000D02*
X136500000Y-79000000D01*
X146260000Y-125740000D02*
X146260000Y-128000000D01*
X147500000Y-124500000D02*
X146260000Y-125740000D01*
X152500000Y-124500000D02*
X147500000Y-124500000D01*
X153500000Y-123500000D02*
X152500000Y-124500000D01*
X153500000Y-84000000D02*
X153500000Y-123500000D01*
X155000000Y-82500000D02*
X153500000Y-84000000D01*
X148800000Y-126700000D02*
X148800000Y-128000000D01*
X150000000Y-125500000D02*
X148800000Y-126700000D01*
X153500000Y-125500000D02*
X150000000Y-125500000D01*
X154500000Y-124500000D02*
X153500000Y-125500000D01*
X154500000Y-96000000D02*
X154500000Y-124500000D01*
X155000000Y-95500000D02*
X154500000Y-96000000D01*
D32*
X124000000Y-121540000D02*
X119460000Y-121540000D01*
X119460000Y-121540000D02*
X119000000Y-122000000D01*
D33*
X124000000Y-95540000D02*
X127460000Y-95540000D01*
X127460000Y-95540000D02*
X127500000Y-95500000D01*
X124000000Y-82540000D02*
X127460000Y-82540000D01*
X127460000Y-82540000D02*
X127500000Y-82500000D01*
X166000000Y-77460000D02*
X162540000Y-77460000D01*
X162540000Y-77460000D02*
X162500000Y-77500000D01*
X124000000Y-121540000D02*
X127960000Y-121540000D01*
X127960000Y-121540000D02*
X128000000Y-121500000D01*
X166000000Y-90460000D02*
X162540000Y-90460000D01*
X162540000Y-90460000D02*
X162500000Y-90500000D01*
X124000000Y-108540000D02*
X127460000Y-108540000D01*
X127460000Y-108540000D02*
X127500000Y-108500000D01*
X166000000Y-103460000D02*
X162040000Y-103460000D01*
X162040000Y-103460000D02*
X162000000Y-103500000D01*
X166000000Y-116460000D02*
X162040000Y-116460000D01*
X162040000Y-116460000D02*
X162000000Y-116500000D01*
D34*
G36*
X119373000Y-129290000D02*
X112943530Y-129290000D01*
X113062549Y-129098470D01*
X112000000Y-128035921D01*
X110937451Y-129098470D01*
X111056470Y-129290000D01*
X109375415Y-129290000D01*
X109596822Y-129068979D01*
X109884352Y-128376531D01*
X109884438Y-128277045D01*
X110413171Y-128277045D01*
X110639982Y-128863209D01*
X110682041Y-128926156D01*
X110901530Y-129062549D01*
X111964079Y-128000000D01*
X112035921Y-128000000D01*
X113098470Y-129062549D01*
X113317959Y-128926156D01*
X113572060Y-128351296D01*
X113586829Y-127722955D01*
X113478356Y-127442619D01*
X114764613Y-127442619D01*
X115104155Y-128264372D01*
X115732321Y-128893636D01*
X116553481Y-129234611D01*
X117442619Y-129235387D01*
X118264372Y-128895845D01*
X118893636Y-128267679D01*
X119234611Y-127446519D01*
X119235387Y-126557381D01*
X118895845Y-125735628D01*
X118267679Y-125106364D01*
X117446519Y-124765389D01*
X116557381Y-124764613D01*
X115735628Y-125104155D01*
X115106364Y-125732321D01*
X114765389Y-126553481D01*
X114764613Y-127442619D01*
X113478356Y-127442619D01*
X113360018Y-127136791D01*
X113317959Y-127073844D01*
X113098470Y-126937451D01*
X112035921Y-128000000D01*
X111964079Y-128000000D01*
X110901530Y-126937451D01*
X110682041Y-127073844D01*
X110427940Y-127648704D01*
X110413171Y-128277045D01*
X109884438Y-128277045D01*
X109885006Y-127626759D01*
X109598686Y-126933809D01*
X109566464Y-126901530D01*
X110937451Y-126901530D01*
X112000000Y-127964079D01*
X113062549Y-126901530D01*
X112926156Y-126682041D01*
X112351296Y-126427940D01*
X111722955Y-126413171D01*
X111136791Y-126639982D01*
X111073844Y-126682041D01*
X110937451Y-126901530D01*
X109566464Y-126901530D01*
X109068979Y-126403178D01*
X108376531Y-126115648D01*
X107626759Y-126114994D01*
X106933809Y-126401314D01*
X106403178Y-126931021D01*
X106115648Y-127623469D01*
X106114994Y-128373241D01*
X106401314Y-129066191D01*
X106624733Y-129290000D01*
X104614489Y-129290000D01*
X104930054Y-129079147D01*
X105251961Y-128597378D01*
X105365000Y-128029093D01*
X105365000Y-127970907D01*
X105251961Y-127402622D01*
X104930054Y-126920853D01*
X104448285Y-126598946D01*
X103880000Y-126485907D01*
X103311715Y-126598946D01*
X102829946Y-126920853D01*
X102610000Y-127250026D01*
X102390054Y-126920853D01*
X101908285Y-126598946D01*
X101340000Y-126485907D01*
X100771715Y-126598946D01*
X100289946Y-126920853D01*
X100070000Y-127250026D01*
X99850054Y-126920853D01*
X99368285Y-126598946D01*
X98800000Y-126485907D01*
X98231715Y-126598946D01*
X97749946Y-126920853D01*
X97530000Y-127250026D01*
X97310054Y-126920853D01*
X96828285Y-126598946D01*
X96260000Y-126485907D01*
X95691715Y-126598946D01*
X95209946Y-126920853D01*
X94990000Y-127250026D01*
X94770054Y-126920853D01*
X94288285Y-126598946D01*
X93720000Y-126485907D01*
X93151715Y-126598946D01*
X92669946Y-126920853D01*
X92450000Y-127250026D01*
X92230054Y-126920853D01*
X91748285Y-126598946D01*
X91180000Y-126485907D01*
X90611715Y-126598946D01*
X90129946Y-126920853D01*
X89910000Y-127250026D01*
X89690054Y-126920853D01*
X89208285Y-126598946D01*
X88640000Y-126485907D01*
X88071715Y-126598946D01*
X87589946Y-126920853D01*
X87562150Y-126962452D01*
X87553162Y-126914683D01*
X87414090Y-126698559D01*
X87201890Y-126553569D01*
X86950000Y-126502560D01*
X85250000Y-126502560D01*
X85014683Y-126546838D01*
X84798559Y-126685910D01*
X84653569Y-126898110D01*
X84602560Y-127150000D01*
X84602560Y-128850000D01*
X84646838Y-129085317D01*
X84778548Y-129290000D01*
X70710000Y-129290000D01*
X70710000Y-127442619D01*
X70764613Y-127442619D01*
X71104155Y-128264372D01*
X71732321Y-128893636D01*
X72553481Y-129234611D01*
X73442619Y-129235387D01*
X74264372Y-128895845D01*
X74893636Y-128267679D01*
X75234611Y-127446519D01*
X75235387Y-126557381D01*
X74895845Y-125735628D01*
X74660629Y-125500000D01*
X76730000Y-125500000D01*
X76791658Y-125809974D01*
X76852560Y-125901120D01*
X76852560Y-127300000D01*
X76896838Y-127535317D01*
X77035910Y-127751441D01*
X77248110Y-127896431D01*
X77500000Y-127947440D01*
X79500000Y-127947440D01*
X79735317Y-127903162D01*
X79951441Y-127764090D01*
X80056951Y-127609671D01*
X80414313Y-127848452D01*
X81040000Y-127972909D01*
X81665687Y-127848452D01*
X82196120Y-127494029D01*
X82550543Y-126963596D01*
X82675000Y-126337909D01*
X82675000Y-125662091D01*
X82550543Y-125036404D01*
X82196120Y-124505971D01*
X81850000Y-124274702D01*
X81850000Y-122795512D01*
X83519503Y-121126009D01*
X102765000Y-121126009D01*
X102765000Y-121193991D01*
X102897069Y-121857947D01*
X103273170Y-122420821D01*
X103836044Y-122796922D01*
X104500000Y-122928991D01*
X105163956Y-122796922D01*
X105726830Y-122420821D01*
X106102931Y-121857947D01*
X106235000Y-121193991D01*
X106235000Y-121126009D01*
X106102931Y-120462053D01*
X105726830Y-119899179D01*
X105163956Y-119523078D01*
X104500000Y-119391009D01*
X103836044Y-119523078D01*
X103273170Y-119899179D01*
X102897069Y-120462053D01*
X102765000Y-121126009D01*
X83519503Y-121126009D01*
X86949613Y-117695899D01*
X106687512Y-117695899D01*
X106743219Y-117894501D01*
X106971738Y-118254342D01*
X107320567Y-118499341D01*
X107736600Y-118592200D01*
X107974600Y-118592200D01*
X107974600Y-117525400D01*
X108025400Y-117525400D01*
X108025400Y-118592200D01*
X108263400Y-118592200D01*
X108679433Y-118499341D01*
X109028262Y-118254342D01*
X109256781Y-117894501D01*
X109312488Y-117695899D01*
X109247330Y-117525400D01*
X108025400Y-117525400D01*
X107974600Y-117525400D01*
X106752670Y-117525400D01*
X106687512Y-117695899D01*
X86949613Y-117695899D01*
X87335513Y-117310000D01*
X102500000Y-117310000D01*
X102529656Y-117304101D01*
X106687512Y-117304101D01*
X106752670Y-117474600D01*
X107974600Y-117474600D01*
X107974600Y-116407800D01*
X108025400Y-116407800D01*
X108025400Y-117474600D01*
X109247330Y-117474600D01*
X109275839Y-117400000D01*
X112352560Y-117400000D01*
X112352560Y-121400000D01*
X112396838Y-121635317D01*
X112535910Y-121851441D01*
X112748110Y-121996431D01*
X113000000Y-122047440D01*
X117000000Y-122047440D01*
X117235317Y-122003162D01*
X117451441Y-121864090D01*
X117596431Y-121651890D01*
X117647440Y-121400000D01*
X117647440Y-117400000D01*
X117603162Y-117164683D01*
X117464090Y-116948559D01*
X117251890Y-116803569D01*
X117000000Y-116752560D01*
X113000000Y-116752560D01*
X112764683Y-116796838D01*
X112548559Y-116935910D01*
X112403569Y-117148110D01*
X112352560Y-117400000D01*
X109275839Y-117400000D01*
X109312488Y-117304101D01*
X109256781Y-117105499D01*
X109028262Y-116745658D01*
X108679433Y-116500659D01*
X108263400Y-116407800D01*
X108025400Y-116407800D01*
X107974600Y-116407800D01*
X107736600Y-116407800D01*
X107320567Y-116500659D01*
X106971738Y-116745658D01*
X106743219Y-117105499D01*
X106687512Y-117304101D01*
X102529656Y-117304101D01*
X102809974Y-117248342D01*
X103072756Y-117072756D01*
X106708312Y-113437201D01*
X106742140Y-113487828D01*
X107134507Y-113750000D01*
X106742140Y-114012172D01*
X106439308Y-114465391D01*
X106332968Y-115000000D01*
X106439308Y-115534609D01*
X106742140Y-115987828D01*
X107195359Y-116290660D01*
X107729968Y-116397000D01*
X108270032Y-116397000D01*
X108804641Y-116290660D01*
X109257860Y-115987828D01*
X109560692Y-115534609D01*
X109667032Y-115000000D01*
X109560692Y-114465391D01*
X109257860Y-114012172D01*
X108865493Y-113750000D01*
X109257860Y-113487828D01*
X109560692Y-113034609D01*
X109667032Y-112500000D01*
X109560692Y-111965391D01*
X109257860Y-111512172D01*
X108804641Y-111209340D01*
X108270032Y-111103000D01*
X107729968Y-111103000D01*
X107195359Y-111209340D01*
X106742140Y-111512172D01*
X106623319Y-111690000D01*
X106500000Y-111690000D01*
X106247440Y-111740238D01*
X106247440Y-109900000D01*
X106203162Y-109664683D01*
X106064090Y-109448559D01*
X105851890Y-109303569D01*
X105600000Y-109252560D01*
X103400000Y-109252560D01*
X103164683Y-109296838D01*
X102948559Y-109435910D01*
X102803569Y-109648110D01*
X102752560Y-109900000D01*
X102752560Y-112100000D01*
X102796838Y-112335317D01*
X102935910Y-112551441D01*
X103148110Y-112696431D01*
X103400000Y-112747440D01*
X105107047Y-112747440D01*
X102164488Y-115690000D01*
X87000000Y-115690000D01*
X86827897Y-115724234D01*
X86690027Y-115751657D01*
X86427244Y-115927243D01*
X80467244Y-121887244D01*
X80291658Y-122150026D01*
X80230000Y-122460000D01*
X80230000Y-124274702D01*
X80055808Y-124391093D01*
X79964090Y-124248559D01*
X79751890Y-124103569D01*
X79500000Y-124052560D01*
X77500000Y-124052560D01*
X77264683Y-124096838D01*
X77048559Y-124235910D01*
X76903569Y-124448110D01*
X76852560Y-124700000D01*
X76852560Y-125098880D01*
X76791658Y-125190026D01*
X76730000Y-125500000D01*
X74660629Y-125500000D01*
X74267679Y-125106364D01*
X73446519Y-124765389D01*
X72557381Y-124764613D01*
X71735628Y-125104155D01*
X71106364Y-125732321D01*
X70765389Y-126553481D01*
X70764613Y-127442619D01*
X70710000Y-127442619D01*
X70710000Y-108600000D01*
X112352560Y-108600000D01*
X112352560Y-112600000D01*
X112396838Y-112835317D01*
X112535910Y-113051441D01*
X112748110Y-113196431D01*
X113000000Y-113247440D01*
X117000000Y-113247440D01*
X117235317Y-113203162D01*
X117451441Y-113064090D01*
X117596431Y-112851890D01*
X117647440Y-112600000D01*
X117647440Y-108600000D01*
X117603162Y-108364683D01*
X117464090Y-108148559D01*
X117251890Y-108003569D01*
X117000000Y-107952560D01*
X113000000Y-107952560D01*
X112764683Y-107996838D01*
X112548559Y-108135910D01*
X112403569Y-108348110D01*
X112352560Y-108600000D01*
X70710000Y-108600000D01*
X70710000Y-106918431D01*
X93617490Y-106918431D01*
X93723499Y-107111975D01*
X94208141Y-107324485D01*
X94737216Y-107335354D01*
X95230177Y-107142928D01*
X95276501Y-107111975D01*
X95382510Y-106918431D01*
X94500000Y-106035921D01*
X93617490Y-106918431D01*
X70710000Y-106918431D01*
X70710000Y-105821845D01*
X79487970Y-105821845D01*
X79546112Y-106029042D01*
X79782868Y-106401211D01*
X80144025Y-106654448D01*
X80574600Y-106750200D01*
X80974600Y-106750200D01*
X80974600Y-105645400D01*
X81025400Y-105645400D01*
X81025400Y-106750200D01*
X81425400Y-106750200D01*
X81855975Y-106654448D01*
X82217132Y-106401211D01*
X82453888Y-106029042D01*
X82512030Y-105821845D01*
X87107970Y-105821845D01*
X87166112Y-106029042D01*
X87402868Y-106401211D01*
X87764025Y-106654448D01*
X88194600Y-106750200D01*
X88594600Y-106750200D01*
X88594600Y-105645400D01*
X88645400Y-105645400D01*
X88645400Y-106750200D01*
X89045400Y-106750200D01*
X89475975Y-106654448D01*
X89837132Y-106401211D01*
X89941457Y-106237216D01*
X93164646Y-106237216D01*
X93357072Y-106730177D01*
X93388025Y-106776501D01*
X93581569Y-106882510D01*
X94464079Y-106000000D01*
X94535921Y-106000000D01*
X95418431Y-106882510D01*
X95611975Y-106776501D01*
X95824485Y-106291859D01*
X95835354Y-105762784D01*
X95642928Y-105269823D01*
X95611975Y-105223499D01*
X95418431Y-105117490D01*
X94535921Y-106000000D01*
X94464079Y-106000000D01*
X93581569Y-105117490D01*
X93388025Y-105223499D01*
X93175515Y-105708141D01*
X93164646Y-106237216D01*
X89941457Y-106237216D01*
X90073888Y-106029042D01*
X90132030Y-105821845D01*
X90067342Y-105645400D01*
X88645400Y-105645400D01*
X88594600Y-105645400D01*
X87172658Y-105645400D01*
X87107970Y-105821845D01*
X82512030Y-105821845D01*
X82447342Y-105645400D01*
X81025400Y-105645400D01*
X80974600Y-105645400D01*
X79552658Y-105645400D01*
X79487970Y-105821845D01*
X70710000Y-105821845D01*
X70710000Y-104774204D01*
X75261717Y-104774204D01*
X75343383Y-104946967D01*
X75755754Y-105126159D01*
X76205309Y-105133904D01*
X76623607Y-104969023D01*
X76656617Y-104946967D01*
X76738283Y-104774204D01*
X76000000Y-104035921D01*
X75261717Y-104774204D01*
X70710000Y-104774204D01*
X70710000Y-104205309D01*
X74866096Y-104205309D01*
X75030977Y-104623607D01*
X75053033Y-104656617D01*
X75225796Y-104738283D01*
X75964079Y-104000000D01*
X76035921Y-104000000D01*
X76774204Y-104738283D01*
X76946967Y-104656617D01*
X77126159Y-104244246D01*
X77133904Y-103794691D01*
X76969023Y-103376393D01*
X76946967Y-103343383D01*
X76774204Y-103261717D01*
X76035921Y-104000000D01*
X75964079Y-104000000D01*
X75225796Y-103261717D01*
X75053033Y-103343383D01*
X74873841Y-103755754D01*
X74866096Y-104205309D01*
X70710000Y-104205309D01*
X70710000Y-103225796D01*
X75261717Y-103225796D01*
X76000000Y-103964079D01*
X76738283Y-103225796D01*
X76656617Y-103053033D01*
X76244246Y-102873841D01*
X75794691Y-102866096D01*
X75376393Y-103030977D01*
X75343383Y-103053033D01*
X75261717Y-103225796D01*
X70710000Y-103225796D01*
X70710000Y-99532065D01*
X70969673Y-99792192D01*
X71313201Y-99934838D01*
X71685167Y-99935162D01*
X71988083Y-99810000D01*
X73000000Y-99810000D01*
X73309974Y-99748342D01*
X73572756Y-99572756D01*
X74659725Y-98485787D01*
X74565250Y-98713309D01*
X74564752Y-99284187D01*
X74782757Y-99811800D01*
X75186077Y-100215824D01*
X75713309Y-100434750D01*
X76284187Y-100435248D01*
X76811800Y-100217243D01*
X77215824Y-99813923D01*
X77434750Y-99286691D01*
X77435248Y-98715813D01*
X77217243Y-98188200D01*
X76813923Y-97784176D01*
X76286691Y-97565250D01*
X75757670Y-97564789D01*
X75792192Y-97530327D01*
X75934838Y-97186799D01*
X75935162Y-96814833D01*
X75881586Y-96685167D01*
X77564838Y-96685167D01*
X77690000Y-96988083D01*
X77690000Y-99012559D01*
X77565162Y-99313201D01*
X77564838Y-99685167D01*
X77706883Y-100028943D01*
X77969673Y-100292192D01*
X78313201Y-100434838D01*
X78685167Y-100435162D01*
X79028943Y-100293117D01*
X79215128Y-100107257D01*
X79129050Y-100540000D01*
X79238283Y-101089151D01*
X79549352Y-101554698D01*
X79931438Y-101810000D01*
X79549352Y-102065302D01*
X79238283Y-102530849D01*
X79129050Y-103080000D01*
X79238283Y-103629151D01*
X79549352Y-104094698D01*
X80014899Y-104405767D01*
X80509803Y-104504210D01*
X80144025Y-104585552D01*
X79782868Y-104838789D01*
X79546112Y-105210958D01*
X79487970Y-105418155D01*
X79552658Y-105594600D01*
X80974600Y-105594600D01*
X80974600Y-105574600D01*
X81025400Y-105574600D01*
X81025400Y-105594600D01*
X82447342Y-105594600D01*
X82512030Y-105418155D01*
X82453888Y-105210958D01*
X82217132Y-104838789D01*
X81855975Y-104585552D01*
X81490197Y-104504210D01*
X81985101Y-104405767D01*
X82450648Y-104094698D01*
X82761717Y-103629151D01*
X82870950Y-103080000D01*
X82761717Y-102530849D01*
X82450648Y-102065302D01*
X82068562Y-101810000D01*
X82450648Y-101554698D01*
X82761717Y-101089151D01*
X82870950Y-100540000D01*
X82761717Y-99990849D01*
X82450648Y-99525302D01*
X82304650Y-99427749D01*
X82435317Y-99403162D01*
X82651441Y-99264090D01*
X82796431Y-99051890D01*
X82847440Y-98800000D01*
X82847440Y-97200000D01*
X82803162Y-96964683D01*
X82664090Y-96748559D01*
X82571313Y-96685167D01*
X85064838Y-96685167D01*
X85190000Y-96988083D01*
X85190000Y-99012559D01*
X85065162Y-99313201D01*
X85064838Y-99685167D01*
X85206883Y-100028943D01*
X85469673Y-100292192D01*
X85813201Y-100434838D01*
X86185167Y-100435162D01*
X86528943Y-100293117D01*
X86792192Y-100030327D01*
X86934838Y-99686799D01*
X86935162Y-99314833D01*
X86810000Y-99011917D01*
X86810000Y-98306416D01*
X86858283Y-98549151D01*
X87169352Y-99014698D01*
X87551438Y-99270000D01*
X87169352Y-99525302D01*
X86858283Y-99990849D01*
X86749050Y-100540000D01*
X86858283Y-101089151D01*
X87169352Y-101554698D01*
X87551438Y-101810000D01*
X87169352Y-102065302D01*
X86858283Y-102530849D01*
X86749050Y-103080000D01*
X86858283Y-103629151D01*
X87169352Y-104094698D01*
X87634899Y-104405767D01*
X88129803Y-104504210D01*
X87764025Y-104585552D01*
X87402868Y-104838789D01*
X87166112Y-105210958D01*
X87107970Y-105418155D01*
X87172658Y-105594600D01*
X88594600Y-105594600D01*
X88594600Y-105574600D01*
X88645400Y-105574600D01*
X88645400Y-105594600D01*
X90067342Y-105594600D01*
X90132030Y-105418155D01*
X90073888Y-105210958D01*
X89991577Y-105081569D01*
X93617490Y-105081569D01*
X94500000Y-105964079D01*
X95382510Y-105081569D01*
X95276501Y-104888025D01*
X94791859Y-104675515D01*
X94262784Y-104664646D01*
X93769823Y-104857072D01*
X93723499Y-104888025D01*
X93617490Y-105081569D01*
X89991577Y-105081569D01*
X89837132Y-104838789D01*
X89475975Y-104585552D01*
X89110197Y-104504210D01*
X89605101Y-104405767D01*
X90070648Y-104094698D01*
X90381717Y-103629151D01*
X90490950Y-103080000D01*
X90381717Y-102530849D01*
X90070648Y-102065302D01*
X89688562Y-101810000D01*
X90070648Y-101554698D01*
X90224932Y-101323795D01*
X92864716Y-101323795D01*
X93113106Y-101924943D01*
X93572637Y-102385278D01*
X94173352Y-102634716D01*
X94823795Y-102635284D01*
X95424943Y-102386894D01*
X95885278Y-101927363D01*
X96134716Y-101326648D01*
X96135284Y-100676205D01*
X95886894Y-100075057D01*
X95427363Y-99614722D01*
X94826648Y-99365284D01*
X94176205Y-99364716D01*
X93575057Y-99613106D01*
X93114722Y-100072637D01*
X92865284Y-100673352D01*
X92864716Y-101323795D01*
X90224932Y-101323795D01*
X90381717Y-101089151D01*
X90490950Y-100540000D01*
X90381717Y-99990849D01*
X90070648Y-99525302D01*
X89688562Y-99270000D01*
X90070648Y-99014698D01*
X90381717Y-98549151D01*
X90490950Y-98000000D01*
X90381717Y-97450849D01*
X90070648Y-96985302D01*
X89605101Y-96674233D01*
X89055950Y-96565000D01*
X88184050Y-96565000D01*
X87634899Y-96674233D01*
X87169352Y-96985302D01*
X86858283Y-97450849D01*
X86810000Y-97693584D01*
X86810000Y-96987441D01*
X86934838Y-96686799D01*
X86935162Y-96314833D01*
X86793117Y-95971057D01*
X86742150Y-95920000D01*
X99445836Y-95920000D01*
X99552176Y-96454609D01*
X99855008Y-96907828D01*
X100277307Y-97190000D01*
X99855008Y-97472172D01*
X99552176Y-97925391D01*
X99445836Y-98460000D01*
X99552176Y-98994609D01*
X99855008Y-99447828D01*
X100277307Y-99730000D01*
X99855008Y-100012172D01*
X99552176Y-100465391D01*
X99445836Y-101000000D01*
X99552176Y-101534609D01*
X99855008Y-101987828D01*
X100277307Y-102270000D01*
X99855008Y-102552172D01*
X99552176Y-103005391D01*
X99445836Y-103540000D01*
X99552176Y-104074609D01*
X99855008Y-104527828D01*
X100277307Y-104810000D01*
X99855008Y-105092172D01*
X99552176Y-105545391D01*
X99445836Y-106080000D01*
X99552176Y-106614609D01*
X99855008Y-107067828D01*
X100308227Y-107370660D01*
X100842836Y-107477000D01*
X101917164Y-107477000D01*
X102451773Y-107370660D01*
X102904992Y-107067828D01*
X103207824Y-106614609D01*
X103314164Y-106080000D01*
X103207824Y-105545391D01*
X102904992Y-105092172D01*
X102482693Y-104810000D01*
X102904992Y-104527828D01*
X103207824Y-104074609D01*
X103314164Y-103540000D01*
X103207824Y-103005391D01*
X102904992Y-102552172D01*
X102482693Y-102270000D01*
X102904992Y-101987828D01*
X103023813Y-101810000D01*
X114976187Y-101810000D01*
X115095008Y-101987828D01*
X115517307Y-102270000D01*
X115095008Y-102552172D01*
X114792176Y-103005391D01*
X114685836Y-103540000D01*
X114792176Y-104074609D01*
X115095008Y-104527828D01*
X115517307Y-104810000D01*
X115095008Y-105092172D01*
X114792176Y-105545391D01*
X114685836Y-106080000D01*
X114792176Y-106614609D01*
X115095008Y-107067828D01*
X115548227Y-107370660D01*
X116082836Y-107477000D01*
X117157164Y-107477000D01*
X117691773Y-107370660D01*
X118144992Y-107067828D01*
X118447824Y-106614609D01*
X118554164Y-106080000D01*
X118447824Y-105545391D01*
X118144992Y-105092172D01*
X117722693Y-104810000D01*
X118144992Y-104527828D01*
X118447824Y-104074609D01*
X118554164Y-103540000D01*
X118447824Y-103005391D01*
X118144992Y-102552172D01*
X117722693Y-102270000D01*
X118144992Y-101987828D01*
X118447824Y-101534609D01*
X118554164Y-101000000D01*
X118447824Y-100465391D01*
X118144992Y-100012172D01*
X117722693Y-99730000D01*
X118144992Y-99447828D01*
X118447824Y-98994609D01*
X118554164Y-98460000D01*
X118447824Y-97925391D01*
X118144992Y-97472172D01*
X117722693Y-97190000D01*
X118144992Y-96907828D01*
X118447824Y-96454609D01*
X118554164Y-95920000D01*
X118447824Y-95385391D01*
X118144992Y-94932172D01*
X117691773Y-94629340D01*
X117157164Y-94523000D01*
X116082836Y-94523000D01*
X115548227Y-94629340D01*
X115095008Y-94932172D01*
X114792176Y-95385391D01*
X114685836Y-95920000D01*
X114792176Y-96454609D01*
X115095008Y-96907828D01*
X115517307Y-97190000D01*
X115095008Y-97472172D01*
X114792176Y-97925391D01*
X114685836Y-98460000D01*
X114792176Y-98994609D01*
X115095008Y-99447828D01*
X115517307Y-99730000D01*
X115095008Y-100012172D01*
X114976187Y-100190000D01*
X103023813Y-100190000D01*
X102904992Y-100012172D01*
X102482693Y-99730000D01*
X102904992Y-99447828D01*
X103207824Y-98994609D01*
X103314164Y-98460000D01*
X103207824Y-97925391D01*
X102904992Y-97472172D01*
X102482693Y-97190000D01*
X102904992Y-96907828D01*
X103207824Y-96454609D01*
X103314164Y-95920000D01*
X103207824Y-95385391D01*
X102904992Y-94932172D01*
X102451773Y-94629340D01*
X101917164Y-94523000D01*
X100842836Y-94523000D01*
X100308227Y-94629340D01*
X99855008Y-94932172D01*
X99552176Y-95385391D01*
X99445836Y-95920000D01*
X86742150Y-95920000D01*
X86530327Y-95707808D01*
X86186799Y-95565162D01*
X85814833Y-95564838D01*
X85471057Y-95706883D01*
X85207808Y-95969673D01*
X85065162Y-96313201D01*
X85064838Y-96685167D01*
X82571313Y-96685167D01*
X82451890Y-96603569D01*
X82200000Y-96552560D01*
X79800000Y-96552560D01*
X79564683Y-96596838D01*
X79434844Y-96680387D01*
X79435162Y-96314833D01*
X79293117Y-95971057D01*
X79030327Y-95707808D01*
X78686799Y-95565162D01*
X78314833Y-95564838D01*
X77971057Y-95706883D01*
X77707808Y-95969673D01*
X77565162Y-96313201D01*
X77564838Y-96685167D01*
X75881586Y-96685167D01*
X75793117Y-96471057D01*
X75530327Y-96207808D01*
X75186799Y-96065162D01*
X74814833Y-96064838D01*
X74471057Y-96206883D01*
X74207808Y-96469673D01*
X74082116Y-96772371D01*
X72664488Y-98190000D01*
X71987441Y-98190000D01*
X71686799Y-98065162D01*
X71314833Y-98064838D01*
X70971057Y-98206883D01*
X70710000Y-98467485D01*
X70710000Y-91229567D01*
X75067600Y-91229567D01*
X75067600Y-92010433D01*
X75175874Y-92554762D01*
X75484211Y-93016222D01*
X75945671Y-93324559D01*
X76490000Y-93432833D01*
X77034329Y-93324559D01*
X77495789Y-93016222D01*
X77760000Y-92620801D01*
X78024211Y-93016222D01*
X78485671Y-93324559D01*
X79030000Y-93432833D01*
X79574329Y-93324559D01*
X80035789Y-93016222D01*
X80300000Y-92620801D01*
X80564211Y-93016222D01*
X81025671Y-93324559D01*
X81570000Y-93432833D01*
X82114329Y-93324559D01*
X82575789Y-93016222D01*
X82884126Y-92554762D01*
X82992400Y-92010433D01*
X82992400Y-92001000D01*
X83087192Y-92426754D01*
X83337698Y-92783824D01*
X83705780Y-93017849D01*
X83910127Y-93075182D01*
X84084600Y-93010338D01*
X84084600Y-91645400D01*
X82992400Y-91645400D01*
X82992400Y-91594600D01*
X84084600Y-91594600D01*
X84084600Y-90229662D01*
X84135400Y-90229662D01*
X84135400Y-91594600D01*
X85227600Y-91594600D01*
X85227600Y-91645400D01*
X84135400Y-91645400D01*
X84135400Y-93010338D01*
X84309873Y-93075182D01*
X84514220Y-93017849D01*
X84882302Y-92783824D01*
X85132808Y-92426754D01*
X85227600Y-92001000D01*
X85227600Y-92010433D01*
X85335874Y-92554762D01*
X85644211Y-93016222D01*
X86105671Y-93324559D01*
X86650000Y-93432833D01*
X87194329Y-93324559D01*
X87655789Y-93016222D01*
X87920000Y-92620801D01*
X88184211Y-93016222D01*
X88645671Y-93324559D01*
X89190000Y-93432833D01*
X89734329Y-93324559D01*
X90195789Y-93016222D01*
X90460000Y-92620801D01*
X90724211Y-93016222D01*
X91185671Y-93324559D01*
X91730000Y-93432833D01*
X92274329Y-93324559D01*
X92735789Y-93016222D01*
X93000000Y-92620801D01*
X93264211Y-93016222D01*
X93725671Y-93324559D01*
X94270000Y-93432833D01*
X94814329Y-93324559D01*
X95275789Y-93016222D01*
X95540000Y-92620801D01*
X95804211Y-93016222D01*
X96265671Y-93324559D01*
X96810000Y-93432833D01*
X97354329Y-93324559D01*
X97815789Y-93016222D01*
X98080000Y-92620801D01*
X98344211Y-93016222D01*
X98805671Y-93324559D01*
X99350000Y-93432833D01*
X99894329Y-93324559D01*
X100355789Y-93016222D01*
X100620000Y-92620801D01*
X100884211Y-93016222D01*
X101345671Y-93324559D01*
X101890000Y-93432833D01*
X102434329Y-93324559D01*
X102895789Y-93016222D01*
X103160000Y-92620801D01*
X103424211Y-93016222D01*
X103885671Y-93324559D01*
X104430000Y-93432833D01*
X104974329Y-93324559D01*
X105435789Y-93016222D01*
X105700000Y-92620801D01*
X105964211Y-93016222D01*
X106425671Y-93324559D01*
X106970000Y-93432833D01*
X107514329Y-93324559D01*
X107975789Y-93016222D01*
X108240000Y-92620801D01*
X108504211Y-93016222D01*
X108965671Y-93324559D01*
X109510000Y-93432833D01*
X110054329Y-93324559D01*
X110515789Y-93016222D01*
X110780000Y-92620801D01*
X111044211Y-93016222D01*
X111505671Y-93324559D01*
X112050000Y-93432833D01*
X112594329Y-93324559D01*
X113055789Y-93016222D01*
X113364126Y-92554762D01*
X113472400Y-92010433D01*
X113472400Y-91229567D01*
X113364126Y-90685238D01*
X113055789Y-90223778D01*
X112594329Y-89915441D01*
X112050000Y-89807167D01*
X111505671Y-89915441D01*
X111044211Y-90223778D01*
X110780000Y-90619199D01*
X110515789Y-90223778D01*
X110054329Y-89915441D01*
X109510000Y-89807167D01*
X108965671Y-89915441D01*
X108504211Y-90223778D01*
X108240000Y-90619199D01*
X107975789Y-90223778D01*
X107514329Y-89915441D01*
X106970000Y-89807167D01*
X106425671Y-89915441D01*
X105964211Y-90223778D01*
X105700000Y-90619199D01*
X105435789Y-90223778D01*
X104974329Y-89915441D01*
X104430000Y-89807167D01*
X103885671Y-89915441D01*
X103424211Y-90223778D01*
X103160000Y-90619199D01*
X102895789Y-90223778D01*
X102434329Y-89915441D01*
X101890000Y-89807167D01*
X101345671Y-89915441D01*
X100884211Y-90223778D01*
X100620000Y-90619199D01*
X100355789Y-90223778D01*
X99894329Y-89915441D01*
X99350000Y-89807167D01*
X98805671Y-89915441D01*
X98344211Y-90223778D01*
X98080000Y-90619199D01*
X97815789Y-90223778D01*
X97354329Y-89915441D01*
X96810000Y-89807167D01*
X96265671Y-89915441D01*
X95804211Y-90223778D01*
X95540000Y-90619199D01*
X95275789Y-90223778D01*
X94814329Y-89915441D01*
X94270000Y-89807167D01*
X93725671Y-89915441D01*
X93264211Y-90223778D01*
X93000000Y-90619199D01*
X92735789Y-90223778D01*
X92274329Y-89915441D01*
X91730000Y-89807167D01*
X91185671Y-89915441D01*
X90724211Y-90223778D01*
X90460000Y-90619199D01*
X90195789Y-90223778D01*
X89734329Y-89915441D01*
X89190000Y-89807167D01*
X88645671Y-89915441D01*
X88184211Y-90223778D01*
X87920000Y-90619199D01*
X87655789Y-90223778D01*
X87194329Y-89915441D01*
X86650000Y-89807167D01*
X86105671Y-89915441D01*
X85644211Y-90223778D01*
X85335874Y-90685238D01*
X85227600Y-91229567D01*
X85227600Y-91239000D01*
X85132808Y-90813246D01*
X84882302Y-90456176D01*
X84514220Y-90222151D01*
X84309873Y-90164818D01*
X84135400Y-90229662D01*
X84084600Y-90229662D01*
X83910127Y-90164818D01*
X83705780Y-90222151D01*
X83337698Y-90456176D01*
X83087192Y-90813246D01*
X82992400Y-91239000D01*
X82992400Y-91229567D01*
X82884126Y-90685238D01*
X82575789Y-90223778D01*
X82114329Y-89915441D01*
X81570000Y-89807167D01*
X81025671Y-89915441D01*
X80564211Y-90223778D01*
X80300000Y-90619199D01*
X80035789Y-90223778D01*
X79574329Y-89915441D01*
X79030000Y-89807167D01*
X78485671Y-89915441D01*
X78024211Y-90223778D01*
X77760000Y-90619199D01*
X77495789Y-90223778D01*
X77034329Y-89915441D01*
X76490000Y-89807167D01*
X75945671Y-89915441D01*
X75484211Y-90223778D01*
X75175874Y-90685238D01*
X75067600Y-91229567D01*
X70710000Y-91229567D01*
X70710000Y-82685167D01*
X71564838Y-82685167D01*
X71706883Y-83028943D01*
X71969673Y-83292192D01*
X72313201Y-83434838D01*
X72685167Y-83435162D01*
X72988083Y-83310000D01*
X74512559Y-83310000D01*
X74813201Y-83434838D01*
X75185167Y-83435162D01*
X75528943Y-83293117D01*
X75792192Y-83030327D01*
X75934838Y-82686799D01*
X75935162Y-82314833D01*
X75793117Y-81971057D01*
X75530327Y-81707808D01*
X75186799Y-81565162D01*
X74814833Y-81564838D01*
X74511917Y-81690000D01*
X72987441Y-81690000D01*
X72686799Y-81565162D01*
X72314833Y-81564838D01*
X71971057Y-81706883D01*
X71707808Y-81969673D01*
X71565162Y-82313201D01*
X71564838Y-82685167D01*
X70710000Y-82685167D01*
X70710000Y-75989567D01*
X75067600Y-75989567D01*
X75067600Y-76770433D01*
X75175874Y-77314762D01*
X75484211Y-77776222D01*
X75945671Y-78084559D01*
X76490000Y-78192833D01*
X77034329Y-78084559D01*
X77495789Y-77776222D01*
X77804126Y-77314762D01*
X77912400Y-76770433D01*
X77912400Y-76761000D01*
X78007192Y-77186754D01*
X78257698Y-77543824D01*
X78625780Y-77777849D01*
X78830127Y-77835182D01*
X79004600Y-77770338D01*
X79004600Y-76405400D01*
X77912400Y-76405400D01*
X77912400Y-76354600D01*
X79004600Y-76354600D01*
X79004600Y-74989662D01*
X79055400Y-74989662D01*
X79055400Y-76354600D01*
X80147600Y-76354600D01*
X80147600Y-76405400D01*
X79055400Y-76405400D01*
X79055400Y-77770338D01*
X79229873Y-77835182D01*
X79434220Y-77777849D01*
X79802302Y-77543824D01*
X80052808Y-77186754D01*
X80147600Y-76761000D01*
X80147600Y-76770433D01*
X80255874Y-77314762D01*
X80564211Y-77776222D01*
X81025671Y-78084559D01*
X81570000Y-78192833D01*
X82114329Y-78084559D01*
X82575789Y-77776222D01*
X82840000Y-77380801D01*
X83104211Y-77776222D01*
X83565671Y-78084559D01*
X84110000Y-78192833D01*
X84654329Y-78084559D01*
X85115789Y-77776222D01*
X85380000Y-77380801D01*
X85644211Y-77776222D01*
X86105671Y-78084559D01*
X86650000Y-78192833D01*
X87194329Y-78084559D01*
X87655789Y-77776222D01*
X87920000Y-77380801D01*
X88184211Y-77776222D01*
X88645671Y-78084559D01*
X89190000Y-78192833D01*
X89734329Y-78084559D01*
X90195789Y-77776222D01*
X90460000Y-77380801D01*
X90724211Y-77776222D01*
X91185671Y-78084559D01*
X91730000Y-78192833D01*
X92274329Y-78084559D01*
X92735789Y-77776222D01*
X93000000Y-77380801D01*
X93264211Y-77776222D01*
X93725671Y-78084559D01*
X94270000Y-78192833D01*
X94814329Y-78084559D01*
X95275789Y-77776222D01*
X95540000Y-77380801D01*
X95804211Y-77776222D01*
X96265671Y-78084559D01*
X96810000Y-78192833D01*
X97354329Y-78084559D01*
X97815789Y-77776222D01*
X98080000Y-77380801D01*
X98344211Y-77776222D01*
X98805671Y-78084559D01*
X99350000Y-78192833D01*
X99894329Y-78084559D01*
X100355789Y-77776222D01*
X100620000Y-77380801D01*
X100884211Y-77776222D01*
X101345671Y-78084559D01*
X101890000Y-78192833D01*
X102434329Y-78084559D01*
X102895789Y-77776222D01*
X103160000Y-77380801D01*
X103424211Y-77776222D01*
X103885671Y-78084559D01*
X104430000Y-78192833D01*
X104974329Y-78084559D01*
X105435789Y-77776222D01*
X105700000Y-77380801D01*
X105964211Y-77776222D01*
X106425671Y-78084559D01*
X106970000Y-78192833D01*
X107514329Y-78084559D01*
X107975789Y-77776222D01*
X108240000Y-77380801D01*
X108504211Y-77776222D01*
X108965671Y-78084559D01*
X109510000Y-78192833D01*
X110054329Y-78084559D01*
X110515789Y-77776222D01*
X110630503Y-77604540D01*
X110659438Y-77758317D01*
X110798510Y-77974441D01*
X111010710Y-78119431D01*
X111262600Y-78170440D01*
X112837400Y-78170440D01*
X113072717Y-78126162D01*
X113288841Y-77987090D01*
X113433831Y-77774890D01*
X113484840Y-77523000D01*
X113484840Y-75237000D01*
X113440562Y-75001683D01*
X113301490Y-74785559D01*
X113089290Y-74640569D01*
X112837400Y-74589560D01*
X111262600Y-74589560D01*
X111027283Y-74633838D01*
X110811159Y-74772910D01*
X110666169Y-74985110D01*
X110631400Y-75156803D01*
X110515789Y-74983778D01*
X110054329Y-74675441D01*
X109510000Y-74567167D01*
X108965671Y-74675441D01*
X108504211Y-74983778D01*
X108240000Y-75379199D01*
X107975789Y-74983778D01*
X107514329Y-74675441D01*
X106970000Y-74567167D01*
X106425671Y-74675441D01*
X105964211Y-74983778D01*
X105700000Y-75379199D01*
X105435789Y-74983778D01*
X104974329Y-74675441D01*
X104430000Y-74567167D01*
X103885671Y-74675441D01*
X103424211Y-74983778D01*
X103160000Y-75379199D01*
X102895789Y-74983778D01*
X102434329Y-74675441D01*
X101890000Y-74567167D01*
X101345671Y-74675441D01*
X100884211Y-74983778D01*
X100620000Y-75379199D01*
X100355789Y-74983778D01*
X99894329Y-74675441D01*
X99350000Y-74567167D01*
X98805671Y-74675441D01*
X98344211Y-74983778D01*
X98080000Y-75379199D01*
X97815789Y-74983778D01*
X97354329Y-74675441D01*
X96810000Y-74567167D01*
X96265671Y-74675441D01*
X95804211Y-74983778D01*
X95540000Y-75379199D01*
X95275789Y-74983778D01*
X94814329Y-74675441D01*
X94270000Y-74567167D01*
X93725671Y-74675441D01*
X93264211Y-74983778D01*
X93000000Y-75379199D01*
X92735789Y-74983778D01*
X92274329Y-74675441D01*
X91730000Y-74567167D01*
X91185671Y-74675441D01*
X90724211Y-74983778D01*
X90460000Y-75379199D01*
X90195789Y-74983778D01*
X89734329Y-74675441D01*
X89190000Y-74567167D01*
X88645671Y-74675441D01*
X88184211Y-74983778D01*
X87920000Y-75379199D01*
X87655789Y-74983778D01*
X87194329Y-74675441D01*
X86650000Y-74567167D01*
X86105671Y-74675441D01*
X85644211Y-74983778D01*
X85380000Y-75379199D01*
X85115789Y-74983778D01*
X84654329Y-74675441D01*
X84110000Y-74567167D01*
X83565671Y-74675441D01*
X83104211Y-74983778D01*
X82840000Y-75379199D01*
X82575789Y-74983778D01*
X82114329Y-74675441D01*
X81570000Y-74567167D01*
X81025671Y-74675441D01*
X80564211Y-74983778D01*
X80255874Y-75445238D01*
X80147600Y-75989567D01*
X80147600Y-75999000D01*
X80052808Y-75573246D01*
X79802302Y-75216176D01*
X79434220Y-74982151D01*
X79229873Y-74924818D01*
X79055400Y-74989662D01*
X79004600Y-74989662D01*
X78830127Y-74924818D01*
X78625780Y-74982151D01*
X78257698Y-75216176D01*
X78007192Y-75573246D01*
X77912400Y-75999000D01*
X77912400Y-75989567D01*
X77804126Y-75445238D01*
X77495789Y-74983778D01*
X77034329Y-74675441D01*
X76490000Y-74567167D01*
X75945671Y-74675441D01*
X75484211Y-74983778D01*
X75175874Y-75445238D01*
X75067600Y-75989567D01*
X70710000Y-75989567D01*
X70710000Y-73442619D01*
X70764613Y-73442619D01*
X71104155Y-74264372D01*
X71732321Y-74893636D01*
X72553481Y-75234611D01*
X73442619Y-75235387D01*
X74264372Y-74895845D01*
X74893636Y-74267679D01*
X75234611Y-73446519D01*
X75234614Y-73442619D01*
X114764613Y-73442619D01*
X115104155Y-74264372D01*
X115732321Y-74893636D01*
X116553481Y-75234611D01*
X117442619Y-75235387D01*
X118264372Y-74895845D01*
X118893636Y-74267679D01*
X119234611Y-73446519D01*
X119235387Y-72557381D01*
X118895845Y-71735628D01*
X118267679Y-71106364D01*
X117446519Y-70765389D01*
X116557381Y-70764613D01*
X115735628Y-71104155D01*
X115106364Y-71732321D01*
X114765389Y-72553481D01*
X114764613Y-73442619D01*
X75234614Y-73442619D01*
X75235387Y-72557381D01*
X75049686Y-72107950D01*
X78819800Y-72107950D01*
X78819800Y-72915681D01*
X78870070Y-73037043D01*
X78962957Y-73129930D01*
X79084319Y-73180200D01*
X79892050Y-73180200D01*
X79974600Y-73097650D01*
X79974600Y-72025400D01*
X80025400Y-72025400D01*
X80025400Y-73097650D01*
X80107950Y-73180200D01*
X80915681Y-73180200D01*
X81037043Y-73129930D01*
X81129930Y-73037043D01*
X81180200Y-72915681D01*
X81180200Y-72209669D01*
X81378571Y-72209669D01*
X81547216Y-72638169D01*
X81867004Y-72969513D01*
X82289249Y-73153258D01*
X82330331Y-73161427D01*
X82514600Y-73097356D01*
X82514600Y-72025400D01*
X82565400Y-72025400D01*
X82565400Y-73097356D01*
X82749669Y-73161427D01*
X82790751Y-73153258D01*
X83212996Y-72969513D01*
X83532784Y-72638169D01*
X83701429Y-72209669D01*
X106298571Y-72209669D01*
X106467216Y-72638169D01*
X106787004Y-72969513D01*
X107209249Y-73153258D01*
X107250331Y-73161427D01*
X107434600Y-73097356D01*
X107434600Y-72025400D01*
X107485400Y-72025400D01*
X107485400Y-73097356D01*
X107669669Y-73161427D01*
X107710751Y-73153258D01*
X108132996Y-72969513D01*
X108452784Y-72638169D01*
X108621429Y-72209669D01*
X108586073Y-72107950D01*
X108819800Y-72107950D01*
X108819800Y-72915681D01*
X108870070Y-73037043D01*
X108962957Y-73129930D01*
X109084319Y-73180200D01*
X109892050Y-73180200D01*
X109974600Y-73097650D01*
X109974600Y-72025400D01*
X110025400Y-72025400D01*
X110025400Y-73097650D01*
X110107950Y-73180200D01*
X110915681Y-73180200D01*
X111037043Y-73129930D01*
X111129930Y-73037043D01*
X111180200Y-72915681D01*
X111180200Y-72107950D01*
X111097650Y-72025400D01*
X110025400Y-72025400D01*
X109974600Y-72025400D01*
X108902350Y-72025400D01*
X108819800Y-72107950D01*
X108586073Y-72107950D01*
X108557379Y-72025400D01*
X107485400Y-72025400D01*
X107434600Y-72025400D01*
X106362621Y-72025400D01*
X106298571Y-72209669D01*
X83701429Y-72209669D01*
X83637379Y-72025400D01*
X82565400Y-72025400D01*
X82514600Y-72025400D01*
X81442621Y-72025400D01*
X81378571Y-72209669D01*
X81180200Y-72209669D01*
X81180200Y-72107950D01*
X81097650Y-72025400D01*
X80025400Y-72025400D01*
X79974600Y-72025400D01*
X78902350Y-72025400D01*
X78819800Y-72107950D01*
X75049686Y-72107950D01*
X74895845Y-71735628D01*
X74267679Y-71106364D01*
X74214589Y-71084319D01*
X78819800Y-71084319D01*
X78819800Y-71892050D01*
X78902350Y-71974600D01*
X79974600Y-71974600D01*
X79974600Y-70902350D01*
X80025400Y-70902350D01*
X80025400Y-71974600D01*
X81097650Y-71974600D01*
X81180200Y-71892050D01*
X81180200Y-71790331D01*
X81378571Y-71790331D01*
X81442621Y-71974600D01*
X82514600Y-71974600D01*
X82514600Y-70902644D01*
X82565400Y-70902644D01*
X82565400Y-71974600D01*
X83637379Y-71974600D01*
X83701429Y-71790331D01*
X106298571Y-71790331D01*
X106362621Y-71974600D01*
X107434600Y-71974600D01*
X107434600Y-70902644D01*
X107485400Y-70902644D01*
X107485400Y-71974600D01*
X108557379Y-71974600D01*
X108621429Y-71790331D01*
X108452784Y-71361831D01*
X108184951Y-71084319D01*
X108819800Y-71084319D01*
X108819800Y-71892050D01*
X108902350Y-71974600D01*
X109974600Y-71974600D01*
X109974600Y-70902350D01*
X110025400Y-70902350D01*
X110025400Y-71974600D01*
X111097650Y-71974600D01*
X111180200Y-71892050D01*
X111180200Y-71084319D01*
X111129930Y-70962957D01*
X111037043Y-70870070D01*
X110915681Y-70819800D01*
X110107950Y-70819800D01*
X110025400Y-70902350D01*
X109974600Y-70902350D01*
X109892050Y-70819800D01*
X109084319Y-70819800D01*
X108962957Y-70870070D01*
X108870070Y-70962957D01*
X108819800Y-71084319D01*
X108184951Y-71084319D01*
X108132996Y-71030487D01*
X107710751Y-70846742D01*
X107669669Y-70838573D01*
X107485400Y-70902644D01*
X107434600Y-70902644D01*
X107250331Y-70838573D01*
X107209249Y-70846742D01*
X106787004Y-71030487D01*
X106467216Y-71361831D01*
X106298571Y-71790331D01*
X83701429Y-71790331D01*
X83532784Y-71361831D01*
X83212996Y-71030487D01*
X82790751Y-70846742D01*
X82749669Y-70838573D01*
X82565400Y-70902644D01*
X82514600Y-70902644D01*
X82330331Y-70838573D01*
X82289249Y-70846742D01*
X81867004Y-71030487D01*
X81547216Y-71361831D01*
X81378571Y-71790331D01*
X81180200Y-71790331D01*
X81180200Y-71084319D01*
X81129930Y-70962957D01*
X81037043Y-70870070D01*
X80915681Y-70819800D01*
X80107950Y-70819800D01*
X80025400Y-70902350D01*
X79974600Y-70902350D01*
X79892050Y-70819800D01*
X79084319Y-70819800D01*
X78962957Y-70870070D01*
X78870070Y-70962957D01*
X78819800Y-71084319D01*
X74214589Y-71084319D01*
X73446519Y-70765389D01*
X72557381Y-70764613D01*
X71735628Y-71104155D01*
X71106364Y-71732321D01*
X70765389Y-72553481D01*
X70764613Y-73442619D01*
X70710000Y-73442619D01*
X70710000Y-70710000D01*
X119373000Y-70710000D01*
X119373000Y-129290000D01*
X119373000Y-129290000D01*
G37*
X119373000Y-129290000D02*
X112943530Y-129290000D01*
X113062549Y-129098470D01*
X112000000Y-128035921D01*
X110937451Y-129098470D01*
X111056470Y-129290000D01*
X109375415Y-129290000D01*
X109596822Y-129068979D01*
X109884352Y-128376531D01*
X109884438Y-128277045D01*
X110413171Y-128277045D01*
X110639982Y-128863209D01*
X110682041Y-128926156D01*
X110901530Y-129062549D01*
X111964079Y-128000000D01*
X112035921Y-128000000D01*
X113098470Y-129062549D01*
X113317959Y-128926156D01*
X113572060Y-128351296D01*
X113586829Y-127722955D01*
X113478356Y-127442619D01*
X114764613Y-127442619D01*
X115104155Y-128264372D01*
X115732321Y-128893636D01*
X116553481Y-129234611D01*
X117442619Y-129235387D01*
X118264372Y-128895845D01*
X118893636Y-128267679D01*
X119234611Y-127446519D01*
X119235387Y-126557381D01*
X118895845Y-125735628D01*
X118267679Y-125106364D01*
X117446519Y-124765389D01*
X116557381Y-124764613D01*
X115735628Y-125104155D01*
X115106364Y-125732321D01*
X114765389Y-126553481D01*
X114764613Y-127442619D01*
X113478356Y-127442619D01*
X113360018Y-127136791D01*
X113317959Y-127073844D01*
X113098470Y-126937451D01*
X112035921Y-128000000D01*
X111964079Y-128000000D01*
X110901530Y-126937451D01*
X110682041Y-127073844D01*
X110427940Y-127648704D01*
X110413171Y-128277045D01*
X109884438Y-128277045D01*
X109885006Y-127626759D01*
X109598686Y-126933809D01*
X109566464Y-126901530D01*
X110937451Y-126901530D01*
X112000000Y-127964079D01*
X113062549Y-126901530D01*
X112926156Y-126682041D01*
X112351296Y-126427940D01*
X111722955Y-126413171D01*
X111136791Y-126639982D01*
X111073844Y-126682041D01*
X110937451Y-126901530D01*
X109566464Y-126901530D01*
X109068979Y-126403178D01*
X108376531Y-126115648D01*
X107626759Y-126114994D01*
X106933809Y-126401314D01*
X106403178Y-126931021D01*
X106115648Y-127623469D01*
X106114994Y-128373241D01*
X106401314Y-129066191D01*
X106624733Y-129290000D01*
X104614489Y-129290000D01*
X104930054Y-129079147D01*
X105251961Y-128597378D01*
X105365000Y-128029093D01*
X105365000Y-127970907D01*
X105251961Y-127402622D01*
X104930054Y-126920853D01*
X104448285Y-126598946D01*
X103880000Y-126485907D01*
X103311715Y-126598946D01*
X102829946Y-126920853D01*
X102610000Y-127250026D01*
X102390054Y-126920853D01*
X101908285Y-126598946D01*
X101340000Y-126485907D01*
X100771715Y-126598946D01*
X100289946Y-126920853D01*
X100070000Y-127250026D01*
X99850054Y-126920853D01*
X99368285Y-126598946D01*
X98800000Y-126485907D01*
X98231715Y-126598946D01*
X97749946Y-126920853D01*
X97530000Y-127250026D01*
X97310054Y-126920853D01*
X96828285Y-126598946D01*
X96260000Y-126485907D01*
X95691715Y-126598946D01*
X95209946Y-126920853D01*
X94990000Y-127250026D01*
X94770054Y-126920853D01*
X94288285Y-126598946D01*
X93720000Y-126485907D01*
X93151715Y-126598946D01*
X92669946Y-126920853D01*
X92450000Y-127250026D01*
X92230054Y-126920853D01*
X91748285Y-126598946D01*
X91180000Y-126485907D01*
X90611715Y-126598946D01*
X90129946Y-126920853D01*
X89910000Y-127250026D01*
X89690054Y-126920853D01*
X89208285Y-126598946D01*
X88640000Y-126485907D01*
X88071715Y-126598946D01*
X87589946Y-126920853D01*
X87562150Y-126962452D01*
X87553162Y-126914683D01*
X87414090Y-126698559D01*
X87201890Y-126553569D01*
X86950000Y-126502560D01*
X85250000Y-126502560D01*
X85014683Y-126546838D01*
X84798559Y-126685910D01*
X84653569Y-126898110D01*
X84602560Y-127150000D01*
X84602560Y-128850000D01*
X84646838Y-129085317D01*
X84778548Y-129290000D01*
X70710000Y-129290000D01*
X70710000Y-127442619D01*
X70764613Y-127442619D01*
X71104155Y-128264372D01*
X71732321Y-128893636D01*
X72553481Y-129234611D01*
X73442619Y-129235387D01*
X74264372Y-128895845D01*
X74893636Y-128267679D01*
X75234611Y-127446519D01*
X75235387Y-126557381D01*
X74895845Y-125735628D01*
X74660629Y-125500000D01*
X76730000Y-125500000D01*
X76791658Y-125809974D01*
X76852560Y-125901120D01*
X76852560Y-127300000D01*
X76896838Y-127535317D01*
X77035910Y-127751441D01*
X77248110Y-127896431D01*
X77500000Y-127947440D01*
X79500000Y-127947440D01*
X79735317Y-127903162D01*
X79951441Y-127764090D01*
X80056951Y-127609671D01*
X80414313Y-127848452D01*
X81040000Y-127972909D01*
X81665687Y-127848452D01*
X82196120Y-127494029D01*
X82550543Y-126963596D01*
X82675000Y-126337909D01*
X82675000Y-125662091D01*
X82550543Y-125036404D01*
X82196120Y-124505971D01*
X81850000Y-124274702D01*
X81850000Y-122795512D01*
X83519503Y-121126009D01*
X102765000Y-121126009D01*
X102765000Y-121193991D01*
X102897069Y-121857947D01*
X103273170Y-122420821D01*
X103836044Y-122796922D01*
X104500000Y-122928991D01*
X105163956Y-122796922D01*
X105726830Y-122420821D01*
X106102931Y-121857947D01*
X106235000Y-121193991D01*
X106235000Y-121126009D01*
X106102931Y-120462053D01*
X105726830Y-119899179D01*
X105163956Y-119523078D01*
X104500000Y-119391009D01*
X103836044Y-119523078D01*
X103273170Y-119899179D01*
X102897069Y-120462053D01*
X102765000Y-121126009D01*
X83519503Y-121126009D01*
X86949613Y-117695899D01*
X106687512Y-117695899D01*
X106743219Y-117894501D01*
X106971738Y-118254342D01*
X107320567Y-118499341D01*
X107736600Y-118592200D01*
X107974600Y-118592200D01*
X107974600Y-117525400D01*
X108025400Y-117525400D01*
X108025400Y-118592200D01*
X108263400Y-118592200D01*
X108679433Y-118499341D01*
X109028262Y-118254342D01*
X109256781Y-117894501D01*
X109312488Y-117695899D01*
X109247330Y-117525400D01*
X108025400Y-117525400D01*
X107974600Y-117525400D01*
X106752670Y-117525400D01*
X106687512Y-117695899D01*
X86949613Y-117695899D01*
X87335513Y-117310000D01*
X102500000Y-117310000D01*
X102529656Y-117304101D01*
X106687512Y-117304101D01*
X106752670Y-117474600D01*
X107974600Y-117474600D01*
X107974600Y-116407800D01*
X108025400Y-116407800D01*
X108025400Y-117474600D01*
X109247330Y-117474600D01*
X109275839Y-117400000D01*
X112352560Y-117400000D01*
X112352560Y-121400000D01*
X112396838Y-121635317D01*
X112535910Y-121851441D01*
X112748110Y-121996431D01*
X113000000Y-122047440D01*
X117000000Y-122047440D01*
X117235317Y-122003162D01*
X117451441Y-121864090D01*
X117596431Y-121651890D01*
X117647440Y-121400000D01*
X117647440Y-117400000D01*
X117603162Y-117164683D01*
X117464090Y-116948559D01*
X117251890Y-116803569D01*
X117000000Y-116752560D01*
X113000000Y-116752560D01*
X112764683Y-116796838D01*
X112548559Y-116935910D01*
X112403569Y-117148110D01*
X112352560Y-117400000D01*
X109275839Y-117400000D01*
X109312488Y-117304101D01*
X109256781Y-117105499D01*
X109028262Y-116745658D01*
X108679433Y-116500659D01*
X108263400Y-116407800D01*
X108025400Y-116407800D01*
X107974600Y-116407800D01*
X107736600Y-116407800D01*
X107320567Y-116500659D01*
X106971738Y-116745658D01*
X106743219Y-117105499D01*
X106687512Y-117304101D01*
X102529656Y-117304101D01*
X102809974Y-117248342D01*
X103072756Y-117072756D01*
X106708312Y-113437201D01*
X106742140Y-113487828D01*
X107134507Y-113750000D01*
X106742140Y-114012172D01*
X106439308Y-114465391D01*
X106332968Y-115000000D01*
X106439308Y-115534609D01*
X106742140Y-115987828D01*
X107195359Y-116290660D01*
X107729968Y-116397000D01*
X108270032Y-116397000D01*
X108804641Y-116290660D01*
X109257860Y-115987828D01*
X109560692Y-115534609D01*
X109667032Y-115000000D01*
X109560692Y-114465391D01*
X109257860Y-114012172D01*
X108865493Y-113750000D01*
X109257860Y-113487828D01*
X109560692Y-113034609D01*
X109667032Y-112500000D01*
X109560692Y-111965391D01*
X109257860Y-111512172D01*
X108804641Y-111209340D01*
X108270032Y-111103000D01*
X107729968Y-111103000D01*
X107195359Y-111209340D01*
X106742140Y-111512172D01*
X106623319Y-111690000D01*
X106500000Y-111690000D01*
X106247440Y-111740238D01*
X106247440Y-109900000D01*
X106203162Y-109664683D01*
X106064090Y-109448559D01*
X105851890Y-109303569D01*
X105600000Y-109252560D01*
X103400000Y-109252560D01*
X103164683Y-109296838D01*
X102948559Y-109435910D01*
X102803569Y-109648110D01*
X102752560Y-109900000D01*
X102752560Y-112100000D01*
X102796838Y-112335317D01*
X102935910Y-112551441D01*
X103148110Y-112696431D01*
X103400000Y-112747440D01*
X105107047Y-112747440D01*
X102164488Y-115690000D01*
X87000000Y-115690000D01*
X86827897Y-115724234D01*
X86690027Y-115751657D01*
X86427244Y-115927243D01*
X80467244Y-121887244D01*
X80291658Y-122150026D01*
X80230000Y-122460000D01*
X80230000Y-124274702D01*
X80055808Y-124391093D01*
X79964090Y-124248559D01*
X79751890Y-124103569D01*
X79500000Y-124052560D01*
X77500000Y-124052560D01*
X77264683Y-124096838D01*
X77048559Y-124235910D01*
X76903569Y-124448110D01*
X76852560Y-124700000D01*
X76852560Y-125098880D01*
X76791658Y-125190026D01*
X76730000Y-125500000D01*
X74660629Y-125500000D01*
X74267679Y-125106364D01*
X73446519Y-124765389D01*
X72557381Y-124764613D01*
X71735628Y-125104155D01*
X71106364Y-125732321D01*
X70765389Y-126553481D01*
X70764613Y-127442619D01*
X70710000Y-127442619D01*
X70710000Y-108600000D01*
X112352560Y-108600000D01*
X112352560Y-112600000D01*
X112396838Y-112835317D01*
X112535910Y-113051441D01*
X112748110Y-113196431D01*
X113000000Y-113247440D01*
X117000000Y-113247440D01*
X117235317Y-113203162D01*
X117451441Y-113064090D01*
X117596431Y-112851890D01*
X117647440Y-112600000D01*
X117647440Y-108600000D01*
X117603162Y-108364683D01*
X117464090Y-108148559D01*
X117251890Y-108003569D01*
X117000000Y-107952560D01*
X113000000Y-107952560D01*
X112764683Y-107996838D01*
X112548559Y-108135910D01*
X112403569Y-108348110D01*
X112352560Y-108600000D01*
X70710000Y-108600000D01*
X70710000Y-106918431D01*
X93617490Y-106918431D01*
X93723499Y-107111975D01*
X94208141Y-107324485D01*
X94737216Y-107335354D01*
X95230177Y-107142928D01*
X95276501Y-107111975D01*
X95382510Y-106918431D01*
X94500000Y-106035921D01*
X93617490Y-106918431D01*
X70710000Y-106918431D01*
X70710000Y-105821845D01*
X79487970Y-105821845D01*
X79546112Y-106029042D01*
X79782868Y-106401211D01*
X80144025Y-106654448D01*
X80574600Y-106750200D01*
X80974600Y-106750200D01*
X80974600Y-105645400D01*
X81025400Y-105645400D01*
X81025400Y-106750200D01*
X81425400Y-106750200D01*
X81855975Y-106654448D01*
X82217132Y-106401211D01*
X82453888Y-106029042D01*
X82512030Y-105821845D01*
X87107970Y-105821845D01*
X87166112Y-106029042D01*
X87402868Y-106401211D01*
X87764025Y-106654448D01*
X88194600Y-106750200D01*
X88594600Y-106750200D01*
X88594600Y-105645400D01*
X88645400Y-105645400D01*
X88645400Y-106750200D01*
X89045400Y-106750200D01*
X89475975Y-106654448D01*
X89837132Y-106401211D01*
X89941457Y-106237216D01*
X93164646Y-106237216D01*
X93357072Y-106730177D01*
X93388025Y-106776501D01*
X93581569Y-106882510D01*
X94464079Y-106000000D01*
X94535921Y-106000000D01*
X95418431Y-106882510D01*
X95611975Y-106776501D01*
X95824485Y-106291859D01*
X95835354Y-105762784D01*
X95642928Y-105269823D01*
X95611975Y-105223499D01*
X95418431Y-105117490D01*
X94535921Y-106000000D01*
X94464079Y-106000000D01*
X93581569Y-105117490D01*
X93388025Y-105223499D01*
X93175515Y-105708141D01*
X93164646Y-106237216D01*
X89941457Y-106237216D01*
X90073888Y-106029042D01*
X90132030Y-105821845D01*
X90067342Y-105645400D01*
X88645400Y-105645400D01*
X88594600Y-105645400D01*
X87172658Y-105645400D01*
X87107970Y-105821845D01*
X82512030Y-105821845D01*
X82447342Y-105645400D01*
X81025400Y-105645400D01*
X80974600Y-105645400D01*
X79552658Y-105645400D01*
X79487970Y-105821845D01*
X70710000Y-105821845D01*
X70710000Y-104774204D01*
X75261717Y-104774204D01*
X75343383Y-104946967D01*
X75755754Y-105126159D01*
X76205309Y-105133904D01*
X76623607Y-104969023D01*
X76656617Y-104946967D01*
X76738283Y-104774204D01*
X76000000Y-104035921D01*
X75261717Y-104774204D01*
X70710000Y-104774204D01*
X70710000Y-104205309D01*
X74866096Y-104205309D01*
X75030977Y-104623607D01*
X75053033Y-104656617D01*
X75225796Y-104738283D01*
X75964079Y-104000000D01*
X76035921Y-104000000D01*
X76774204Y-104738283D01*
X76946967Y-104656617D01*
X77126159Y-104244246D01*
X77133904Y-103794691D01*
X76969023Y-103376393D01*
X76946967Y-103343383D01*
X76774204Y-103261717D01*
X76035921Y-104000000D01*
X75964079Y-104000000D01*
X75225796Y-103261717D01*
X75053033Y-103343383D01*
X74873841Y-103755754D01*
X74866096Y-104205309D01*
X70710000Y-104205309D01*
X70710000Y-103225796D01*
X75261717Y-103225796D01*
X76000000Y-103964079D01*
X76738283Y-103225796D01*
X76656617Y-103053033D01*
X76244246Y-102873841D01*
X75794691Y-102866096D01*
X75376393Y-103030977D01*
X75343383Y-103053033D01*
X75261717Y-103225796D01*
X70710000Y-103225796D01*
X70710000Y-99532065D01*
X70969673Y-99792192D01*
X71313201Y-99934838D01*
X71685167Y-99935162D01*
X71988083Y-99810000D01*
X73000000Y-99810000D01*
X73309974Y-99748342D01*
X73572756Y-99572756D01*
X74659725Y-98485787D01*
X74565250Y-98713309D01*
X74564752Y-99284187D01*
X74782757Y-99811800D01*
X75186077Y-100215824D01*
X75713309Y-100434750D01*
X76284187Y-100435248D01*
X76811800Y-100217243D01*
X77215824Y-99813923D01*
X77434750Y-99286691D01*
X77435248Y-98715813D01*
X77217243Y-98188200D01*
X76813923Y-97784176D01*
X76286691Y-97565250D01*
X75757670Y-97564789D01*
X75792192Y-97530327D01*
X75934838Y-97186799D01*
X75935162Y-96814833D01*
X75881586Y-96685167D01*
X77564838Y-96685167D01*
X77690000Y-96988083D01*
X77690000Y-99012559D01*
X77565162Y-99313201D01*
X77564838Y-99685167D01*
X77706883Y-100028943D01*
X77969673Y-100292192D01*
X78313201Y-100434838D01*
X78685167Y-100435162D01*
X79028943Y-100293117D01*
X79215128Y-100107257D01*
X79129050Y-100540000D01*
X79238283Y-101089151D01*
X79549352Y-101554698D01*
X79931438Y-101810000D01*
X79549352Y-102065302D01*
X79238283Y-102530849D01*
X79129050Y-103080000D01*
X79238283Y-103629151D01*
X79549352Y-104094698D01*
X80014899Y-104405767D01*
X80509803Y-104504210D01*
X80144025Y-104585552D01*
X79782868Y-104838789D01*
X79546112Y-105210958D01*
X79487970Y-105418155D01*
X79552658Y-105594600D01*
X80974600Y-105594600D01*
X80974600Y-105574600D01*
X81025400Y-105574600D01*
X81025400Y-105594600D01*
X82447342Y-105594600D01*
X82512030Y-105418155D01*
X82453888Y-105210958D01*
X82217132Y-104838789D01*
X81855975Y-104585552D01*
X81490197Y-104504210D01*
X81985101Y-104405767D01*
X82450648Y-104094698D01*
X82761717Y-103629151D01*
X82870950Y-103080000D01*
X82761717Y-102530849D01*
X82450648Y-102065302D01*
X82068562Y-101810000D01*
X82450648Y-101554698D01*
X82761717Y-101089151D01*
X82870950Y-100540000D01*
X82761717Y-99990849D01*
X82450648Y-99525302D01*
X82304650Y-99427749D01*
X82435317Y-99403162D01*
X82651441Y-99264090D01*
X82796431Y-99051890D01*
X82847440Y-98800000D01*
X82847440Y-97200000D01*
X82803162Y-96964683D01*
X82664090Y-96748559D01*
X82571313Y-96685167D01*
X85064838Y-96685167D01*
X85190000Y-96988083D01*
X85190000Y-99012559D01*
X85065162Y-99313201D01*
X85064838Y-99685167D01*
X85206883Y-100028943D01*
X85469673Y-100292192D01*
X85813201Y-100434838D01*
X86185167Y-100435162D01*
X86528943Y-100293117D01*
X86792192Y-100030327D01*
X86934838Y-99686799D01*
X86935162Y-99314833D01*
X86810000Y-99011917D01*
X86810000Y-98306416D01*
X86858283Y-98549151D01*
X87169352Y-99014698D01*
X87551438Y-99270000D01*
X87169352Y-99525302D01*
X86858283Y-99990849D01*
X86749050Y-100540000D01*
X86858283Y-101089151D01*
X87169352Y-101554698D01*
X87551438Y-101810000D01*
X87169352Y-102065302D01*
X86858283Y-102530849D01*
X86749050Y-103080000D01*
X86858283Y-103629151D01*
X87169352Y-104094698D01*
X87634899Y-104405767D01*
X88129803Y-104504210D01*
X87764025Y-104585552D01*
X87402868Y-104838789D01*
X87166112Y-105210958D01*
X87107970Y-105418155D01*
X87172658Y-105594600D01*
X88594600Y-105594600D01*
X88594600Y-105574600D01*
X88645400Y-105574600D01*
X88645400Y-105594600D01*
X90067342Y-105594600D01*
X90132030Y-105418155D01*
X90073888Y-105210958D01*
X89991577Y-105081569D01*
X93617490Y-105081569D01*
X94500000Y-105964079D01*
X95382510Y-105081569D01*
X95276501Y-104888025D01*
X94791859Y-104675515D01*
X94262784Y-104664646D01*
X93769823Y-104857072D01*
X93723499Y-104888025D01*
X93617490Y-105081569D01*
X89991577Y-105081569D01*
X89837132Y-104838789D01*
X89475975Y-104585552D01*
X89110197Y-104504210D01*
X89605101Y-104405767D01*
X90070648Y-104094698D01*
X90381717Y-103629151D01*
X90490950Y-103080000D01*
X90381717Y-102530849D01*
X90070648Y-102065302D01*
X89688562Y-101810000D01*
X90070648Y-101554698D01*
X90224932Y-101323795D01*
X92864716Y-101323795D01*
X93113106Y-101924943D01*
X93572637Y-102385278D01*
X94173352Y-102634716D01*
X94823795Y-102635284D01*
X95424943Y-102386894D01*
X95885278Y-101927363D01*
X96134716Y-101326648D01*
X96135284Y-100676205D01*
X95886894Y-100075057D01*
X95427363Y-99614722D01*
X94826648Y-99365284D01*
X94176205Y-99364716D01*
X93575057Y-99613106D01*
X93114722Y-100072637D01*
X92865284Y-100673352D01*
X92864716Y-101323795D01*
X90224932Y-101323795D01*
X90381717Y-101089151D01*
X90490950Y-100540000D01*
X90381717Y-99990849D01*
X90070648Y-99525302D01*
X89688562Y-99270000D01*
X90070648Y-99014698D01*
X90381717Y-98549151D01*
X90490950Y-98000000D01*
X90381717Y-97450849D01*
X90070648Y-96985302D01*
X89605101Y-96674233D01*
X89055950Y-96565000D01*
X88184050Y-96565000D01*
X87634899Y-96674233D01*
X87169352Y-96985302D01*
X86858283Y-97450849D01*
X86810000Y-97693584D01*
X86810000Y-96987441D01*
X86934838Y-96686799D01*
X86935162Y-96314833D01*
X86793117Y-95971057D01*
X86742150Y-95920000D01*
X99445836Y-95920000D01*
X99552176Y-96454609D01*
X99855008Y-96907828D01*
X100277307Y-97190000D01*
X99855008Y-97472172D01*
X99552176Y-97925391D01*
X99445836Y-98460000D01*
X99552176Y-98994609D01*
X99855008Y-99447828D01*
X100277307Y-99730000D01*
X99855008Y-100012172D01*
X99552176Y-100465391D01*
X99445836Y-101000000D01*
X99552176Y-101534609D01*
X99855008Y-101987828D01*
X100277307Y-102270000D01*
X99855008Y-102552172D01*
X99552176Y-103005391D01*
X99445836Y-103540000D01*
X99552176Y-104074609D01*
X99855008Y-104527828D01*
X100277307Y-104810000D01*
X99855008Y-105092172D01*
X99552176Y-105545391D01*
X99445836Y-106080000D01*
X99552176Y-106614609D01*
X99855008Y-107067828D01*
X100308227Y-107370660D01*
X100842836Y-107477000D01*
X101917164Y-107477000D01*
X102451773Y-107370660D01*
X102904992Y-107067828D01*
X103207824Y-106614609D01*
X103314164Y-106080000D01*
X103207824Y-105545391D01*
X102904992Y-105092172D01*
X102482693Y-104810000D01*
X102904992Y-104527828D01*
X103207824Y-104074609D01*
X103314164Y-103540000D01*
X103207824Y-103005391D01*
X102904992Y-102552172D01*
X102482693Y-102270000D01*
X102904992Y-101987828D01*
X103023813Y-101810000D01*
X114976187Y-101810000D01*
X115095008Y-101987828D01*
X115517307Y-102270000D01*
X115095008Y-102552172D01*
X114792176Y-103005391D01*
X114685836Y-103540000D01*
X114792176Y-104074609D01*
X115095008Y-104527828D01*
X115517307Y-104810000D01*
X115095008Y-105092172D01*
X114792176Y-105545391D01*
X114685836Y-106080000D01*
X114792176Y-106614609D01*
X115095008Y-107067828D01*
X115548227Y-107370660D01*
X116082836Y-107477000D01*
X117157164Y-107477000D01*
X117691773Y-107370660D01*
X118144992Y-107067828D01*
X118447824Y-106614609D01*
X118554164Y-106080000D01*
X118447824Y-105545391D01*
X118144992Y-105092172D01*
X117722693Y-104810000D01*
X118144992Y-104527828D01*
X118447824Y-104074609D01*
X118554164Y-103540000D01*
X118447824Y-103005391D01*
X118144992Y-102552172D01*
X117722693Y-102270000D01*
X118144992Y-101987828D01*
X118447824Y-101534609D01*
X118554164Y-101000000D01*
X118447824Y-100465391D01*
X118144992Y-100012172D01*
X117722693Y-99730000D01*
X118144992Y-99447828D01*
X118447824Y-98994609D01*
X118554164Y-98460000D01*
X118447824Y-97925391D01*
X118144992Y-97472172D01*
X117722693Y-97190000D01*
X118144992Y-96907828D01*
X118447824Y-96454609D01*
X118554164Y-95920000D01*
X118447824Y-95385391D01*
X118144992Y-94932172D01*
X117691773Y-94629340D01*
X117157164Y-94523000D01*
X116082836Y-94523000D01*
X115548227Y-94629340D01*
X115095008Y-94932172D01*
X114792176Y-95385391D01*
X114685836Y-95920000D01*
X114792176Y-96454609D01*
X115095008Y-96907828D01*
X115517307Y-97190000D01*
X115095008Y-97472172D01*
X114792176Y-97925391D01*
X114685836Y-98460000D01*
X114792176Y-98994609D01*
X115095008Y-99447828D01*
X115517307Y-99730000D01*
X115095008Y-100012172D01*
X114976187Y-100190000D01*
X103023813Y-100190000D01*
X102904992Y-100012172D01*
X102482693Y-99730000D01*
X102904992Y-99447828D01*
X103207824Y-98994609D01*
X103314164Y-98460000D01*
X103207824Y-97925391D01*
X102904992Y-97472172D01*
X102482693Y-97190000D01*
X102904992Y-96907828D01*
X103207824Y-96454609D01*
X103314164Y-95920000D01*
X103207824Y-95385391D01*
X102904992Y-94932172D01*
X102451773Y-94629340D01*
X101917164Y-94523000D01*
X100842836Y-94523000D01*
X100308227Y-94629340D01*
X99855008Y-94932172D01*
X99552176Y-95385391D01*
X99445836Y-95920000D01*
X86742150Y-95920000D01*
X86530327Y-95707808D01*
X86186799Y-95565162D01*
X85814833Y-95564838D01*
X85471057Y-95706883D01*
X85207808Y-95969673D01*
X85065162Y-96313201D01*
X85064838Y-96685167D01*
X82571313Y-96685167D01*
X82451890Y-96603569D01*
X82200000Y-96552560D01*
X79800000Y-96552560D01*
X79564683Y-96596838D01*
X79434844Y-96680387D01*
X79435162Y-96314833D01*
X79293117Y-95971057D01*
X79030327Y-95707808D01*
X78686799Y-95565162D01*
X78314833Y-95564838D01*
X77971057Y-95706883D01*
X77707808Y-95969673D01*
X77565162Y-96313201D01*
X77564838Y-96685167D01*
X75881586Y-96685167D01*
X75793117Y-96471057D01*
X75530327Y-96207808D01*
X75186799Y-96065162D01*
X74814833Y-96064838D01*
X74471057Y-96206883D01*
X74207808Y-96469673D01*
X74082116Y-96772371D01*
X72664488Y-98190000D01*
X71987441Y-98190000D01*
X71686799Y-98065162D01*
X71314833Y-98064838D01*
X70971057Y-98206883D01*
X70710000Y-98467485D01*
X70710000Y-91229567D01*
X75067600Y-91229567D01*
X75067600Y-92010433D01*
X75175874Y-92554762D01*
X75484211Y-93016222D01*
X75945671Y-93324559D01*
X76490000Y-93432833D01*
X77034329Y-93324559D01*
X77495789Y-93016222D01*
X77760000Y-92620801D01*
X78024211Y-93016222D01*
X78485671Y-93324559D01*
X79030000Y-93432833D01*
X79574329Y-93324559D01*
X80035789Y-93016222D01*
X80300000Y-92620801D01*
X80564211Y-93016222D01*
X81025671Y-93324559D01*
X81570000Y-93432833D01*
X82114329Y-93324559D01*
X82575789Y-93016222D01*
X82884126Y-92554762D01*
X82992400Y-92010433D01*
X82992400Y-92001000D01*
X83087192Y-92426754D01*
X83337698Y-92783824D01*
X83705780Y-93017849D01*
X83910127Y-93075182D01*
X84084600Y-93010338D01*
X84084600Y-91645400D01*
X82992400Y-91645400D01*
X82992400Y-91594600D01*
X84084600Y-91594600D01*
X84084600Y-90229662D01*
X84135400Y-90229662D01*
X84135400Y-91594600D01*
X85227600Y-91594600D01*
X85227600Y-91645400D01*
X84135400Y-91645400D01*
X84135400Y-93010338D01*
X84309873Y-93075182D01*
X84514220Y-93017849D01*
X84882302Y-92783824D01*
X85132808Y-92426754D01*
X85227600Y-92001000D01*
X85227600Y-92010433D01*
X85335874Y-92554762D01*
X85644211Y-93016222D01*
X86105671Y-93324559D01*
X86650000Y-93432833D01*
X87194329Y-93324559D01*
X87655789Y-93016222D01*
X87920000Y-92620801D01*
X88184211Y-93016222D01*
X88645671Y-93324559D01*
X89190000Y-93432833D01*
X89734329Y-93324559D01*
X90195789Y-93016222D01*
X90460000Y-92620801D01*
X90724211Y-93016222D01*
X91185671Y-93324559D01*
X91730000Y-93432833D01*
X92274329Y-93324559D01*
X92735789Y-93016222D01*
X93000000Y-92620801D01*
X93264211Y-93016222D01*
X93725671Y-93324559D01*
X94270000Y-93432833D01*
X94814329Y-93324559D01*
X95275789Y-93016222D01*
X95540000Y-92620801D01*
X95804211Y-93016222D01*
X96265671Y-93324559D01*
X96810000Y-93432833D01*
X97354329Y-93324559D01*
X97815789Y-93016222D01*
X98080000Y-92620801D01*
X98344211Y-93016222D01*
X98805671Y-93324559D01*
X99350000Y-93432833D01*
X99894329Y-93324559D01*
X100355789Y-93016222D01*
X100620000Y-92620801D01*
X100884211Y-93016222D01*
X101345671Y-93324559D01*
X101890000Y-93432833D01*
X102434329Y-93324559D01*
X102895789Y-93016222D01*
X103160000Y-92620801D01*
X103424211Y-93016222D01*
X103885671Y-93324559D01*
X104430000Y-93432833D01*
X104974329Y-93324559D01*
X105435789Y-93016222D01*
X105700000Y-92620801D01*
X105964211Y-93016222D01*
X106425671Y-93324559D01*
X106970000Y-93432833D01*
X107514329Y-93324559D01*
X107975789Y-93016222D01*
X108240000Y-92620801D01*
X108504211Y-93016222D01*
X108965671Y-93324559D01*
X109510000Y-93432833D01*
X110054329Y-93324559D01*
X110515789Y-93016222D01*
X110780000Y-92620801D01*
X111044211Y-93016222D01*
X111505671Y-93324559D01*
X112050000Y-93432833D01*
X112594329Y-93324559D01*
X113055789Y-93016222D01*
X113364126Y-92554762D01*
X113472400Y-92010433D01*
X113472400Y-91229567D01*
X113364126Y-90685238D01*
X113055789Y-90223778D01*
X112594329Y-89915441D01*
X112050000Y-89807167D01*
X111505671Y-89915441D01*
X111044211Y-90223778D01*
X110780000Y-90619199D01*
X110515789Y-90223778D01*
X110054329Y-89915441D01*
X109510000Y-89807167D01*
X108965671Y-89915441D01*
X108504211Y-90223778D01*
X108240000Y-90619199D01*
X107975789Y-90223778D01*
X107514329Y-89915441D01*
X106970000Y-89807167D01*
X106425671Y-89915441D01*
X105964211Y-90223778D01*
X105700000Y-90619199D01*
X105435789Y-90223778D01*
X104974329Y-89915441D01*
X104430000Y-89807167D01*
X103885671Y-89915441D01*
X103424211Y-90223778D01*
X103160000Y-90619199D01*
X102895789Y-90223778D01*
X102434329Y-89915441D01*
X101890000Y-89807167D01*
X101345671Y-89915441D01*
X100884211Y-90223778D01*
X100620000Y-90619199D01*
X100355789Y-90223778D01*
X99894329Y-89915441D01*
X99350000Y-89807167D01*
X98805671Y-89915441D01*
X98344211Y-90223778D01*
X98080000Y-90619199D01*
X97815789Y-90223778D01*
X97354329Y-89915441D01*
X96810000Y-89807167D01*
X96265671Y-89915441D01*
X95804211Y-90223778D01*
X95540000Y-90619199D01*
X95275789Y-90223778D01*
X94814329Y-89915441D01*
X94270000Y-89807167D01*
X93725671Y-89915441D01*
X93264211Y-90223778D01*
X93000000Y-90619199D01*
X92735789Y-90223778D01*
X92274329Y-89915441D01*
X91730000Y-89807167D01*
X91185671Y-89915441D01*
X90724211Y-90223778D01*
X90460000Y-90619199D01*
X90195789Y-90223778D01*
X89734329Y-89915441D01*
X89190000Y-89807167D01*
X88645671Y-89915441D01*
X88184211Y-90223778D01*
X87920000Y-90619199D01*
X87655789Y-90223778D01*
X87194329Y-89915441D01*
X86650000Y-89807167D01*
X86105671Y-89915441D01*
X85644211Y-90223778D01*
X85335874Y-90685238D01*
X85227600Y-91229567D01*
X85227600Y-91239000D01*
X85132808Y-90813246D01*
X84882302Y-90456176D01*
X84514220Y-90222151D01*
X84309873Y-90164818D01*
X84135400Y-90229662D01*
X84084600Y-90229662D01*
X83910127Y-90164818D01*
X83705780Y-90222151D01*
X83337698Y-90456176D01*
X83087192Y-90813246D01*
X82992400Y-91239000D01*
X82992400Y-91229567D01*
X82884126Y-90685238D01*
X82575789Y-90223778D01*
X82114329Y-89915441D01*
X81570000Y-89807167D01*
X81025671Y-89915441D01*
X80564211Y-90223778D01*
X80300000Y-90619199D01*
X80035789Y-90223778D01*
X79574329Y-89915441D01*
X79030000Y-89807167D01*
X78485671Y-89915441D01*
X78024211Y-90223778D01*
X77760000Y-90619199D01*
X77495789Y-90223778D01*
X77034329Y-89915441D01*
X76490000Y-89807167D01*
X75945671Y-89915441D01*
X75484211Y-90223778D01*
X75175874Y-90685238D01*
X75067600Y-91229567D01*
X70710000Y-91229567D01*
X70710000Y-82685167D01*
X71564838Y-82685167D01*
X71706883Y-83028943D01*
X71969673Y-83292192D01*
X72313201Y-83434838D01*
X72685167Y-83435162D01*
X72988083Y-83310000D01*
X74512559Y-83310000D01*
X74813201Y-83434838D01*
X75185167Y-83435162D01*
X75528943Y-83293117D01*
X75792192Y-83030327D01*
X75934838Y-82686799D01*
X75935162Y-82314833D01*
X75793117Y-81971057D01*
X75530327Y-81707808D01*
X75186799Y-81565162D01*
X74814833Y-81564838D01*
X74511917Y-81690000D01*
X72987441Y-81690000D01*
X72686799Y-81565162D01*
X72314833Y-81564838D01*
X71971057Y-81706883D01*
X71707808Y-81969673D01*
X71565162Y-82313201D01*
X71564838Y-82685167D01*
X70710000Y-82685167D01*
X70710000Y-75989567D01*
X75067600Y-75989567D01*
X75067600Y-76770433D01*
X75175874Y-77314762D01*
X75484211Y-77776222D01*
X75945671Y-78084559D01*
X76490000Y-78192833D01*
X77034329Y-78084559D01*
X77495789Y-77776222D01*
X77804126Y-77314762D01*
X77912400Y-76770433D01*
X77912400Y-76761000D01*
X78007192Y-77186754D01*
X78257698Y-77543824D01*
X78625780Y-77777849D01*
X78830127Y-77835182D01*
X79004600Y-77770338D01*
X79004600Y-76405400D01*
X77912400Y-76405400D01*
X77912400Y-76354600D01*
X79004600Y-76354600D01*
X79004600Y-74989662D01*
X79055400Y-74989662D01*
X79055400Y-76354600D01*
X80147600Y-76354600D01*
X80147600Y-76405400D01*
X79055400Y-76405400D01*
X79055400Y-77770338D01*
X79229873Y-77835182D01*
X79434220Y-77777849D01*
X79802302Y-77543824D01*
X80052808Y-77186754D01*
X80147600Y-76761000D01*
X80147600Y-76770433D01*
X80255874Y-77314762D01*
X80564211Y-77776222D01*
X81025671Y-78084559D01*
X81570000Y-78192833D01*
X82114329Y-78084559D01*
X82575789Y-77776222D01*
X82840000Y-77380801D01*
X83104211Y-77776222D01*
X83565671Y-78084559D01*
X84110000Y-78192833D01*
X84654329Y-78084559D01*
X85115789Y-77776222D01*
X85380000Y-77380801D01*
X85644211Y-77776222D01*
X86105671Y-78084559D01*
X86650000Y-78192833D01*
X87194329Y-78084559D01*
X87655789Y-77776222D01*
X87920000Y-77380801D01*
X88184211Y-77776222D01*
X88645671Y-78084559D01*
X89190000Y-78192833D01*
X89734329Y-78084559D01*
X90195789Y-77776222D01*
X90460000Y-77380801D01*
X90724211Y-77776222D01*
X91185671Y-78084559D01*
X91730000Y-78192833D01*
X92274329Y-78084559D01*
X92735789Y-77776222D01*
X93000000Y-77380801D01*
X93264211Y-77776222D01*
X93725671Y-78084559D01*
X94270000Y-78192833D01*
X94814329Y-78084559D01*
X95275789Y-77776222D01*
X95540000Y-77380801D01*
X95804211Y-77776222D01*
X96265671Y-78084559D01*
X96810000Y-78192833D01*
X97354329Y-78084559D01*
X97815789Y-77776222D01*
X98080000Y-77380801D01*
X98344211Y-77776222D01*
X98805671Y-78084559D01*
X99350000Y-78192833D01*
X99894329Y-78084559D01*
X100355789Y-77776222D01*
X100620000Y-77380801D01*
X100884211Y-77776222D01*
X101345671Y-78084559D01*
X101890000Y-78192833D01*
X102434329Y-78084559D01*
X102895789Y-77776222D01*
X103160000Y-77380801D01*
X103424211Y-77776222D01*
X103885671Y-78084559D01*
X104430000Y-78192833D01*
X104974329Y-78084559D01*
X105435789Y-77776222D01*
X105700000Y-77380801D01*
X105964211Y-77776222D01*
X106425671Y-78084559D01*
X106970000Y-78192833D01*
X107514329Y-78084559D01*
X107975789Y-77776222D01*
X108240000Y-77380801D01*
X108504211Y-77776222D01*
X108965671Y-78084559D01*
X109510000Y-78192833D01*
X110054329Y-78084559D01*
X110515789Y-77776222D01*
X110630503Y-77604540D01*
X110659438Y-77758317D01*
X110798510Y-77974441D01*
X111010710Y-78119431D01*
X111262600Y-78170440D01*
X112837400Y-78170440D01*
X113072717Y-78126162D01*
X113288841Y-77987090D01*
X113433831Y-77774890D01*
X113484840Y-77523000D01*
X113484840Y-75237000D01*
X113440562Y-75001683D01*
X113301490Y-74785559D01*
X113089290Y-74640569D01*
X112837400Y-74589560D01*
X111262600Y-74589560D01*
X111027283Y-74633838D01*
X110811159Y-74772910D01*
X110666169Y-74985110D01*
X110631400Y-75156803D01*
X110515789Y-74983778D01*
X110054329Y-74675441D01*
X109510000Y-74567167D01*
X108965671Y-74675441D01*
X108504211Y-74983778D01*
X108240000Y-75379199D01*
X107975789Y-74983778D01*
X107514329Y-74675441D01*
X106970000Y-74567167D01*
X106425671Y-74675441D01*
X105964211Y-74983778D01*
X105700000Y-75379199D01*
X105435789Y-74983778D01*
X104974329Y-74675441D01*
X104430000Y-74567167D01*
X103885671Y-74675441D01*
X103424211Y-74983778D01*
X103160000Y-75379199D01*
X102895789Y-74983778D01*
X102434329Y-74675441D01*
X101890000Y-74567167D01*
X101345671Y-74675441D01*
X100884211Y-74983778D01*
X100620000Y-75379199D01*
X100355789Y-74983778D01*
X99894329Y-74675441D01*
X99350000Y-74567167D01*
X98805671Y-74675441D01*
X98344211Y-74983778D01*
X98080000Y-75379199D01*
X97815789Y-74983778D01*
X97354329Y-74675441D01*
X96810000Y-74567167D01*
X96265671Y-74675441D01*
X95804211Y-74983778D01*
X95540000Y-75379199D01*
X95275789Y-74983778D01*
X94814329Y-74675441D01*
X94270000Y-74567167D01*
X93725671Y-74675441D01*
X93264211Y-74983778D01*
X93000000Y-75379199D01*
X92735789Y-74983778D01*
X92274329Y-74675441D01*
X91730000Y-74567167D01*
X91185671Y-74675441D01*
X90724211Y-74983778D01*
X90460000Y-75379199D01*
X90195789Y-74983778D01*
X89734329Y-74675441D01*
X89190000Y-74567167D01*
X88645671Y-74675441D01*
X88184211Y-74983778D01*
X87920000Y-75379199D01*
X87655789Y-74983778D01*
X87194329Y-74675441D01*
X86650000Y-74567167D01*
X86105671Y-74675441D01*
X85644211Y-74983778D01*
X85380000Y-75379199D01*
X85115789Y-74983778D01*
X84654329Y-74675441D01*
X84110000Y-74567167D01*
X83565671Y-74675441D01*
X83104211Y-74983778D01*
X82840000Y-75379199D01*
X82575789Y-74983778D01*
X82114329Y-74675441D01*
X81570000Y-74567167D01*
X81025671Y-74675441D01*
X80564211Y-74983778D01*
X80255874Y-75445238D01*
X80147600Y-75989567D01*
X80147600Y-75999000D01*
X80052808Y-75573246D01*
X79802302Y-75216176D01*
X79434220Y-74982151D01*
X79229873Y-74924818D01*
X79055400Y-74989662D01*
X79004600Y-74989662D01*
X78830127Y-74924818D01*
X78625780Y-74982151D01*
X78257698Y-75216176D01*
X78007192Y-75573246D01*
X77912400Y-75999000D01*
X77912400Y-75989567D01*
X77804126Y-75445238D01*
X77495789Y-74983778D01*
X77034329Y-74675441D01*
X76490000Y-74567167D01*
X75945671Y-74675441D01*
X75484211Y-74983778D01*
X75175874Y-75445238D01*
X75067600Y-75989567D01*
X70710000Y-75989567D01*
X70710000Y-73442619D01*
X70764613Y-73442619D01*
X71104155Y-74264372D01*
X71732321Y-74893636D01*
X72553481Y-75234611D01*
X73442619Y-75235387D01*
X74264372Y-74895845D01*
X74893636Y-74267679D01*
X75234611Y-73446519D01*
X75234614Y-73442619D01*
X114764613Y-73442619D01*
X115104155Y-74264372D01*
X115732321Y-74893636D01*
X116553481Y-75234611D01*
X117442619Y-75235387D01*
X118264372Y-74895845D01*
X118893636Y-74267679D01*
X119234611Y-73446519D01*
X119235387Y-72557381D01*
X118895845Y-71735628D01*
X118267679Y-71106364D01*
X117446519Y-70765389D01*
X116557381Y-70764613D01*
X115735628Y-71104155D01*
X115106364Y-71732321D01*
X114765389Y-72553481D01*
X114764613Y-73442619D01*
X75234614Y-73442619D01*
X75235387Y-72557381D01*
X75049686Y-72107950D01*
X78819800Y-72107950D01*
X78819800Y-72915681D01*
X78870070Y-73037043D01*
X78962957Y-73129930D01*
X79084319Y-73180200D01*
X79892050Y-73180200D01*
X79974600Y-73097650D01*
X79974600Y-72025400D01*
X80025400Y-72025400D01*
X80025400Y-73097650D01*
X80107950Y-73180200D01*
X80915681Y-73180200D01*
X81037043Y-73129930D01*
X81129930Y-73037043D01*
X81180200Y-72915681D01*
X81180200Y-72209669D01*
X81378571Y-72209669D01*
X81547216Y-72638169D01*
X81867004Y-72969513D01*
X82289249Y-73153258D01*
X82330331Y-73161427D01*
X82514600Y-73097356D01*
X82514600Y-72025400D01*
X82565400Y-72025400D01*
X82565400Y-73097356D01*
X82749669Y-73161427D01*
X82790751Y-73153258D01*
X83212996Y-72969513D01*
X83532784Y-72638169D01*
X83701429Y-72209669D01*
X106298571Y-72209669D01*
X106467216Y-72638169D01*
X106787004Y-72969513D01*
X107209249Y-73153258D01*
X107250331Y-73161427D01*
X107434600Y-73097356D01*
X107434600Y-72025400D01*
X107485400Y-72025400D01*
X107485400Y-73097356D01*
X107669669Y-73161427D01*
X107710751Y-73153258D01*
X108132996Y-72969513D01*
X108452784Y-72638169D01*
X108621429Y-72209669D01*
X108586073Y-72107950D01*
X108819800Y-72107950D01*
X108819800Y-72915681D01*
X108870070Y-73037043D01*
X108962957Y-73129930D01*
X109084319Y-73180200D01*
X109892050Y-73180200D01*
X109974600Y-73097650D01*
X109974600Y-72025400D01*
X110025400Y-72025400D01*
X110025400Y-73097650D01*
X110107950Y-73180200D01*
X110915681Y-73180200D01*
X111037043Y-73129930D01*
X111129930Y-73037043D01*
X111180200Y-72915681D01*
X111180200Y-72107950D01*
X111097650Y-72025400D01*
X110025400Y-72025400D01*
X109974600Y-72025400D01*
X108902350Y-72025400D01*
X108819800Y-72107950D01*
X108586073Y-72107950D01*
X108557379Y-72025400D01*
X107485400Y-72025400D01*
X107434600Y-72025400D01*
X106362621Y-72025400D01*
X106298571Y-72209669D01*
X83701429Y-72209669D01*
X83637379Y-72025400D01*
X82565400Y-72025400D01*
X82514600Y-72025400D01*
X81442621Y-72025400D01*
X81378571Y-72209669D01*
X81180200Y-72209669D01*
X81180200Y-72107950D01*
X81097650Y-72025400D01*
X80025400Y-72025400D01*
X79974600Y-72025400D01*
X78902350Y-72025400D01*
X78819800Y-72107950D01*
X75049686Y-72107950D01*
X74895845Y-71735628D01*
X74267679Y-71106364D01*
X74214589Y-71084319D01*
X78819800Y-71084319D01*
X78819800Y-71892050D01*
X78902350Y-71974600D01*
X79974600Y-71974600D01*
X79974600Y-70902350D01*
X80025400Y-70902350D01*
X80025400Y-71974600D01*
X81097650Y-71974600D01*
X81180200Y-71892050D01*
X81180200Y-71790331D01*
X81378571Y-71790331D01*
X81442621Y-71974600D01*
X82514600Y-71974600D01*
X82514600Y-70902644D01*
X82565400Y-70902644D01*
X82565400Y-71974600D01*
X83637379Y-71974600D01*
X83701429Y-71790331D01*
X106298571Y-71790331D01*
X106362621Y-71974600D01*
X107434600Y-71974600D01*
X107434600Y-70902644D01*
X107485400Y-70902644D01*
X107485400Y-71974600D01*
X108557379Y-71974600D01*
X108621429Y-71790331D01*
X108452784Y-71361831D01*
X108184951Y-71084319D01*
X108819800Y-71084319D01*
X108819800Y-71892050D01*
X108902350Y-71974600D01*
X109974600Y-71974600D01*
X109974600Y-70902350D01*
X110025400Y-70902350D01*
X110025400Y-71974600D01*
X111097650Y-71974600D01*
X111180200Y-71892050D01*
X111180200Y-71084319D01*
X111129930Y-70962957D01*
X111037043Y-70870070D01*
X110915681Y-70819800D01*
X110107950Y-70819800D01*
X110025400Y-70902350D01*
X109974600Y-70902350D01*
X109892050Y-70819800D01*
X109084319Y-70819800D01*
X108962957Y-70870070D01*
X108870070Y-70962957D01*
X108819800Y-71084319D01*
X108184951Y-71084319D01*
X108132996Y-71030487D01*
X107710751Y-70846742D01*
X107669669Y-70838573D01*
X107485400Y-70902644D01*
X107434600Y-70902644D01*
X107250331Y-70838573D01*
X107209249Y-70846742D01*
X106787004Y-71030487D01*
X106467216Y-71361831D01*
X106298571Y-71790331D01*
X83701429Y-71790331D01*
X83532784Y-71361831D01*
X83212996Y-71030487D01*
X82790751Y-70846742D01*
X82749669Y-70838573D01*
X82565400Y-70902644D01*
X82514600Y-70902644D01*
X82330331Y-70838573D01*
X82289249Y-70846742D01*
X81867004Y-71030487D01*
X81547216Y-71361831D01*
X81378571Y-71790331D01*
X81180200Y-71790331D01*
X81180200Y-71084319D01*
X81129930Y-70962957D01*
X81037043Y-70870070D01*
X80915681Y-70819800D01*
X80107950Y-70819800D01*
X80025400Y-70902350D01*
X79974600Y-70902350D01*
X79892050Y-70819800D01*
X79084319Y-70819800D01*
X78962957Y-70870070D01*
X78870070Y-70962957D01*
X78819800Y-71084319D01*
X74214589Y-71084319D01*
X73446519Y-70765389D01*
X72557381Y-70764613D01*
X71735628Y-71104155D01*
X71106364Y-71732321D01*
X70765389Y-72553481D01*
X70764613Y-73442619D01*
X70710000Y-73442619D01*
X70710000Y-70710000D01*
X119373000Y-70710000D01*
X119373000Y-129290000D01*
G36*
X163373000Y-129290000D02*
X156127000Y-129290000D01*
X156127000Y-126873305D01*
X157864674Y-126873305D01*
X158151043Y-127566372D01*
X158680839Y-128097093D01*
X159373405Y-128384672D01*
X160123305Y-128385326D01*
X160816372Y-128098957D01*
X161347093Y-127569161D01*
X161634672Y-126876595D01*
X161635326Y-126126695D01*
X161348957Y-125433628D01*
X160819161Y-124902907D01*
X160126595Y-124615328D01*
X159376695Y-124614674D01*
X158683628Y-124901043D01*
X158152907Y-125430839D01*
X157865328Y-126123405D01*
X157864674Y-126873305D01*
X156127000Y-126873305D01*
X156127000Y-112873305D01*
X157864674Y-112873305D01*
X158151043Y-113566372D01*
X158680839Y-114097093D01*
X159373405Y-114384672D01*
X160123305Y-114385326D01*
X160816372Y-114098957D01*
X161347093Y-113569161D01*
X161634672Y-112876595D01*
X161635326Y-112126695D01*
X161348957Y-111433628D01*
X160819161Y-110902907D01*
X160126595Y-110615328D01*
X159376695Y-110614674D01*
X158683628Y-110901043D01*
X158152907Y-111430839D01*
X157865328Y-112123405D01*
X157864674Y-112873305D01*
X156127000Y-112873305D01*
X156127000Y-99873305D01*
X157864674Y-99873305D01*
X158151043Y-100566372D01*
X158680839Y-101097093D01*
X159373405Y-101384672D01*
X160123305Y-101385326D01*
X160816372Y-101098957D01*
X161347093Y-100569161D01*
X161634672Y-99876595D01*
X161635326Y-99126695D01*
X161348957Y-98433628D01*
X160819161Y-97902907D01*
X160126595Y-97615328D01*
X159376695Y-97614674D01*
X158683628Y-97901043D01*
X158152907Y-98430839D01*
X157865328Y-99123405D01*
X157864674Y-99873305D01*
X156127000Y-99873305D01*
X156127000Y-86873305D01*
X157864674Y-86873305D01*
X158151043Y-87566372D01*
X158680839Y-88097093D01*
X159373405Y-88384672D01*
X160123305Y-88385326D01*
X160816372Y-88098957D01*
X161347093Y-87569161D01*
X161634672Y-86876595D01*
X161635326Y-86126695D01*
X161348957Y-85433628D01*
X160819161Y-84902907D01*
X160126595Y-84615328D01*
X159376695Y-84614674D01*
X158683628Y-84901043D01*
X158152907Y-85430839D01*
X157865328Y-86123405D01*
X157864674Y-86873305D01*
X156127000Y-86873305D01*
X156127000Y-70710000D01*
X163373000Y-70710000D01*
X163373000Y-129290000D01*
X163373000Y-129290000D01*
G37*
X163373000Y-129290000D02*
X156127000Y-129290000D01*
X156127000Y-126873305D01*
X157864674Y-126873305D01*
X158151043Y-127566372D01*
X158680839Y-128097093D01*
X159373405Y-128384672D01*
X160123305Y-128385326D01*
X160816372Y-128098957D01*
X161347093Y-127569161D01*
X161634672Y-126876595D01*
X161635326Y-126126695D01*
X161348957Y-125433628D01*
X160819161Y-124902907D01*
X160126595Y-124615328D01*
X159376695Y-124614674D01*
X158683628Y-124901043D01*
X158152907Y-125430839D01*
X157865328Y-126123405D01*
X157864674Y-126873305D01*
X156127000Y-126873305D01*
X156127000Y-112873305D01*
X157864674Y-112873305D01*
X158151043Y-113566372D01*
X158680839Y-114097093D01*
X159373405Y-114384672D01*
X160123305Y-114385326D01*
X160816372Y-114098957D01*
X161347093Y-113569161D01*
X161634672Y-112876595D01*
X161635326Y-112126695D01*
X161348957Y-111433628D01*
X160819161Y-110902907D01*
X160126595Y-110615328D01*
X159376695Y-110614674D01*
X158683628Y-110901043D01*
X158152907Y-111430839D01*
X157865328Y-112123405D01*
X157864674Y-112873305D01*
X156127000Y-112873305D01*
X156127000Y-99873305D01*
X157864674Y-99873305D01*
X158151043Y-100566372D01*
X158680839Y-101097093D01*
X159373405Y-101384672D01*
X160123305Y-101385326D01*
X160816372Y-101098957D01*
X161347093Y-100569161D01*
X161634672Y-99876595D01*
X161635326Y-99126695D01*
X161348957Y-98433628D01*
X160819161Y-97902907D01*
X160126595Y-97615328D01*
X159376695Y-97614674D01*
X158683628Y-97901043D01*
X158152907Y-98430839D01*
X157865328Y-99123405D01*
X157864674Y-99873305D01*
X156127000Y-99873305D01*
X156127000Y-86873305D01*
X157864674Y-86873305D01*
X158151043Y-87566372D01*
X158680839Y-88097093D01*
X159373405Y-88384672D01*
X160123305Y-88385326D01*
X160816372Y-88098957D01*
X161347093Y-87569161D01*
X161634672Y-86876595D01*
X161635326Y-86126695D01*
X161348957Y-85433628D01*
X160819161Y-84902907D01*
X160126595Y-84615328D01*
X159376695Y-84614674D01*
X158683628Y-84901043D01*
X158152907Y-85430839D01*
X157865328Y-86123405D01*
X157864674Y-86873305D01*
X156127000Y-86873305D01*
X156127000Y-70710000D01*
X163373000Y-70710000D01*
X163373000Y-129290000D01*
G36*
X133873000Y-129290000D02*
X126627000Y-129290000D01*
X126627000Y-126873305D01*
X128364674Y-126873305D01*
X128651043Y-127566372D01*
X129180839Y-128097093D01*
X129873405Y-128384672D01*
X130623305Y-128385326D01*
X131316372Y-128098957D01*
X131847093Y-127569161D01*
X132134672Y-126876595D01*
X132135326Y-126126695D01*
X131848957Y-125433628D01*
X131319161Y-124902907D01*
X130626595Y-124615328D01*
X129876695Y-124614674D01*
X129183628Y-124901043D01*
X128652907Y-125430839D01*
X128365328Y-126123405D01*
X128364674Y-126873305D01*
X126627000Y-126873305D01*
X126627000Y-112873305D01*
X128364674Y-112873305D01*
X128651043Y-113566372D01*
X129180839Y-114097093D01*
X129873405Y-114384672D01*
X130623305Y-114385326D01*
X131316372Y-114098957D01*
X131847093Y-113569161D01*
X132134672Y-112876595D01*
X132135326Y-112126695D01*
X131848957Y-111433628D01*
X131319161Y-110902907D01*
X130626595Y-110615328D01*
X129876695Y-110614674D01*
X129183628Y-110901043D01*
X128652907Y-111430839D01*
X128365328Y-112123405D01*
X128364674Y-112873305D01*
X126627000Y-112873305D01*
X126627000Y-99873305D01*
X128364674Y-99873305D01*
X128651043Y-100566372D01*
X129180839Y-101097093D01*
X129873405Y-101384672D01*
X130623305Y-101385326D01*
X131316372Y-101098957D01*
X131847093Y-100569161D01*
X132134672Y-99876595D01*
X132135326Y-99126695D01*
X131848957Y-98433628D01*
X131319161Y-97902907D01*
X130626595Y-97615328D01*
X129876695Y-97614674D01*
X129183628Y-97901043D01*
X128652907Y-98430839D01*
X128365328Y-99123405D01*
X128364674Y-99873305D01*
X126627000Y-99873305D01*
X126627000Y-86873305D01*
X128364674Y-86873305D01*
X128651043Y-87566372D01*
X129180839Y-88097093D01*
X129873405Y-88384672D01*
X130623305Y-88385326D01*
X131316372Y-88098957D01*
X131847093Y-87569161D01*
X132134672Y-86876595D01*
X132135326Y-86126695D01*
X131848957Y-85433628D01*
X131319161Y-84902907D01*
X130626595Y-84615328D01*
X129876695Y-84614674D01*
X129183628Y-84901043D01*
X128652907Y-85430839D01*
X128365328Y-86123405D01*
X128364674Y-86873305D01*
X126627000Y-86873305D01*
X126627000Y-70710000D01*
X133873000Y-70710000D01*
X133873000Y-129290000D01*
X133873000Y-129290000D01*
G37*
X133873000Y-129290000D02*
X126627000Y-129290000D01*
X126627000Y-126873305D01*
X128364674Y-126873305D01*
X128651043Y-127566372D01*
X129180839Y-128097093D01*
X129873405Y-128384672D01*
X130623305Y-128385326D01*
X131316372Y-128098957D01*
X131847093Y-127569161D01*
X132134672Y-126876595D01*
X132135326Y-126126695D01*
X131848957Y-125433628D01*
X131319161Y-124902907D01*
X130626595Y-124615328D01*
X129876695Y-124614674D01*
X129183628Y-124901043D01*
X128652907Y-125430839D01*
X128365328Y-126123405D01*
X128364674Y-126873305D01*
X126627000Y-126873305D01*
X126627000Y-112873305D01*
X128364674Y-112873305D01*
X128651043Y-113566372D01*
X129180839Y-114097093D01*
X129873405Y-114384672D01*
X130623305Y-114385326D01*
X131316372Y-114098957D01*
X131847093Y-113569161D01*
X132134672Y-112876595D01*
X132135326Y-112126695D01*
X131848957Y-111433628D01*
X131319161Y-110902907D01*
X130626595Y-110615328D01*
X129876695Y-110614674D01*
X129183628Y-110901043D01*
X128652907Y-111430839D01*
X128365328Y-112123405D01*
X128364674Y-112873305D01*
X126627000Y-112873305D01*
X126627000Y-99873305D01*
X128364674Y-99873305D01*
X128651043Y-100566372D01*
X129180839Y-101097093D01*
X129873405Y-101384672D01*
X130623305Y-101385326D01*
X131316372Y-101098957D01*
X131847093Y-100569161D01*
X132134672Y-99876595D01*
X132135326Y-99126695D01*
X131848957Y-98433628D01*
X131319161Y-97902907D01*
X130626595Y-97615328D01*
X129876695Y-97614674D01*
X129183628Y-97901043D01*
X128652907Y-98430839D01*
X128365328Y-99123405D01*
X128364674Y-99873305D01*
X126627000Y-99873305D01*
X126627000Y-86873305D01*
X128364674Y-86873305D01*
X128651043Y-87566372D01*
X129180839Y-88097093D01*
X129873405Y-88384672D01*
X130623305Y-88385326D01*
X131316372Y-88098957D01*
X131847093Y-87569161D01*
X132134672Y-86876595D01*
X132135326Y-86126695D01*
X131848957Y-85433628D01*
X131319161Y-84902907D01*
X130626595Y-84615328D01*
X129876695Y-84614674D01*
X129183628Y-84901043D01*
X128652907Y-85430839D01*
X128365328Y-86123405D01*
X128364674Y-86873305D01*
X126627000Y-86873305D01*
X126627000Y-70710000D01*
X133873000Y-70710000D01*
X133873000Y-129290000D01*
M02*
