G04 #@! TF.FileFunction,Legend,Bot*
%FSLAX46Y46*%
G04 Gerber Fmt 4.6, Leading zero omitted, Abs format (unit mm)*
G04 Created by KiCad (PCBNEW 4.0.4-stable) date 02/25/17 10:50:14*
%MOMM*%
%LPD*%
G01*
G04 APERTURE LIST*
%ADD10C,0.100000*%
%ADD11C,0.200000*%
G04 APERTURE END LIST*
D10*
D11*
X136047619Y-122750002D02*
X137047619Y-122750002D01*
X136047619Y-122321430D02*
X136571429Y-122321430D01*
X136666667Y-122369049D01*
X136714286Y-122464287D01*
X136714286Y-122607145D01*
X136666667Y-122702383D01*
X136619048Y-122750002D01*
X136714286Y-121988097D02*
X136714286Y-121607145D01*
X137047619Y-121845240D02*
X136190476Y-121845240D01*
X136095238Y-121797621D01*
X136047619Y-121702383D01*
X136047619Y-121607145D01*
X136714286Y-121416668D02*
X136714286Y-121035716D01*
X137047619Y-121273811D02*
X136190476Y-121273811D01*
X136095238Y-121226192D01*
X136047619Y-121130954D01*
X136047619Y-121035716D01*
X136714286Y-120702382D02*
X135714286Y-120702382D01*
X136666667Y-120702382D02*
X136714286Y-120607144D01*
X136714286Y-120416667D01*
X136666667Y-120321429D01*
X136619048Y-120273810D01*
X136523810Y-120226191D01*
X136238095Y-120226191D01*
X136142857Y-120273810D01*
X136095238Y-120321429D01*
X136047619Y-120416667D01*
X136047619Y-120607144D01*
X136095238Y-120702382D01*
X136095238Y-119845239D02*
X136047619Y-119750001D01*
X136047619Y-119559525D01*
X136095238Y-119464286D01*
X136190476Y-119416667D01*
X136238095Y-119416667D01*
X136333333Y-119464286D01*
X136380952Y-119559525D01*
X136380952Y-119702382D01*
X136428571Y-119797620D01*
X136523810Y-119845239D01*
X136571429Y-119845239D01*
X136666667Y-119797620D01*
X136714286Y-119702382D01*
X136714286Y-119559525D01*
X136666667Y-119464286D01*
X136142857Y-118988096D02*
X136095238Y-118940477D01*
X136047619Y-118988096D01*
X136095238Y-119035715D01*
X136142857Y-118988096D01*
X136047619Y-118988096D01*
X136666667Y-118988096D02*
X136619048Y-118940477D01*
X136571429Y-118988096D01*
X136619048Y-119035715D01*
X136666667Y-118988096D01*
X136571429Y-118988096D01*
X137095238Y-117797620D02*
X135809524Y-118654763D01*
X137095238Y-116750001D02*
X135809524Y-117607144D01*
X136714286Y-115988096D02*
X135904762Y-115988096D01*
X135809524Y-116035715D01*
X135761905Y-116083334D01*
X135714286Y-116178573D01*
X135714286Y-116321430D01*
X135761905Y-116416668D01*
X136095238Y-115988096D02*
X136047619Y-116083334D01*
X136047619Y-116273811D01*
X136095238Y-116369049D01*
X136142857Y-116416668D01*
X136238095Y-116464287D01*
X136523810Y-116464287D01*
X136619048Y-116416668D01*
X136666667Y-116369049D01*
X136714286Y-116273811D01*
X136714286Y-116083334D01*
X136666667Y-115988096D01*
X136047619Y-115511906D02*
X136714286Y-115511906D01*
X137047619Y-115511906D02*
X137000000Y-115559525D01*
X136952381Y-115511906D01*
X137000000Y-115464287D01*
X137047619Y-115511906D01*
X136952381Y-115511906D01*
X136714286Y-115178573D02*
X136714286Y-114797621D01*
X137047619Y-115035716D02*
X136190476Y-115035716D01*
X136095238Y-114988097D01*
X136047619Y-114892859D01*
X136047619Y-114797621D01*
X136047619Y-114464287D02*
X137047619Y-114464287D01*
X136047619Y-114035715D02*
X136571429Y-114035715D01*
X136666667Y-114083334D01*
X136714286Y-114178572D01*
X136714286Y-114321430D01*
X136666667Y-114416668D01*
X136619048Y-114464287D01*
X136714286Y-113130953D02*
X136047619Y-113130953D01*
X136714286Y-113559525D02*
X136190476Y-113559525D01*
X136095238Y-113511906D01*
X136047619Y-113416668D01*
X136047619Y-113273810D01*
X136095238Y-113178572D01*
X136142857Y-113130953D01*
X136047619Y-112654763D02*
X137047619Y-112654763D01*
X136666667Y-112654763D02*
X136714286Y-112559525D01*
X136714286Y-112369048D01*
X136666667Y-112273810D01*
X136619048Y-112226191D01*
X136523810Y-112178572D01*
X136238095Y-112178572D01*
X136142857Y-112226191D01*
X136095238Y-112273810D01*
X136047619Y-112369048D01*
X136047619Y-112559525D01*
X136095238Y-112654763D01*
X136142857Y-111750001D02*
X136095238Y-111702382D01*
X136047619Y-111750001D01*
X136095238Y-111797620D01*
X136142857Y-111750001D01*
X136047619Y-111750001D01*
X136095238Y-110845239D02*
X136047619Y-110940477D01*
X136047619Y-111130954D01*
X136095238Y-111226192D01*
X136142857Y-111273811D01*
X136238095Y-111321430D01*
X136523810Y-111321430D01*
X136619048Y-111273811D01*
X136666667Y-111226192D01*
X136714286Y-111130954D01*
X136714286Y-110940477D01*
X136666667Y-110845239D01*
X136047619Y-110273811D02*
X136095238Y-110369049D01*
X136142857Y-110416668D01*
X136238095Y-110464287D01*
X136523810Y-110464287D01*
X136619048Y-110416668D01*
X136666667Y-110369049D01*
X136714286Y-110273811D01*
X136714286Y-110130953D01*
X136666667Y-110035715D01*
X136619048Y-109988096D01*
X136523810Y-109940477D01*
X136238095Y-109940477D01*
X136142857Y-109988096D01*
X136095238Y-110035715D01*
X136047619Y-110130953D01*
X136047619Y-110273811D01*
X136047619Y-109511906D02*
X136714286Y-109511906D01*
X136619048Y-109511906D02*
X136666667Y-109464287D01*
X136714286Y-109369049D01*
X136714286Y-109226191D01*
X136666667Y-109130953D01*
X136571429Y-109083334D01*
X136047619Y-109083334D01*
X136571429Y-109083334D02*
X136666667Y-109035715D01*
X136714286Y-108940477D01*
X136714286Y-108797620D01*
X136666667Y-108702382D01*
X136571429Y-108654763D01*
X136047619Y-108654763D01*
X137095238Y-107464287D02*
X135809524Y-108321430D01*
X136047619Y-107130954D02*
X137047619Y-107130954D01*
X136047619Y-106559525D02*
X136619048Y-106988097D01*
X137047619Y-106559525D02*
X136476190Y-107130954D01*
X136047619Y-105702382D02*
X136571429Y-105702382D01*
X136666667Y-105750001D01*
X136714286Y-105845239D01*
X136714286Y-106035716D01*
X136666667Y-106130954D01*
X136095238Y-105702382D02*
X136047619Y-105797620D01*
X136047619Y-106035716D01*
X136095238Y-106130954D01*
X136190476Y-106178573D01*
X136285714Y-106178573D01*
X136380952Y-106130954D01*
X136428571Y-106035716D01*
X136428571Y-105797620D01*
X136476190Y-105702382D01*
X136095238Y-104845239D02*
X136047619Y-104940477D01*
X136047619Y-105130954D01*
X136095238Y-105226192D01*
X136190476Y-105273811D01*
X136571429Y-105273811D01*
X136666667Y-105226192D01*
X136714286Y-105130954D01*
X136714286Y-104940477D01*
X136666667Y-104845239D01*
X136571429Y-104797620D01*
X136476190Y-104797620D01*
X136380952Y-105273811D01*
X136714286Y-104369049D02*
X135714286Y-104369049D01*
X136666667Y-104369049D02*
X136714286Y-104273811D01*
X136714286Y-104083334D01*
X136666667Y-103988096D01*
X136619048Y-103940477D01*
X136523810Y-103892858D01*
X136238095Y-103892858D01*
X136142857Y-103940477D01*
X136095238Y-103988096D01*
X136047619Y-104083334D01*
X136047619Y-104273811D01*
X136095238Y-104369049D01*
X136714286Y-103607144D02*
X136714286Y-103226192D01*
X137047619Y-103464287D02*
X136190476Y-103464287D01*
X136095238Y-103416668D01*
X136047619Y-103321430D01*
X136047619Y-103226192D01*
X136714286Y-102892858D02*
X136047619Y-102892858D01*
X136619048Y-102892858D02*
X136666667Y-102845239D01*
X136714286Y-102750001D01*
X136714286Y-102607143D01*
X136666667Y-102511905D01*
X136571429Y-102464286D01*
X136047619Y-102464286D01*
X136571429Y-101654762D02*
X136523810Y-101511905D01*
X136476190Y-101464286D01*
X136380952Y-101416667D01*
X136238095Y-101416667D01*
X136142857Y-101464286D01*
X136095238Y-101511905D01*
X136047619Y-101607143D01*
X136047619Y-101988096D01*
X137047619Y-101988096D01*
X137047619Y-101654762D01*
X137000000Y-101559524D01*
X136952381Y-101511905D01*
X136857143Y-101464286D01*
X136761905Y-101464286D01*
X136666667Y-101511905D01*
X136619048Y-101559524D01*
X136571429Y-101654762D01*
X136571429Y-101988096D01*
X136047619Y-100559524D02*
X136571429Y-100559524D01*
X136666667Y-100607143D01*
X136714286Y-100702381D01*
X136714286Y-100892858D01*
X136666667Y-100988096D01*
X136095238Y-100559524D02*
X136047619Y-100654762D01*
X136047619Y-100892858D01*
X136095238Y-100988096D01*
X136190476Y-101035715D01*
X136285714Y-101035715D01*
X136380952Y-100988096D01*
X136428571Y-100892858D01*
X136428571Y-100654762D01*
X136476190Y-100559524D01*
X136047619Y-99940477D02*
X136095238Y-100035715D01*
X136190476Y-100083334D01*
X137047619Y-100083334D01*
X136714286Y-99130952D02*
X136047619Y-99130952D01*
X136714286Y-99559524D02*
X136190476Y-99559524D01*
X136095238Y-99511905D01*
X136047619Y-99416667D01*
X136047619Y-99273809D01*
X136095238Y-99178571D01*
X136142857Y-99130952D01*
X137095238Y-97940476D02*
X135809524Y-98797619D01*
X136333333Y-97654762D02*
X136333333Y-97178571D01*
X136047619Y-97750000D02*
X137047619Y-97416667D01*
X136047619Y-97083333D01*
X136047619Y-96750000D02*
X136714286Y-96750000D01*
X136523810Y-96750000D02*
X136619048Y-96702381D01*
X136666667Y-96654762D01*
X136714286Y-96559524D01*
X136714286Y-96464285D01*
X136047619Y-95702380D02*
X137047619Y-95702380D01*
X136095238Y-95702380D02*
X136047619Y-95797618D01*
X136047619Y-95988095D01*
X136095238Y-96083333D01*
X136142857Y-96130952D01*
X136238095Y-96178571D01*
X136523810Y-96178571D01*
X136619048Y-96130952D01*
X136666667Y-96083333D01*
X136714286Y-95988095D01*
X136714286Y-95797618D01*
X136666667Y-95702380D01*
X136714286Y-94797618D02*
X136047619Y-94797618D01*
X136714286Y-95226190D02*
X136190476Y-95226190D01*
X136095238Y-95178571D01*
X136047619Y-95083333D01*
X136047619Y-94940475D01*
X136095238Y-94845237D01*
X136142857Y-94797618D01*
X136047619Y-94321428D02*
X136714286Y-94321428D01*
X137047619Y-94321428D02*
X137000000Y-94369047D01*
X136952381Y-94321428D01*
X137000000Y-94273809D01*
X137047619Y-94321428D01*
X136952381Y-94321428D01*
X136714286Y-93845238D02*
X136047619Y-93845238D01*
X136619048Y-93845238D02*
X136666667Y-93797619D01*
X136714286Y-93702381D01*
X136714286Y-93559523D01*
X136666667Y-93464285D01*
X136571429Y-93416666D01*
X136047619Y-93416666D01*
X136047619Y-92797619D02*
X136095238Y-92892857D01*
X136142857Y-92940476D01*
X136238095Y-92988095D01*
X136523810Y-92988095D01*
X136619048Y-92940476D01*
X136666667Y-92892857D01*
X136714286Y-92797619D01*
X136714286Y-92654761D01*
X136666667Y-92559523D01*
X136619048Y-92511904D01*
X136523810Y-92464285D01*
X136238095Y-92464285D01*
X136142857Y-92511904D01*
X136095238Y-92559523D01*
X136047619Y-92654761D01*
X136047619Y-92797619D01*
X135952381Y-92273809D02*
X135952381Y-91511904D01*
X136095238Y-91321428D02*
X136047619Y-91178571D01*
X136047619Y-90940475D01*
X136095238Y-90845237D01*
X136142857Y-90797618D01*
X136238095Y-90749999D01*
X136333333Y-90749999D01*
X136428571Y-90797618D01*
X136476190Y-90845237D01*
X136523810Y-90940475D01*
X136571429Y-91130952D01*
X136619048Y-91226190D01*
X136666667Y-91273809D01*
X136761905Y-91321428D01*
X136857143Y-91321428D01*
X136952381Y-91273809D01*
X137000000Y-91226190D01*
X137047619Y-91130952D01*
X137047619Y-90892856D01*
X137000000Y-90749999D01*
X136714286Y-90321428D02*
X135714286Y-90321428D01*
X136666667Y-90321428D02*
X136714286Y-90226190D01*
X136714286Y-90035713D01*
X136666667Y-89940475D01*
X136619048Y-89892856D01*
X136523810Y-89845237D01*
X136238095Y-89845237D01*
X136142857Y-89892856D01*
X136095238Y-89940475D01*
X136047619Y-90035713D01*
X136047619Y-90226190D01*
X136095238Y-90321428D01*
X136047619Y-89273809D02*
X136095238Y-89369047D01*
X136142857Y-89416666D01*
X136238095Y-89464285D01*
X136523810Y-89464285D01*
X136619048Y-89416666D01*
X136666667Y-89369047D01*
X136714286Y-89273809D01*
X136714286Y-89130951D01*
X136666667Y-89035713D01*
X136619048Y-88988094D01*
X136523810Y-88940475D01*
X136238095Y-88940475D01*
X136142857Y-88988094D01*
X136095238Y-89035713D01*
X136047619Y-89130951D01*
X136047619Y-89273809D01*
X136714286Y-88654761D02*
X136714286Y-88273809D01*
X137047619Y-88511904D02*
X136190476Y-88511904D01*
X136095238Y-88464285D01*
X136047619Y-88369047D01*
X136047619Y-88273809D01*
X135952381Y-88178570D02*
X135952381Y-87416665D01*
X137047619Y-87273808D02*
X136047619Y-87035713D01*
X136761905Y-86845236D01*
X136047619Y-86654760D01*
X137047619Y-86416665D01*
X136095238Y-85654760D02*
X136047619Y-85749998D01*
X136047619Y-85940475D01*
X136095238Y-86035713D01*
X136190476Y-86083332D01*
X136571429Y-86083332D01*
X136666667Y-86035713D01*
X136714286Y-85940475D01*
X136714286Y-85749998D01*
X136666667Y-85654760D01*
X136571429Y-85607141D01*
X136476190Y-85607141D01*
X136380952Y-86083332D01*
X136047619Y-85035713D02*
X136095238Y-85130951D01*
X136190476Y-85178570D01*
X137047619Y-85178570D01*
X136047619Y-84226188D02*
X137047619Y-84226188D01*
X136095238Y-84226188D02*
X136047619Y-84321426D01*
X136047619Y-84511903D01*
X136095238Y-84607141D01*
X136142857Y-84654760D01*
X136238095Y-84702379D01*
X136523810Y-84702379D01*
X136619048Y-84654760D01*
X136666667Y-84607141D01*
X136714286Y-84511903D01*
X136714286Y-84321426D01*
X136666667Y-84226188D01*
X136095238Y-83369045D02*
X136047619Y-83464283D01*
X136047619Y-83654760D01*
X136095238Y-83749998D01*
X136190476Y-83797617D01*
X136571429Y-83797617D01*
X136666667Y-83749998D01*
X136714286Y-83654760D01*
X136714286Y-83464283D01*
X136666667Y-83369045D01*
X136571429Y-83321426D01*
X136476190Y-83321426D01*
X136380952Y-83797617D01*
X136047619Y-82892855D02*
X136714286Y-82892855D01*
X136523810Y-82892855D02*
X136619048Y-82845236D01*
X136666667Y-82797617D01*
X136714286Y-82702379D01*
X136714286Y-82607140D01*
X154683333Y-123000002D02*
X154683333Y-122523811D01*
X154397619Y-123095240D02*
X155397619Y-122761907D01*
X154397619Y-122428573D01*
X154397619Y-122095240D02*
X155064286Y-122095240D01*
X154873810Y-122095240D02*
X154969048Y-122047621D01*
X155016667Y-122000002D01*
X155064286Y-121904764D01*
X155064286Y-121809525D01*
X154397619Y-121047620D02*
X155397619Y-121047620D01*
X154445238Y-121047620D02*
X154397619Y-121142858D01*
X154397619Y-121333335D01*
X154445238Y-121428573D01*
X154492857Y-121476192D01*
X154588095Y-121523811D01*
X154873810Y-121523811D01*
X154969048Y-121476192D01*
X155016667Y-121428573D01*
X155064286Y-121333335D01*
X155064286Y-121142858D01*
X155016667Y-121047620D01*
X155064286Y-120142858D02*
X154397619Y-120142858D01*
X155064286Y-120571430D02*
X154540476Y-120571430D01*
X154445238Y-120523811D01*
X154397619Y-120428573D01*
X154397619Y-120285715D01*
X154445238Y-120190477D01*
X154492857Y-120142858D01*
X154397619Y-119666668D02*
X155064286Y-119666668D01*
X155397619Y-119666668D02*
X155350000Y-119714287D01*
X155302381Y-119666668D01*
X155350000Y-119619049D01*
X155397619Y-119666668D01*
X155302381Y-119666668D01*
X155064286Y-119190478D02*
X154397619Y-119190478D01*
X154969048Y-119190478D02*
X155016667Y-119142859D01*
X155064286Y-119047621D01*
X155064286Y-118904763D01*
X155016667Y-118809525D01*
X154921429Y-118761906D01*
X154397619Y-118761906D01*
X154397619Y-118142859D02*
X154445238Y-118238097D01*
X154492857Y-118285716D01*
X154588095Y-118333335D01*
X154873810Y-118333335D01*
X154969048Y-118285716D01*
X155016667Y-118238097D01*
X155064286Y-118142859D01*
X155064286Y-118000001D01*
X155016667Y-117904763D01*
X154969048Y-117857144D01*
X154873810Y-117809525D01*
X154588095Y-117809525D01*
X154492857Y-117857144D01*
X154445238Y-117904763D01*
X154397619Y-118000001D01*
X154397619Y-118142859D01*
X154921429Y-116285715D02*
X154873810Y-116142858D01*
X154826190Y-116095239D01*
X154730952Y-116047620D01*
X154588095Y-116047620D01*
X154492857Y-116095239D01*
X154445238Y-116142858D01*
X154397619Y-116238096D01*
X154397619Y-116619049D01*
X155397619Y-116619049D01*
X155397619Y-116285715D01*
X155350000Y-116190477D01*
X155302381Y-116142858D01*
X155207143Y-116095239D01*
X155111905Y-116095239D01*
X155016667Y-116142858D01*
X154969048Y-116190477D01*
X154921429Y-116285715D01*
X154921429Y-116619049D01*
X154397619Y-115190477D02*
X154921429Y-115190477D01*
X155016667Y-115238096D01*
X155064286Y-115333334D01*
X155064286Y-115523811D01*
X155016667Y-115619049D01*
X154445238Y-115190477D02*
X154397619Y-115285715D01*
X154397619Y-115523811D01*
X154445238Y-115619049D01*
X154540476Y-115666668D01*
X154635714Y-115666668D01*
X154730952Y-115619049D01*
X154778571Y-115523811D01*
X154778571Y-115285715D01*
X154826190Y-115190477D01*
X155064286Y-114857144D02*
X155064286Y-114476192D01*
X155397619Y-114714287D02*
X154540476Y-114714287D01*
X154445238Y-114666668D01*
X154397619Y-114571430D01*
X154397619Y-114476192D01*
X155064286Y-114285715D02*
X155064286Y-113904763D01*
X155397619Y-114142858D02*
X154540476Y-114142858D01*
X154445238Y-114095239D01*
X154397619Y-114000001D01*
X154397619Y-113904763D01*
X154445238Y-113190476D02*
X154397619Y-113285714D01*
X154397619Y-113476191D01*
X154445238Y-113571429D01*
X154540476Y-113619048D01*
X154921429Y-113619048D01*
X155016667Y-113571429D01*
X155064286Y-113476191D01*
X155064286Y-113285714D01*
X155016667Y-113190476D01*
X154921429Y-113142857D01*
X154826190Y-113142857D01*
X154730952Y-113619048D01*
X154397619Y-112714286D02*
X155064286Y-112714286D01*
X154873810Y-112714286D02*
X154969048Y-112666667D01*
X155016667Y-112619048D01*
X155064286Y-112523810D01*
X155064286Y-112428571D01*
X155064286Y-112190476D02*
X154397619Y-111952381D01*
X155064286Y-111714285D02*
X154397619Y-111952381D01*
X154159524Y-112047619D01*
X154111905Y-112095238D01*
X154064286Y-112190476D01*
X154445238Y-110619047D02*
X154397619Y-110476190D01*
X154397619Y-110238094D01*
X154445238Y-110142856D01*
X154492857Y-110095237D01*
X154588095Y-110047618D01*
X154683333Y-110047618D01*
X154778571Y-110095237D01*
X154826190Y-110142856D01*
X154873810Y-110238094D01*
X154921429Y-110428571D01*
X154969048Y-110523809D01*
X155016667Y-110571428D01*
X155111905Y-110619047D01*
X155207143Y-110619047D01*
X155302381Y-110571428D01*
X155350000Y-110523809D01*
X155397619Y-110428571D01*
X155397619Y-110190475D01*
X155350000Y-110047618D01*
X155064286Y-109619047D02*
X154064286Y-109619047D01*
X155016667Y-109619047D02*
X155064286Y-109523809D01*
X155064286Y-109333332D01*
X155016667Y-109238094D01*
X154969048Y-109190475D01*
X154873810Y-109142856D01*
X154588095Y-109142856D01*
X154492857Y-109190475D01*
X154445238Y-109238094D01*
X154397619Y-109333332D01*
X154397619Y-109523809D01*
X154445238Y-109619047D01*
X154397619Y-108571428D02*
X154445238Y-108666666D01*
X154492857Y-108714285D01*
X154588095Y-108761904D01*
X154873810Y-108761904D01*
X154969048Y-108714285D01*
X155016667Y-108666666D01*
X155064286Y-108571428D01*
X155064286Y-108428570D01*
X155016667Y-108333332D01*
X154969048Y-108285713D01*
X154873810Y-108238094D01*
X154588095Y-108238094D01*
X154492857Y-108285713D01*
X154445238Y-108333332D01*
X154397619Y-108428570D01*
X154397619Y-108571428D01*
X155064286Y-107952380D02*
X155064286Y-107571428D01*
X155397619Y-107809523D02*
X154540476Y-107809523D01*
X154445238Y-107761904D01*
X154397619Y-107666666D01*
X154397619Y-107571428D01*
X155397619Y-106571427D02*
X154397619Y-106333332D01*
X155111905Y-106142855D01*
X154397619Y-105952379D01*
X155397619Y-105714284D01*
X154445238Y-104952379D02*
X154397619Y-105047617D01*
X154397619Y-105238094D01*
X154445238Y-105333332D01*
X154540476Y-105380951D01*
X154921429Y-105380951D01*
X155016667Y-105333332D01*
X155064286Y-105238094D01*
X155064286Y-105047617D01*
X155016667Y-104952379D01*
X154921429Y-104904760D01*
X154826190Y-104904760D01*
X154730952Y-105380951D01*
X154397619Y-104333332D02*
X154445238Y-104428570D01*
X154540476Y-104476189D01*
X155397619Y-104476189D01*
X154397619Y-103523807D02*
X155397619Y-103523807D01*
X154445238Y-103523807D02*
X154397619Y-103619045D01*
X154397619Y-103809522D01*
X154445238Y-103904760D01*
X154492857Y-103952379D01*
X154588095Y-103999998D01*
X154873810Y-103999998D01*
X154969048Y-103952379D01*
X155016667Y-103904760D01*
X155064286Y-103809522D01*
X155064286Y-103619045D01*
X155016667Y-103523807D01*
X154445238Y-102666664D02*
X154397619Y-102761902D01*
X154397619Y-102952379D01*
X154445238Y-103047617D01*
X154540476Y-103095236D01*
X154921429Y-103095236D01*
X155016667Y-103047617D01*
X155064286Y-102952379D01*
X155064286Y-102761902D01*
X155016667Y-102666664D01*
X154921429Y-102619045D01*
X154826190Y-102619045D01*
X154730952Y-103095236D01*
X154397619Y-102190474D02*
X155064286Y-102190474D01*
X154873810Y-102190474D02*
X154969048Y-102142855D01*
X155016667Y-102095236D01*
X155064286Y-101999998D01*
X155064286Y-101904759D01*
X152697619Y-118095239D02*
X153697619Y-118095239D01*
X153316667Y-118095239D02*
X153364286Y-118000001D01*
X153364286Y-117809524D01*
X153316667Y-117714286D01*
X153269048Y-117666667D01*
X153173810Y-117619048D01*
X152888095Y-117619048D01*
X152792857Y-117666667D01*
X152745238Y-117714286D01*
X152697619Y-117809524D01*
X152697619Y-118000001D01*
X152745238Y-118095239D01*
X153364286Y-117285715D02*
X152697619Y-117047620D01*
X153364286Y-116809524D02*
X152697619Y-117047620D01*
X152459524Y-117142858D01*
X152411905Y-117190477D01*
X152364286Y-117285715D01*
X152697619Y-115666667D02*
X153697619Y-115666667D01*
X152697619Y-115095238D02*
X153269048Y-115523810D01*
X153697619Y-115095238D02*
X153126190Y-115666667D01*
X152697619Y-114238095D02*
X153221429Y-114238095D01*
X153316667Y-114285714D01*
X153364286Y-114380952D01*
X153364286Y-114571429D01*
X153316667Y-114666667D01*
X152745238Y-114238095D02*
X152697619Y-114333333D01*
X152697619Y-114571429D01*
X152745238Y-114666667D01*
X152840476Y-114714286D01*
X152935714Y-114714286D01*
X153030952Y-114666667D01*
X153078571Y-114571429D01*
X153078571Y-114333333D01*
X153126190Y-114238095D01*
X152745238Y-113380952D02*
X152697619Y-113476190D01*
X152697619Y-113666667D01*
X152745238Y-113761905D01*
X152840476Y-113809524D01*
X153221429Y-113809524D01*
X153316667Y-113761905D01*
X153364286Y-113666667D01*
X153364286Y-113476190D01*
X153316667Y-113380952D01*
X153221429Y-113333333D01*
X153126190Y-113333333D01*
X153030952Y-113809524D01*
X153364286Y-112904762D02*
X152364286Y-112904762D01*
X153316667Y-112904762D02*
X153364286Y-112809524D01*
X153364286Y-112619047D01*
X153316667Y-112523809D01*
X153269048Y-112476190D01*
X153173810Y-112428571D01*
X152888095Y-112428571D01*
X152792857Y-112476190D01*
X152745238Y-112523809D01*
X152697619Y-112619047D01*
X152697619Y-112809524D01*
X152745238Y-112904762D01*
X153364286Y-112142857D02*
X153364286Y-111761905D01*
X153697619Y-112000000D02*
X152840476Y-112000000D01*
X152745238Y-111952381D01*
X152697619Y-111857143D01*
X152697619Y-111761905D01*
X153364286Y-111428571D02*
X152697619Y-111428571D01*
X153269048Y-111428571D02*
X153316667Y-111380952D01*
X153364286Y-111285714D01*
X153364286Y-111142856D01*
X153316667Y-111047618D01*
X153221429Y-110999999D01*
X152697619Y-110999999D01*
X153221429Y-109428570D02*
X153173810Y-109285713D01*
X153126190Y-109238094D01*
X153030952Y-109190475D01*
X152888095Y-109190475D01*
X152792857Y-109238094D01*
X152745238Y-109285713D01*
X152697619Y-109380951D01*
X152697619Y-109761904D01*
X153697619Y-109761904D01*
X153697619Y-109428570D01*
X153650000Y-109333332D01*
X153602381Y-109285713D01*
X153507143Y-109238094D01*
X153411905Y-109238094D01*
X153316667Y-109285713D01*
X153269048Y-109333332D01*
X153221429Y-109428570D01*
X153221429Y-109761904D01*
X152697619Y-108333332D02*
X153221429Y-108333332D01*
X153316667Y-108380951D01*
X153364286Y-108476189D01*
X153364286Y-108666666D01*
X153316667Y-108761904D01*
X152745238Y-108333332D02*
X152697619Y-108428570D01*
X152697619Y-108666666D01*
X152745238Y-108761904D01*
X152840476Y-108809523D01*
X152935714Y-108809523D01*
X153030952Y-108761904D01*
X153078571Y-108666666D01*
X153078571Y-108428570D01*
X153126190Y-108333332D01*
X152697619Y-107714285D02*
X152745238Y-107809523D01*
X152840476Y-107857142D01*
X153697619Y-107857142D01*
X153364286Y-106904760D02*
X152697619Y-106904760D01*
X153364286Y-107333332D02*
X152840476Y-107333332D01*
X152745238Y-107285713D01*
X152697619Y-107190475D01*
X152697619Y-107047617D01*
X152745238Y-106952379D01*
X152792857Y-106904760D01*
X114500002Y-89452381D02*
X114500002Y-88452381D01*
X114071430Y-89452381D02*
X114071430Y-88928571D01*
X114119049Y-88833333D01*
X114214287Y-88785714D01*
X114357145Y-88785714D01*
X114452383Y-88833333D01*
X114500002Y-88880952D01*
X113738097Y-88785714D02*
X113357145Y-88785714D01*
X113595240Y-88452381D02*
X113595240Y-89309524D01*
X113547621Y-89404762D01*
X113452383Y-89452381D01*
X113357145Y-89452381D01*
X113166668Y-88785714D02*
X112785716Y-88785714D01*
X113023811Y-88452381D02*
X113023811Y-89309524D01*
X112976192Y-89404762D01*
X112880954Y-89452381D01*
X112785716Y-89452381D01*
X112452382Y-88785714D02*
X112452382Y-89785714D01*
X112452382Y-88833333D02*
X112357144Y-88785714D01*
X112166667Y-88785714D01*
X112071429Y-88833333D01*
X112023810Y-88880952D01*
X111976191Y-88976190D01*
X111976191Y-89261905D01*
X112023810Y-89357143D01*
X112071429Y-89404762D01*
X112166667Y-89452381D01*
X112357144Y-89452381D01*
X112452382Y-89404762D01*
X111595239Y-89404762D02*
X111500001Y-89452381D01*
X111309525Y-89452381D01*
X111214286Y-89404762D01*
X111166667Y-89309524D01*
X111166667Y-89261905D01*
X111214286Y-89166667D01*
X111309525Y-89119048D01*
X111452382Y-89119048D01*
X111547620Y-89071429D01*
X111595239Y-88976190D01*
X111595239Y-88928571D01*
X111547620Y-88833333D01*
X111452382Y-88785714D01*
X111309525Y-88785714D01*
X111214286Y-88833333D01*
X110738096Y-89357143D02*
X110690477Y-89404762D01*
X110738096Y-89452381D01*
X110785715Y-89404762D01*
X110738096Y-89357143D01*
X110738096Y-89452381D01*
X110738096Y-88833333D02*
X110690477Y-88880952D01*
X110738096Y-88928571D01*
X110785715Y-88880952D01*
X110738096Y-88833333D01*
X110738096Y-88928571D01*
X109547620Y-88404762D02*
X110404763Y-89690476D01*
X108500001Y-88404762D02*
X109357144Y-89690476D01*
X107738096Y-88785714D02*
X107738096Y-89595238D01*
X107785715Y-89690476D01*
X107833334Y-89738095D01*
X107928573Y-89785714D01*
X108071430Y-89785714D01*
X108166668Y-89738095D01*
X107738096Y-89404762D02*
X107833334Y-89452381D01*
X108023811Y-89452381D01*
X108119049Y-89404762D01*
X108166668Y-89357143D01*
X108214287Y-89261905D01*
X108214287Y-88976190D01*
X108166668Y-88880952D01*
X108119049Y-88833333D01*
X108023811Y-88785714D01*
X107833334Y-88785714D01*
X107738096Y-88833333D01*
X107261906Y-89452381D02*
X107261906Y-88785714D01*
X107261906Y-88452381D02*
X107309525Y-88500000D01*
X107261906Y-88547619D01*
X107214287Y-88500000D01*
X107261906Y-88452381D01*
X107261906Y-88547619D01*
X106928573Y-88785714D02*
X106547621Y-88785714D01*
X106785716Y-88452381D02*
X106785716Y-89309524D01*
X106738097Y-89404762D01*
X106642859Y-89452381D01*
X106547621Y-89452381D01*
X106214287Y-89452381D02*
X106214287Y-88452381D01*
X105785715Y-89452381D02*
X105785715Y-88928571D01*
X105833334Y-88833333D01*
X105928572Y-88785714D01*
X106071430Y-88785714D01*
X106166668Y-88833333D01*
X106214287Y-88880952D01*
X104880953Y-88785714D02*
X104880953Y-89452381D01*
X105309525Y-88785714D02*
X105309525Y-89309524D01*
X105261906Y-89404762D01*
X105166668Y-89452381D01*
X105023810Y-89452381D01*
X104928572Y-89404762D01*
X104880953Y-89357143D01*
X104404763Y-89452381D02*
X104404763Y-88452381D01*
X104404763Y-88833333D02*
X104309525Y-88785714D01*
X104119048Y-88785714D01*
X104023810Y-88833333D01*
X103976191Y-88880952D01*
X103928572Y-88976190D01*
X103928572Y-89261905D01*
X103976191Y-89357143D01*
X104023810Y-89404762D01*
X104119048Y-89452381D01*
X104309525Y-89452381D01*
X104404763Y-89404762D01*
X103500001Y-89357143D02*
X103452382Y-89404762D01*
X103500001Y-89452381D01*
X103547620Y-89404762D01*
X103500001Y-89357143D01*
X103500001Y-89452381D01*
X102595239Y-89404762D02*
X102690477Y-89452381D01*
X102880954Y-89452381D01*
X102976192Y-89404762D01*
X103023811Y-89357143D01*
X103071430Y-89261905D01*
X103071430Y-88976190D01*
X103023811Y-88880952D01*
X102976192Y-88833333D01*
X102880954Y-88785714D01*
X102690477Y-88785714D01*
X102595239Y-88833333D01*
X102023811Y-89452381D02*
X102119049Y-89404762D01*
X102166668Y-89357143D01*
X102214287Y-89261905D01*
X102214287Y-88976190D01*
X102166668Y-88880952D01*
X102119049Y-88833333D01*
X102023811Y-88785714D01*
X101880953Y-88785714D01*
X101785715Y-88833333D01*
X101738096Y-88880952D01*
X101690477Y-88976190D01*
X101690477Y-89261905D01*
X101738096Y-89357143D01*
X101785715Y-89404762D01*
X101880953Y-89452381D01*
X102023811Y-89452381D01*
X101261906Y-89452381D02*
X101261906Y-88785714D01*
X101261906Y-88880952D02*
X101214287Y-88833333D01*
X101119049Y-88785714D01*
X100976191Y-88785714D01*
X100880953Y-88833333D01*
X100833334Y-88928571D01*
X100833334Y-89452381D01*
X100833334Y-88928571D02*
X100785715Y-88833333D01*
X100690477Y-88785714D01*
X100547620Y-88785714D01*
X100452382Y-88833333D01*
X100404763Y-88928571D01*
X100404763Y-89452381D01*
X99214287Y-88404762D02*
X100071430Y-89690476D01*
X98880954Y-89452381D02*
X98880954Y-88452381D01*
X98309525Y-89452381D02*
X98738097Y-88880952D01*
X98309525Y-88452381D02*
X98880954Y-89023810D01*
X97452382Y-89452381D02*
X97452382Y-88928571D01*
X97500001Y-88833333D01*
X97595239Y-88785714D01*
X97785716Y-88785714D01*
X97880954Y-88833333D01*
X97452382Y-89404762D02*
X97547620Y-89452381D01*
X97785716Y-89452381D01*
X97880954Y-89404762D01*
X97928573Y-89309524D01*
X97928573Y-89214286D01*
X97880954Y-89119048D01*
X97785716Y-89071429D01*
X97547620Y-89071429D01*
X97452382Y-89023810D01*
X96595239Y-89404762D02*
X96690477Y-89452381D01*
X96880954Y-89452381D01*
X96976192Y-89404762D01*
X97023811Y-89309524D01*
X97023811Y-88928571D01*
X96976192Y-88833333D01*
X96880954Y-88785714D01*
X96690477Y-88785714D01*
X96595239Y-88833333D01*
X96547620Y-88928571D01*
X96547620Y-89023810D01*
X97023811Y-89119048D01*
X96119049Y-88785714D02*
X96119049Y-89785714D01*
X96119049Y-88833333D02*
X96023811Y-88785714D01*
X95833334Y-88785714D01*
X95738096Y-88833333D01*
X95690477Y-88880952D01*
X95642858Y-88976190D01*
X95642858Y-89261905D01*
X95690477Y-89357143D01*
X95738096Y-89404762D01*
X95833334Y-89452381D01*
X96023811Y-89452381D01*
X96119049Y-89404762D01*
X95357144Y-88785714D02*
X94976192Y-88785714D01*
X95214287Y-88452381D02*
X95214287Y-89309524D01*
X95166668Y-89404762D01*
X95071430Y-89452381D01*
X94976192Y-89452381D01*
X94642858Y-88785714D02*
X94642858Y-89452381D01*
X94642858Y-88880952D02*
X94595239Y-88833333D01*
X94500001Y-88785714D01*
X94357143Y-88785714D01*
X94261905Y-88833333D01*
X94214286Y-88928571D01*
X94214286Y-89452381D01*
X93404762Y-88928571D02*
X93261905Y-88976190D01*
X93214286Y-89023810D01*
X93166667Y-89119048D01*
X93166667Y-89261905D01*
X93214286Y-89357143D01*
X93261905Y-89404762D01*
X93357143Y-89452381D01*
X93738096Y-89452381D01*
X93738096Y-88452381D01*
X93404762Y-88452381D01*
X93309524Y-88500000D01*
X93261905Y-88547619D01*
X93214286Y-88642857D01*
X93214286Y-88738095D01*
X93261905Y-88833333D01*
X93309524Y-88880952D01*
X93404762Y-88928571D01*
X93738096Y-88928571D01*
X92309524Y-89452381D02*
X92309524Y-88928571D01*
X92357143Y-88833333D01*
X92452381Y-88785714D01*
X92642858Y-88785714D01*
X92738096Y-88833333D01*
X92309524Y-89404762D02*
X92404762Y-89452381D01*
X92642858Y-89452381D01*
X92738096Y-89404762D01*
X92785715Y-89309524D01*
X92785715Y-89214286D01*
X92738096Y-89119048D01*
X92642858Y-89071429D01*
X92404762Y-89071429D01*
X92309524Y-89023810D01*
X91690477Y-89452381D02*
X91785715Y-89404762D01*
X91833334Y-89309524D01*
X91833334Y-88452381D01*
X90880952Y-88785714D02*
X90880952Y-89452381D01*
X91309524Y-88785714D02*
X91309524Y-89309524D01*
X91261905Y-89404762D01*
X91166667Y-89452381D01*
X91023809Y-89452381D01*
X90928571Y-89404762D01*
X90880952Y-89357143D01*
X89690476Y-88404762D02*
X90547619Y-89690476D01*
X89404762Y-89166667D02*
X88928571Y-89166667D01*
X89500000Y-89452381D02*
X89166667Y-88452381D01*
X88833333Y-89452381D01*
X88500000Y-89452381D02*
X88500000Y-88785714D01*
X88500000Y-88976190D02*
X88452381Y-88880952D01*
X88404762Y-88833333D01*
X88309524Y-88785714D01*
X88214285Y-88785714D01*
X87452380Y-89452381D02*
X87452380Y-88452381D01*
X87452380Y-89404762D02*
X87547618Y-89452381D01*
X87738095Y-89452381D01*
X87833333Y-89404762D01*
X87880952Y-89357143D01*
X87928571Y-89261905D01*
X87928571Y-88976190D01*
X87880952Y-88880952D01*
X87833333Y-88833333D01*
X87738095Y-88785714D01*
X87547618Y-88785714D01*
X87452380Y-88833333D01*
X86547618Y-88785714D02*
X86547618Y-89452381D01*
X86976190Y-88785714D02*
X86976190Y-89309524D01*
X86928571Y-89404762D01*
X86833333Y-89452381D01*
X86690475Y-89452381D01*
X86595237Y-89404762D01*
X86547618Y-89357143D01*
X86071428Y-89452381D02*
X86071428Y-88785714D01*
X86071428Y-88452381D02*
X86119047Y-88500000D01*
X86071428Y-88547619D01*
X86023809Y-88500000D01*
X86071428Y-88452381D01*
X86071428Y-88547619D01*
X85595238Y-88785714D02*
X85595238Y-89452381D01*
X85595238Y-88880952D02*
X85547619Y-88833333D01*
X85452381Y-88785714D01*
X85309523Y-88785714D01*
X85214285Y-88833333D01*
X85166666Y-88928571D01*
X85166666Y-89452381D01*
X84547619Y-89452381D02*
X84642857Y-89404762D01*
X84690476Y-89357143D01*
X84738095Y-89261905D01*
X84738095Y-88976190D01*
X84690476Y-88880952D01*
X84642857Y-88833333D01*
X84547619Y-88785714D01*
X84404761Y-88785714D01*
X84309523Y-88833333D01*
X84261904Y-88880952D01*
X84214285Y-88976190D01*
X84214285Y-89261905D01*
X84261904Y-89357143D01*
X84309523Y-89404762D01*
X84404761Y-89452381D01*
X84547619Y-89452381D01*
X84023809Y-89547619D02*
X83261904Y-89547619D01*
X83071428Y-89404762D02*
X82928571Y-89452381D01*
X82690475Y-89452381D01*
X82595237Y-89404762D01*
X82547618Y-89357143D01*
X82499999Y-89261905D01*
X82499999Y-89166667D01*
X82547618Y-89071429D01*
X82595237Y-89023810D01*
X82690475Y-88976190D01*
X82880952Y-88928571D01*
X82976190Y-88880952D01*
X83023809Y-88833333D01*
X83071428Y-88738095D01*
X83071428Y-88642857D01*
X83023809Y-88547619D01*
X82976190Y-88500000D01*
X82880952Y-88452381D01*
X82642856Y-88452381D01*
X82499999Y-88500000D01*
X82071428Y-88785714D02*
X82071428Y-89785714D01*
X82071428Y-88833333D02*
X81976190Y-88785714D01*
X81785713Y-88785714D01*
X81690475Y-88833333D01*
X81642856Y-88880952D01*
X81595237Y-88976190D01*
X81595237Y-89261905D01*
X81642856Y-89357143D01*
X81690475Y-89404762D01*
X81785713Y-89452381D01*
X81976190Y-89452381D01*
X82071428Y-89404762D01*
X81023809Y-89452381D02*
X81119047Y-89404762D01*
X81166666Y-89357143D01*
X81214285Y-89261905D01*
X81214285Y-88976190D01*
X81166666Y-88880952D01*
X81119047Y-88833333D01*
X81023809Y-88785714D01*
X80880951Y-88785714D01*
X80785713Y-88833333D01*
X80738094Y-88880952D01*
X80690475Y-88976190D01*
X80690475Y-89261905D01*
X80738094Y-89357143D01*
X80785713Y-89404762D01*
X80880951Y-89452381D01*
X81023809Y-89452381D01*
X80404761Y-88785714D02*
X80023809Y-88785714D01*
X80261904Y-88452381D02*
X80261904Y-89309524D01*
X80214285Y-89404762D01*
X80119047Y-89452381D01*
X80023809Y-89452381D01*
X79928570Y-89547619D02*
X79166665Y-89547619D01*
X79023808Y-88452381D02*
X78785713Y-89452381D01*
X78595236Y-88738095D01*
X78404760Y-89452381D01*
X78166665Y-88452381D01*
X77404760Y-89404762D02*
X77499998Y-89452381D01*
X77690475Y-89452381D01*
X77785713Y-89404762D01*
X77833332Y-89309524D01*
X77833332Y-88928571D01*
X77785713Y-88833333D01*
X77690475Y-88785714D01*
X77499998Y-88785714D01*
X77404760Y-88833333D01*
X77357141Y-88928571D01*
X77357141Y-89023810D01*
X77833332Y-89119048D01*
X76785713Y-89452381D02*
X76880951Y-89404762D01*
X76928570Y-89309524D01*
X76928570Y-88452381D01*
X75976188Y-89452381D02*
X75976188Y-88452381D01*
X75976188Y-89404762D02*
X76071426Y-89452381D01*
X76261903Y-89452381D01*
X76357141Y-89404762D01*
X76404760Y-89357143D01*
X76452379Y-89261905D01*
X76452379Y-88976190D01*
X76404760Y-88880952D01*
X76357141Y-88833333D01*
X76261903Y-88785714D01*
X76071426Y-88785714D01*
X75976188Y-88833333D01*
X75119045Y-89404762D02*
X75214283Y-89452381D01*
X75404760Y-89452381D01*
X75499998Y-89404762D01*
X75547617Y-89309524D01*
X75547617Y-88928571D01*
X75499998Y-88833333D01*
X75404760Y-88785714D01*
X75214283Y-88785714D01*
X75119045Y-88833333D01*
X75071426Y-88928571D01*
X75071426Y-89023810D01*
X75547617Y-89119048D01*
X74642855Y-89452381D02*
X74642855Y-88785714D01*
X74642855Y-88976190D02*
X74595236Y-88880952D01*
X74547617Y-88833333D01*
X74452379Y-88785714D01*
X74357140Y-88785714D01*
X114500002Y-79816667D02*
X114023811Y-79816667D01*
X114595240Y-80102381D02*
X114261907Y-79102381D01*
X113928573Y-80102381D01*
X113595240Y-80102381D02*
X113595240Y-79435714D01*
X113595240Y-79626190D02*
X113547621Y-79530952D01*
X113500002Y-79483333D01*
X113404764Y-79435714D01*
X113309525Y-79435714D01*
X112547620Y-80102381D02*
X112547620Y-79102381D01*
X112547620Y-80054762D02*
X112642858Y-80102381D01*
X112833335Y-80102381D01*
X112928573Y-80054762D01*
X112976192Y-80007143D01*
X113023811Y-79911905D01*
X113023811Y-79626190D01*
X112976192Y-79530952D01*
X112928573Y-79483333D01*
X112833335Y-79435714D01*
X112642858Y-79435714D01*
X112547620Y-79483333D01*
X111642858Y-79435714D02*
X111642858Y-80102381D01*
X112071430Y-79435714D02*
X112071430Y-79959524D01*
X112023811Y-80054762D01*
X111928573Y-80102381D01*
X111785715Y-80102381D01*
X111690477Y-80054762D01*
X111642858Y-80007143D01*
X111166668Y-80102381D02*
X111166668Y-79435714D01*
X111166668Y-79102381D02*
X111214287Y-79150000D01*
X111166668Y-79197619D01*
X111119049Y-79150000D01*
X111166668Y-79102381D01*
X111166668Y-79197619D01*
X110690478Y-79435714D02*
X110690478Y-80102381D01*
X110690478Y-79530952D02*
X110642859Y-79483333D01*
X110547621Y-79435714D01*
X110404763Y-79435714D01*
X110309525Y-79483333D01*
X110261906Y-79578571D01*
X110261906Y-80102381D01*
X109642859Y-80102381D02*
X109738097Y-80054762D01*
X109785716Y-80007143D01*
X109833335Y-79911905D01*
X109833335Y-79626190D01*
X109785716Y-79530952D01*
X109738097Y-79483333D01*
X109642859Y-79435714D01*
X109500001Y-79435714D01*
X109404763Y-79483333D01*
X109357144Y-79530952D01*
X109309525Y-79626190D01*
X109309525Y-79911905D01*
X109357144Y-80007143D01*
X109404763Y-80054762D01*
X109500001Y-80102381D01*
X109642859Y-80102381D01*
X107785715Y-79578571D02*
X107642858Y-79626190D01*
X107595239Y-79673810D01*
X107547620Y-79769048D01*
X107547620Y-79911905D01*
X107595239Y-80007143D01*
X107642858Y-80054762D01*
X107738096Y-80102381D01*
X108119049Y-80102381D01*
X108119049Y-79102381D01*
X107785715Y-79102381D01*
X107690477Y-79150000D01*
X107642858Y-79197619D01*
X107595239Y-79292857D01*
X107595239Y-79388095D01*
X107642858Y-79483333D01*
X107690477Y-79530952D01*
X107785715Y-79578571D01*
X108119049Y-79578571D01*
X106690477Y-80102381D02*
X106690477Y-79578571D01*
X106738096Y-79483333D01*
X106833334Y-79435714D01*
X107023811Y-79435714D01*
X107119049Y-79483333D01*
X106690477Y-80054762D02*
X106785715Y-80102381D01*
X107023811Y-80102381D01*
X107119049Y-80054762D01*
X107166668Y-79959524D01*
X107166668Y-79864286D01*
X107119049Y-79769048D01*
X107023811Y-79721429D01*
X106785715Y-79721429D01*
X106690477Y-79673810D01*
X106357144Y-79435714D02*
X105976192Y-79435714D01*
X106214287Y-79102381D02*
X106214287Y-79959524D01*
X106166668Y-80054762D01*
X106071430Y-80102381D01*
X105976192Y-80102381D01*
X105785715Y-79435714D02*
X105404763Y-79435714D01*
X105642858Y-79102381D02*
X105642858Y-79959524D01*
X105595239Y-80054762D01*
X105500001Y-80102381D01*
X105404763Y-80102381D01*
X104690476Y-80054762D02*
X104785714Y-80102381D01*
X104976191Y-80102381D01*
X105071429Y-80054762D01*
X105119048Y-79959524D01*
X105119048Y-79578571D01*
X105071429Y-79483333D01*
X104976191Y-79435714D01*
X104785714Y-79435714D01*
X104690476Y-79483333D01*
X104642857Y-79578571D01*
X104642857Y-79673810D01*
X105119048Y-79769048D01*
X104214286Y-80102381D02*
X104214286Y-79435714D01*
X104214286Y-79626190D02*
X104166667Y-79530952D01*
X104119048Y-79483333D01*
X104023810Y-79435714D01*
X103928571Y-79435714D01*
X103690476Y-79435714D02*
X103452381Y-80102381D01*
X103214285Y-79435714D02*
X103452381Y-80102381D01*
X103547619Y-80340476D01*
X103595238Y-80388095D01*
X103690476Y-80435714D01*
X102119047Y-80054762D02*
X101976190Y-80102381D01*
X101738094Y-80102381D01*
X101642856Y-80054762D01*
X101595237Y-80007143D01*
X101547618Y-79911905D01*
X101547618Y-79816667D01*
X101595237Y-79721429D01*
X101642856Y-79673810D01*
X101738094Y-79626190D01*
X101928571Y-79578571D01*
X102023809Y-79530952D01*
X102071428Y-79483333D01*
X102119047Y-79388095D01*
X102119047Y-79292857D01*
X102071428Y-79197619D01*
X102023809Y-79150000D01*
X101928571Y-79102381D01*
X101690475Y-79102381D01*
X101547618Y-79150000D01*
X101119047Y-79435714D02*
X101119047Y-80435714D01*
X101119047Y-79483333D02*
X101023809Y-79435714D01*
X100833332Y-79435714D01*
X100738094Y-79483333D01*
X100690475Y-79530952D01*
X100642856Y-79626190D01*
X100642856Y-79911905D01*
X100690475Y-80007143D01*
X100738094Y-80054762D01*
X100833332Y-80102381D01*
X101023809Y-80102381D01*
X101119047Y-80054762D01*
X100071428Y-80102381D02*
X100166666Y-80054762D01*
X100214285Y-80007143D01*
X100261904Y-79911905D01*
X100261904Y-79626190D01*
X100214285Y-79530952D01*
X100166666Y-79483333D01*
X100071428Y-79435714D01*
X99928570Y-79435714D01*
X99833332Y-79483333D01*
X99785713Y-79530952D01*
X99738094Y-79626190D01*
X99738094Y-79911905D01*
X99785713Y-80007143D01*
X99833332Y-80054762D01*
X99928570Y-80102381D01*
X100071428Y-80102381D01*
X99452380Y-79435714D02*
X99071428Y-79435714D01*
X99309523Y-79102381D02*
X99309523Y-79959524D01*
X99261904Y-80054762D01*
X99166666Y-80102381D01*
X99071428Y-80102381D01*
X98071427Y-79102381D02*
X97833332Y-80102381D01*
X97642855Y-79388095D01*
X97452379Y-80102381D01*
X97214284Y-79102381D01*
X96452379Y-80054762D02*
X96547617Y-80102381D01*
X96738094Y-80102381D01*
X96833332Y-80054762D01*
X96880951Y-79959524D01*
X96880951Y-79578571D01*
X96833332Y-79483333D01*
X96738094Y-79435714D01*
X96547617Y-79435714D01*
X96452379Y-79483333D01*
X96404760Y-79578571D01*
X96404760Y-79673810D01*
X96880951Y-79769048D01*
X95833332Y-80102381D02*
X95928570Y-80054762D01*
X95976189Y-79959524D01*
X95976189Y-79102381D01*
X95023807Y-80102381D02*
X95023807Y-79102381D01*
X95023807Y-80054762D02*
X95119045Y-80102381D01*
X95309522Y-80102381D01*
X95404760Y-80054762D01*
X95452379Y-80007143D01*
X95499998Y-79911905D01*
X95499998Y-79626190D01*
X95452379Y-79530952D01*
X95404760Y-79483333D01*
X95309522Y-79435714D01*
X95119045Y-79435714D01*
X95023807Y-79483333D01*
X94166664Y-80054762D02*
X94261902Y-80102381D01*
X94452379Y-80102381D01*
X94547617Y-80054762D01*
X94595236Y-79959524D01*
X94595236Y-79578571D01*
X94547617Y-79483333D01*
X94452379Y-79435714D01*
X94261902Y-79435714D01*
X94166664Y-79483333D01*
X94119045Y-79578571D01*
X94119045Y-79673810D01*
X94595236Y-79769048D01*
X93690474Y-80102381D02*
X93690474Y-79435714D01*
X93690474Y-79626190D02*
X93642855Y-79530952D01*
X93595236Y-79483333D01*
X93499998Y-79435714D01*
X93404759Y-79435714D01*
X109595239Y-81802381D02*
X109595239Y-80802381D01*
X109595239Y-81183333D02*
X109500001Y-81135714D01*
X109309524Y-81135714D01*
X109214286Y-81183333D01*
X109166667Y-81230952D01*
X109119048Y-81326190D01*
X109119048Y-81611905D01*
X109166667Y-81707143D01*
X109214286Y-81754762D01*
X109309524Y-81802381D01*
X109500001Y-81802381D01*
X109595239Y-81754762D01*
X108785715Y-81135714D02*
X108547620Y-81802381D01*
X108309524Y-81135714D02*
X108547620Y-81802381D01*
X108642858Y-82040476D01*
X108690477Y-82088095D01*
X108785715Y-82135714D01*
X107166667Y-81802381D02*
X107166667Y-80802381D01*
X106595238Y-81802381D02*
X107023810Y-81230952D01*
X106595238Y-80802381D02*
X107166667Y-81373810D01*
X105738095Y-81802381D02*
X105738095Y-81278571D01*
X105785714Y-81183333D01*
X105880952Y-81135714D01*
X106071429Y-81135714D01*
X106166667Y-81183333D01*
X105738095Y-81754762D02*
X105833333Y-81802381D01*
X106071429Y-81802381D01*
X106166667Y-81754762D01*
X106214286Y-81659524D01*
X106214286Y-81564286D01*
X106166667Y-81469048D01*
X106071429Y-81421429D01*
X105833333Y-81421429D01*
X105738095Y-81373810D01*
X104880952Y-81754762D02*
X104976190Y-81802381D01*
X105166667Y-81802381D01*
X105261905Y-81754762D01*
X105309524Y-81659524D01*
X105309524Y-81278571D01*
X105261905Y-81183333D01*
X105166667Y-81135714D01*
X104976190Y-81135714D01*
X104880952Y-81183333D01*
X104833333Y-81278571D01*
X104833333Y-81373810D01*
X105309524Y-81469048D01*
X104404762Y-81135714D02*
X104404762Y-82135714D01*
X104404762Y-81183333D02*
X104309524Y-81135714D01*
X104119047Y-81135714D01*
X104023809Y-81183333D01*
X103976190Y-81230952D01*
X103928571Y-81326190D01*
X103928571Y-81611905D01*
X103976190Y-81707143D01*
X104023809Y-81754762D01*
X104119047Y-81802381D01*
X104309524Y-81802381D01*
X104404762Y-81754762D01*
X103642857Y-81135714D02*
X103261905Y-81135714D01*
X103500000Y-80802381D02*
X103500000Y-81659524D01*
X103452381Y-81754762D01*
X103357143Y-81802381D01*
X103261905Y-81802381D01*
X102928571Y-81135714D02*
X102928571Y-81802381D01*
X102928571Y-81230952D02*
X102880952Y-81183333D01*
X102785714Y-81135714D01*
X102642856Y-81135714D01*
X102547618Y-81183333D01*
X102499999Y-81278571D01*
X102499999Y-81802381D01*
X100928570Y-81278571D02*
X100785713Y-81326190D01*
X100738094Y-81373810D01*
X100690475Y-81469048D01*
X100690475Y-81611905D01*
X100738094Y-81707143D01*
X100785713Y-81754762D01*
X100880951Y-81802381D01*
X101261904Y-81802381D01*
X101261904Y-80802381D01*
X100928570Y-80802381D01*
X100833332Y-80850000D01*
X100785713Y-80897619D01*
X100738094Y-80992857D01*
X100738094Y-81088095D01*
X100785713Y-81183333D01*
X100833332Y-81230952D01*
X100928570Y-81278571D01*
X101261904Y-81278571D01*
X99833332Y-81802381D02*
X99833332Y-81278571D01*
X99880951Y-81183333D01*
X99976189Y-81135714D01*
X100166666Y-81135714D01*
X100261904Y-81183333D01*
X99833332Y-81754762D02*
X99928570Y-81802381D01*
X100166666Y-81802381D01*
X100261904Y-81754762D01*
X100309523Y-81659524D01*
X100309523Y-81564286D01*
X100261904Y-81469048D01*
X100166666Y-81421429D01*
X99928570Y-81421429D01*
X99833332Y-81373810D01*
X99214285Y-81802381D02*
X99309523Y-81754762D01*
X99357142Y-81659524D01*
X99357142Y-80802381D01*
X98404760Y-81135714D02*
X98404760Y-81802381D01*
X98833332Y-81135714D02*
X98833332Y-81659524D01*
X98785713Y-81754762D01*
X98690475Y-81802381D01*
X98547617Y-81802381D01*
X98452379Y-81754762D01*
X98404760Y-81707143D01*
M02*
