G04 #@! TF.FileFunction,Legend,Top*
%FSLAX46Y46*%
G04 Gerber Fmt 4.6, Leading zero omitted, Abs format (unit mm)*
G04 Created by KiCad (PCBNEW 4.0.4-stable) date 02/25/17 10:50:14*
%MOMM*%
%LPD*%
G01*
G04 APERTURE LIST*
%ADD10C,0.100000*%
%ADD11C,0.300000*%
%ADD12C,0.200000*%
%ADD13C,0.120000*%
%ADD14C,0.150000*%
%ADD15C,0.381000*%
G04 APERTURE END LIST*
D10*
X120000000Y-129000000D02*
X120000000Y-71000000D01*
X96600000Y-100600000D02*
X97400000Y-100600000D01*
X97000000Y-100200000D02*
X97000000Y-101000000D01*
X84071429Y-80785714D02*
X84071429Y-80023809D01*
X84452381Y-80404761D02*
X83690476Y-80404761D01*
X83452381Y-79071428D02*
X83452381Y-79547619D01*
X83928571Y-79595238D01*
X83880952Y-79547619D01*
X83833333Y-79452381D01*
X83833333Y-79214285D01*
X83880952Y-79119047D01*
X83928571Y-79071428D01*
X84023810Y-79023809D01*
X84261905Y-79023809D01*
X84357143Y-79071428D01*
X84404762Y-79119047D01*
X84452381Y-79214285D01*
X84452381Y-79452381D01*
X84404762Y-79547619D01*
X84357143Y-79595238D01*
X83452381Y-78738095D02*
X84452381Y-78404762D01*
X83452381Y-78071428D01*
X78500000Y-80261904D02*
X78452381Y-80357142D01*
X78452381Y-80499999D01*
X78500000Y-80642857D01*
X78595238Y-80738095D01*
X78690476Y-80785714D01*
X78880952Y-80833333D01*
X79023810Y-80833333D01*
X79214286Y-80785714D01*
X79309524Y-80738095D01*
X79404762Y-80642857D01*
X79452381Y-80499999D01*
X79452381Y-80404761D01*
X79404762Y-80261904D01*
X79357143Y-80214285D01*
X79023810Y-80214285D01*
X79023810Y-80404761D01*
X79452381Y-79785714D02*
X78452381Y-79785714D01*
X79452381Y-79214285D01*
X78452381Y-79214285D01*
X79452381Y-78738095D02*
X78452381Y-78738095D01*
X78452381Y-78500000D01*
X78500000Y-78357142D01*
X78595238Y-78261904D01*
X78690476Y-78214285D01*
X78880952Y-78166666D01*
X79023810Y-78166666D01*
X79214286Y-78214285D01*
X79309524Y-78261904D01*
X79404762Y-78357142D01*
X79452381Y-78500000D01*
X79452381Y-78738095D01*
X75952381Y-80523809D02*
X76952381Y-80190476D01*
X75952381Y-79857142D01*
X76952381Y-79523809D02*
X76285714Y-79523809D01*
X75952381Y-79523809D02*
X76000000Y-79571428D01*
X76047619Y-79523809D01*
X76000000Y-79476190D01*
X75952381Y-79523809D01*
X76047619Y-79523809D01*
X76285714Y-79047619D02*
X76952381Y-79047619D01*
X76380952Y-79047619D02*
X76333333Y-79000000D01*
X76285714Y-78904762D01*
X76285714Y-78761904D01*
X76333333Y-78666666D01*
X76428571Y-78619047D01*
X76952381Y-78619047D01*
D11*
X112000000Y-84000000D02*
X110000000Y-86000000D01*
X110000000Y-82000000D02*
X112000000Y-84000000D01*
D10*
X112000000Y-84000000D02*
X110000000Y-82000000D01*
D11*
X112000000Y-84000000D02*
X105000000Y-84000000D01*
D12*
X95857142Y-84652381D02*
X95857142Y-85461905D01*
X95904761Y-85557143D01*
X95952380Y-85604762D01*
X96047618Y-85652381D01*
X96238095Y-85652381D01*
X96333333Y-85604762D01*
X96380952Y-85557143D01*
X96428571Y-85461905D01*
X96428571Y-84652381D01*
X96857142Y-85604762D02*
X96999999Y-85652381D01*
X97238095Y-85652381D01*
X97333333Y-85604762D01*
X97380952Y-85557143D01*
X97428571Y-85461905D01*
X97428571Y-85366667D01*
X97380952Y-85271429D01*
X97333333Y-85223810D01*
X97238095Y-85176190D01*
X97047618Y-85128571D01*
X96952380Y-85080952D01*
X96904761Y-85033333D01*
X96857142Y-84938095D01*
X96857142Y-84842857D01*
X96904761Y-84747619D01*
X96952380Y-84700000D01*
X97047618Y-84652381D01*
X97285714Y-84652381D01*
X97428571Y-84700000D01*
X98190476Y-85128571D02*
X98333333Y-85176190D01*
X98380952Y-85223810D01*
X98428571Y-85319048D01*
X98428571Y-85461905D01*
X98380952Y-85557143D01*
X98333333Y-85604762D01*
X98238095Y-85652381D01*
X97857142Y-85652381D01*
X97857142Y-84652381D01*
X98190476Y-84652381D01*
X98285714Y-84700000D01*
X98333333Y-84747619D01*
X98380952Y-84842857D01*
X98380952Y-84938095D01*
X98333333Y-85033333D01*
X98285714Y-85080952D01*
X98190476Y-85128571D01*
X97857142Y-85128571D01*
X99619047Y-84985714D02*
X99619047Y-85985714D01*
X99619047Y-85033333D02*
X99714285Y-84985714D01*
X99904762Y-84985714D01*
X100000000Y-85033333D01*
X100047619Y-85080952D01*
X100095238Y-85176190D01*
X100095238Y-85461905D01*
X100047619Y-85557143D01*
X100000000Y-85604762D01*
X99904762Y-85652381D01*
X99714285Y-85652381D01*
X99619047Y-85604762D01*
X100666666Y-85652381D02*
X100571428Y-85604762D01*
X100523809Y-85557143D01*
X100476190Y-85461905D01*
X100476190Y-85176190D01*
X100523809Y-85080952D01*
X100571428Y-85033333D01*
X100666666Y-84985714D01*
X100809524Y-84985714D01*
X100904762Y-85033333D01*
X100952381Y-85080952D01*
X101000000Y-85176190D01*
X101000000Y-85461905D01*
X100952381Y-85557143D01*
X100904762Y-85604762D01*
X100809524Y-85652381D01*
X100666666Y-85652381D01*
X101428571Y-85652381D02*
X101428571Y-84985714D01*
X101428571Y-85176190D02*
X101476190Y-85080952D01*
X101523809Y-85033333D01*
X101619047Y-84985714D01*
X101714286Y-84985714D01*
X101904762Y-84985714D02*
X102285714Y-84985714D01*
X102047619Y-84652381D02*
X102047619Y-85509524D01*
X102095238Y-85604762D01*
X102190476Y-85652381D01*
X102285714Y-85652381D01*
X103238096Y-84985714D02*
X103619048Y-84985714D01*
X103380953Y-84652381D02*
X103380953Y-85509524D01*
X103428572Y-85604762D01*
X103523810Y-85652381D01*
X103619048Y-85652381D01*
X103952382Y-85652381D02*
X103952382Y-84652381D01*
X104380954Y-85652381D02*
X104380954Y-85128571D01*
X104333335Y-85033333D01*
X104238097Y-84985714D01*
X104095239Y-84985714D01*
X104000001Y-85033333D01*
X103952382Y-85080952D01*
X104857144Y-85652381D02*
X104857144Y-84985714D01*
X104857144Y-84652381D02*
X104809525Y-84700000D01*
X104857144Y-84747619D01*
X104904763Y-84700000D01*
X104857144Y-84652381D01*
X104857144Y-84747619D01*
X105285715Y-85604762D02*
X105380953Y-85652381D01*
X105571429Y-85652381D01*
X105666668Y-85604762D01*
X105714287Y-85509524D01*
X105714287Y-85461905D01*
X105666668Y-85366667D01*
X105571429Y-85319048D01*
X105428572Y-85319048D01*
X105333334Y-85271429D01*
X105285715Y-85176190D01*
X105285715Y-85128571D01*
X105333334Y-85033333D01*
X105428572Y-84985714D01*
X105571429Y-84985714D01*
X105666668Y-85033333D01*
X106809525Y-84985714D02*
X107000001Y-85652381D01*
X107190478Y-85176190D01*
X107380954Y-85652381D01*
X107571430Y-84985714D01*
X108380954Y-85652381D02*
X108380954Y-85128571D01*
X108333335Y-85033333D01*
X108238097Y-84985714D01*
X108047620Y-84985714D01*
X107952382Y-85033333D01*
X108380954Y-85604762D02*
X108285716Y-85652381D01*
X108047620Y-85652381D01*
X107952382Y-85604762D01*
X107904763Y-85509524D01*
X107904763Y-85414286D01*
X107952382Y-85319048D01*
X108047620Y-85271429D01*
X108285716Y-85271429D01*
X108380954Y-85223810D01*
X108761906Y-84985714D02*
X109000001Y-85652381D01*
X109238097Y-84985714D02*
X109000001Y-85652381D01*
X108904763Y-85890476D01*
X108857144Y-85938095D01*
X108761906Y-85985714D01*
D10*
X76450000Y-109050000D02*
X77500000Y-109050000D01*
X77600000Y-109700000D02*
X77450000Y-109700000D01*
X77000000Y-109100000D02*
X77600000Y-109700000D01*
X76400000Y-109700000D02*
X77550000Y-109700000D01*
X77000000Y-109100000D02*
X76400000Y-109700000D01*
X76600000Y-109050000D02*
X77400000Y-109050000D01*
D11*
X87214285Y-81250000D02*
X87928571Y-81250000D01*
X87071428Y-81678571D02*
X87571428Y-80178571D01*
X88071428Y-81678571D01*
X88571428Y-81678571D02*
X88571428Y-80678571D01*
X88571428Y-80964286D02*
X88642856Y-80821429D01*
X88714285Y-80750000D01*
X88857142Y-80678571D01*
X88999999Y-80678571D01*
X90142856Y-81678571D02*
X90142856Y-80178571D01*
X90142856Y-81607143D02*
X89999999Y-81678571D01*
X89714285Y-81678571D01*
X89571427Y-81607143D01*
X89499999Y-81535714D01*
X89428570Y-81392857D01*
X89428570Y-80964286D01*
X89499999Y-80821429D01*
X89571427Y-80750000D01*
X89714285Y-80678571D01*
X89999999Y-80678571D01*
X90142856Y-80750000D01*
X91499999Y-80678571D02*
X91499999Y-81678571D01*
X90857142Y-80678571D02*
X90857142Y-81464286D01*
X90928570Y-81607143D01*
X91071428Y-81678571D01*
X91285713Y-81678571D01*
X91428570Y-81607143D01*
X91499999Y-81535714D01*
X92214285Y-81678571D02*
X92214285Y-80678571D01*
X92214285Y-80178571D02*
X92142856Y-80250000D01*
X92214285Y-80321429D01*
X92285713Y-80250000D01*
X92214285Y-80178571D01*
X92214285Y-80321429D01*
X92928571Y-80678571D02*
X92928571Y-81678571D01*
X92928571Y-80821429D02*
X92999999Y-80750000D01*
X93142857Y-80678571D01*
X93357142Y-80678571D01*
X93499999Y-80750000D01*
X93571428Y-80892857D01*
X93571428Y-81678571D01*
X94500000Y-81678571D02*
X94357142Y-81607143D01*
X94285714Y-81535714D01*
X94214285Y-81392857D01*
X94214285Y-80964286D01*
X94285714Y-80821429D01*
X94357142Y-80750000D01*
X94500000Y-80678571D01*
X94714285Y-80678571D01*
X94857142Y-80750000D01*
X94928571Y-80821429D01*
X95000000Y-80964286D01*
X95000000Y-81392857D01*
X94928571Y-81535714D01*
X94857142Y-81607143D01*
X94714285Y-81678571D01*
X94500000Y-81678571D01*
X96785714Y-81678571D02*
X96785714Y-80178571D01*
X97642857Y-81678571D01*
X97642857Y-80178571D01*
X99000000Y-81678571D02*
X99000000Y-80892857D01*
X98928571Y-80750000D01*
X98785714Y-80678571D01*
X98500000Y-80678571D01*
X98357143Y-80750000D01*
X99000000Y-81607143D02*
X98857143Y-81678571D01*
X98500000Y-81678571D01*
X98357143Y-81607143D01*
X98285714Y-81464286D01*
X98285714Y-81321429D01*
X98357143Y-81178571D01*
X98500000Y-81107143D01*
X98857143Y-81107143D01*
X99000000Y-81035714D01*
X99714286Y-80678571D02*
X99714286Y-81678571D01*
X99714286Y-80821429D02*
X99785714Y-80750000D01*
X99928572Y-80678571D01*
X100142857Y-80678571D01*
X100285714Y-80750000D01*
X100357143Y-80892857D01*
X100357143Y-81678571D01*
X101285715Y-81678571D02*
X101142857Y-81607143D01*
X101071429Y-81535714D01*
X101000000Y-81392857D01*
X101000000Y-80964286D01*
X101071429Y-80821429D01*
X101142857Y-80750000D01*
X101285715Y-80678571D01*
X101500000Y-80678571D01*
X101642857Y-80750000D01*
X101714286Y-80821429D01*
X101785715Y-80964286D01*
X101785715Y-81392857D01*
X101714286Y-81535714D01*
X101642857Y-81607143D01*
X101500000Y-81678571D01*
X101285715Y-81678571D01*
D13*
X77310000Y-98940000D02*
X77310000Y-104060000D01*
X74690000Y-98940000D02*
X74690000Y-104060000D01*
X77310000Y-98940000D02*
X76996000Y-98940000D01*
X75004000Y-98940000D02*
X74690000Y-98940000D01*
X77310000Y-104060000D02*
X76996000Y-104060000D01*
X75004000Y-104060000D02*
X74690000Y-104060000D01*
X97060000Y-99690000D02*
X97060000Y-107310000D01*
X91940000Y-99690000D02*
X91940000Y-107310000D01*
X97060000Y-99690000D02*
X91940000Y-99690000D01*
X97060000Y-107310000D02*
X91940000Y-107310000D01*
X105910000Y-113420000D02*
X103090000Y-113420000D01*
X103090000Y-113420000D02*
X103090000Y-118740000D01*
X103090000Y-118740000D02*
X105910000Y-118740000D01*
X105910000Y-118740000D02*
X105910000Y-113420000D01*
X104500000Y-112280000D02*
X104500000Y-113420000D01*
X104500000Y-119880000D02*
X104500000Y-118740000D01*
X105910000Y-114260000D02*
X103090000Y-114260000D01*
X77850000Y-107000000D02*
X76150000Y-107000000D01*
X76150000Y-107050000D02*
X76150000Y-111100000D01*
X77850000Y-107050000D02*
X77850000Y-111100000D01*
D14*
X114447214Y-97000000D02*
G75*
G03X114447214Y-97000000I-447214J0D01*
G01*
X104000000Y-104000000D02*
X109000000Y-105000000D01*
X109000000Y-105000000D02*
X114000000Y-106000000D01*
X114000000Y-106000000D02*
X114000000Y-99000000D01*
X114000000Y-99000000D02*
X109000000Y-98000000D01*
X104000000Y-97000000D02*
X109000000Y-98000000D01*
X109000000Y-98000000D02*
X109000000Y-105000000D01*
X104000000Y-104000000D02*
X104000000Y-97000000D01*
X118600000Y-94700000D02*
X118600000Y-107300000D01*
X103300000Y-107300000D02*
X114700000Y-107300000D01*
X103300000Y-94700000D02*
X114700000Y-94700000D01*
X99400000Y-107300000D02*
X99400000Y-94700000D01*
X77130000Y-122980000D02*
X77130000Y-128980000D01*
X77130000Y-128980000D02*
X82410000Y-128980000D01*
X82410000Y-128980000D02*
X82410000Y-122980000D01*
X82410000Y-122980000D02*
X77130000Y-122980000D01*
X78500000Y-128980000D02*
X78500000Y-127980000D01*
X78500000Y-127980000D02*
X81040000Y-127980000D01*
X81040000Y-127980000D02*
X81040000Y-128980000D01*
X78500000Y-127980000D02*
X78750000Y-127550000D01*
X78750000Y-127550000D02*
X80790000Y-127550000D01*
X80790000Y-127550000D02*
X81040000Y-127980000D01*
X78750000Y-128980000D02*
X78750000Y-127980000D01*
X80790000Y-128980000D02*
X80790000Y-127980000D01*
X77700000Y-122980000D02*
X77700000Y-123600000D01*
X77700000Y-123600000D02*
X79300000Y-123600000D01*
X79300000Y-123600000D02*
X79300000Y-122980000D01*
X80240000Y-122980000D02*
X80240000Y-123600000D01*
X80240000Y-123600000D02*
X81840000Y-123600000D01*
X81840000Y-123600000D02*
X81840000Y-122980000D01*
D13*
X87370000Y-129390000D02*
X105270000Y-129390000D01*
X105270000Y-129390000D02*
X105270000Y-126610000D01*
X105270000Y-126610000D02*
X87370000Y-126610000D01*
X87370000Y-126610000D02*
X87370000Y-129390000D01*
X86100000Y-129390000D02*
X84710000Y-129390000D01*
X84710000Y-129390000D02*
X84710000Y-128000000D01*
X85810000Y-96610000D02*
G75*
G02X83810000Y-96610000I-1000000J0D01*
G01*
X83810000Y-96610000D02*
X82440000Y-96610000D01*
X82440000Y-96610000D02*
X82440000Y-107010000D01*
X82440000Y-107010000D02*
X87180000Y-107010000D01*
X87180000Y-107010000D02*
X87180000Y-96610000D01*
X87180000Y-96610000D02*
X85810000Y-96610000D01*
X79610000Y-96610000D02*
X79610000Y-107010000D01*
X79610000Y-107010000D02*
X90010000Y-107010000D01*
X90010000Y-107010000D02*
X90010000Y-96610000D01*
X90010000Y-96610000D02*
X79610000Y-96610000D01*
X81270000Y-73390000D02*
X83930000Y-73390000D01*
X83930000Y-73390000D02*
X83930000Y-70610000D01*
X83930000Y-70610000D02*
X81270000Y-70610000D01*
X81270000Y-70610000D02*
X81270000Y-73390000D01*
X80000000Y-73390000D02*
X78610000Y-73390000D01*
X78610000Y-73390000D02*
X78610000Y-72000000D01*
X108730000Y-70610000D02*
X106070000Y-70610000D01*
X106070000Y-70610000D02*
X106070000Y-73390000D01*
X106070000Y-73390000D02*
X108730000Y-73390000D01*
X108730000Y-73390000D02*
X108730000Y-70610000D01*
X110000000Y-70610000D02*
X111390000Y-70610000D01*
X111390000Y-70610000D02*
X111390000Y-72000000D01*
D14*
X115000000Y-115000000D02*
G75*
G03X115000000Y-115000000I-2000000J0D01*
G01*
X108000000Y-109000000D02*
X118000000Y-109000000D01*
X118000000Y-109000000D02*
X118000000Y-121000000D01*
X118000000Y-121000000D02*
X108000000Y-121000000D01*
X108000000Y-121000000D02*
X108000000Y-109000000D01*
X92000000Y-87075000D02*
X90000000Y-87075000D01*
X90000000Y-84925000D02*
X92000000Y-84925000D01*
X81075000Y-112000000D02*
X81075000Y-114000000D01*
X78925000Y-114000000D02*
X78925000Y-112000000D01*
X84075000Y-118000000D02*
X84075000Y-120000000D01*
X81925000Y-120000000D02*
X81925000Y-118000000D01*
X87075000Y-112000000D02*
X87075000Y-114000000D01*
X84925000Y-114000000D02*
X84925000Y-112000000D01*
X90075000Y-120000000D02*
X90075000Y-122000000D01*
X87925000Y-122000000D02*
X87925000Y-120000000D01*
X93075000Y-112000000D02*
X93075000Y-114000000D01*
X90925000Y-114000000D02*
X90925000Y-112000000D01*
X96075000Y-120000000D02*
X96075000Y-122000000D01*
X93925000Y-122000000D02*
X93925000Y-120000000D01*
X99075000Y-112000000D02*
X99075000Y-114000000D01*
X96925000Y-114000000D02*
X96925000Y-112000000D01*
X102075000Y-120000000D02*
X102075000Y-122000000D01*
X99925000Y-122000000D02*
X99925000Y-120000000D01*
X96000000Y-97075000D02*
X94000000Y-97075000D01*
X94000000Y-94925000D02*
X96000000Y-94925000D01*
X75175000Y-108500000D02*
X75175000Y-110500000D01*
X73025000Y-110500000D02*
X73025000Y-108500000D01*
X78500000Y-84925000D02*
X80500000Y-84925000D01*
X80500000Y-87075000D02*
X78500000Y-87075000D01*
D15*
X115860000Y-90350000D02*
X72680000Y-90350000D01*
X72680000Y-90350000D02*
X72680000Y-77650000D01*
X72680000Y-77650000D02*
X115860000Y-77650000D01*
X115860000Y-77650000D02*
X115860000Y-90350000D01*
X115860000Y-82730000D02*
X114590000Y-82730000D01*
X114590000Y-82730000D02*
X114590000Y-85270000D01*
X114590000Y-85270000D02*
X115860000Y-85270000D01*
D13*
X131270000Y-73390000D02*
X133930000Y-73390000D01*
X133930000Y-73390000D02*
X133930000Y-70610000D01*
X133930000Y-70610000D02*
X131270000Y-70610000D01*
X131270000Y-70610000D02*
X131270000Y-73390000D01*
X130000000Y-73390000D02*
X128610000Y-73390000D01*
X128610000Y-73390000D02*
X128610000Y-72000000D01*
X158730000Y-70610000D02*
X156070000Y-70610000D01*
X156070000Y-70610000D02*
X156070000Y-73390000D01*
X156070000Y-73390000D02*
X158730000Y-73390000D01*
X158730000Y-73390000D02*
X158730000Y-70610000D01*
X160000000Y-70610000D02*
X161390000Y-70610000D01*
X161390000Y-70610000D02*
X161390000Y-72000000D01*
D14*
X162317000Y-121540000D02*
X163714000Y-121540000D01*
X162317000Y-119000000D02*
X163714000Y-119000000D01*
X162317000Y-116460000D02*
X163714000Y-116460000D01*
X151750472Y-119000000D02*
G75*
G03X151750472Y-119000000I-2514472J0D01*
G01*
X153808000Y-113666000D02*
X145807000Y-113666000D01*
X145807000Y-113666000D02*
X145807000Y-124334000D01*
X145807000Y-124334000D02*
X153808000Y-124334000D01*
X162317000Y-113666000D02*
X153808000Y-113666000D01*
X153808000Y-113666000D02*
X153808000Y-124334000D01*
X153808000Y-124334000D02*
X162317000Y-124334000D01*
X162317000Y-119000000D02*
X162317000Y-124334000D01*
X162317000Y-119000000D02*
X162317000Y-113666000D01*
X162317000Y-108540000D02*
X163714000Y-108540000D01*
X162317000Y-106000000D02*
X163714000Y-106000000D01*
X162317000Y-103460000D02*
X163714000Y-103460000D01*
X151750472Y-106000000D02*
G75*
G03X151750472Y-106000000I-2514472J0D01*
G01*
X153808000Y-100666000D02*
X145807000Y-100666000D01*
X145807000Y-100666000D02*
X145807000Y-111334000D01*
X145807000Y-111334000D02*
X153808000Y-111334000D01*
X162317000Y-100666000D02*
X153808000Y-100666000D01*
X153808000Y-100666000D02*
X153808000Y-111334000D01*
X153808000Y-111334000D02*
X162317000Y-111334000D01*
X162317000Y-106000000D02*
X162317000Y-111334000D01*
X162317000Y-106000000D02*
X162317000Y-100666000D01*
X162317000Y-95540000D02*
X163714000Y-95540000D01*
X162317000Y-93000000D02*
X163714000Y-93000000D01*
X162317000Y-90460000D02*
X163714000Y-90460000D01*
X151750472Y-93000000D02*
G75*
G03X151750472Y-93000000I-2514472J0D01*
G01*
X153808000Y-87666000D02*
X145807000Y-87666000D01*
X145807000Y-87666000D02*
X145807000Y-98334000D01*
X145807000Y-98334000D02*
X153808000Y-98334000D01*
X162317000Y-87666000D02*
X153808000Y-87666000D01*
X153808000Y-87666000D02*
X153808000Y-98334000D01*
X153808000Y-98334000D02*
X162317000Y-98334000D01*
X162317000Y-93000000D02*
X162317000Y-98334000D01*
X162317000Y-93000000D02*
X162317000Y-87666000D01*
X162317000Y-82540000D02*
X163714000Y-82540000D01*
X162317000Y-80000000D02*
X163714000Y-80000000D01*
X162317000Y-77460000D02*
X163714000Y-77460000D01*
X151750472Y-80000000D02*
G75*
G03X151750472Y-80000000I-2514472J0D01*
G01*
X153808000Y-74666000D02*
X145807000Y-74666000D01*
X145807000Y-74666000D02*
X145807000Y-85334000D01*
X145807000Y-85334000D02*
X153808000Y-85334000D01*
X162317000Y-74666000D02*
X153808000Y-74666000D01*
X153808000Y-74666000D02*
X153808000Y-85334000D01*
X153808000Y-85334000D02*
X162317000Y-85334000D01*
X162317000Y-80000000D02*
X162317000Y-85334000D01*
X162317000Y-80000000D02*
X162317000Y-74666000D01*
X127683000Y-77460000D02*
X126286000Y-77460000D01*
X127683000Y-80000000D02*
X126286000Y-80000000D01*
X127683000Y-82540000D02*
X126286000Y-82540000D01*
X143278472Y-80000000D02*
G75*
G03X143278472Y-80000000I-2514472J0D01*
G01*
X136192000Y-85334000D02*
X144193000Y-85334000D01*
X144193000Y-85334000D02*
X144193000Y-74666000D01*
X144193000Y-74666000D02*
X136192000Y-74666000D01*
X127683000Y-85334000D02*
X136192000Y-85334000D01*
X136192000Y-85334000D02*
X136192000Y-74666000D01*
X136192000Y-74666000D02*
X127683000Y-74666000D01*
X127683000Y-80000000D02*
X127683000Y-74666000D01*
X127683000Y-80000000D02*
X127683000Y-85334000D01*
X127683000Y-90460000D02*
X126286000Y-90460000D01*
X127683000Y-93000000D02*
X126286000Y-93000000D01*
X127683000Y-95540000D02*
X126286000Y-95540000D01*
X143278472Y-93000000D02*
G75*
G03X143278472Y-93000000I-2514472J0D01*
G01*
X136192000Y-98334000D02*
X144193000Y-98334000D01*
X144193000Y-98334000D02*
X144193000Y-87666000D01*
X144193000Y-87666000D02*
X136192000Y-87666000D01*
X127683000Y-98334000D02*
X136192000Y-98334000D01*
X136192000Y-98334000D02*
X136192000Y-87666000D01*
X136192000Y-87666000D02*
X127683000Y-87666000D01*
X127683000Y-93000000D02*
X127683000Y-87666000D01*
X127683000Y-93000000D02*
X127683000Y-98334000D01*
X127683000Y-103460000D02*
X126286000Y-103460000D01*
X127683000Y-106000000D02*
X126286000Y-106000000D01*
X127683000Y-108540000D02*
X126286000Y-108540000D01*
X143278472Y-106000000D02*
G75*
G03X143278472Y-106000000I-2514472J0D01*
G01*
X136192000Y-111334000D02*
X144193000Y-111334000D01*
X144193000Y-111334000D02*
X144193000Y-100666000D01*
X144193000Y-100666000D02*
X136192000Y-100666000D01*
X127683000Y-111334000D02*
X136192000Y-111334000D01*
X136192000Y-111334000D02*
X136192000Y-100666000D01*
X136192000Y-100666000D02*
X127683000Y-100666000D01*
X127683000Y-106000000D02*
X127683000Y-100666000D01*
X127683000Y-106000000D02*
X127683000Y-111334000D01*
X127683000Y-116460000D02*
X126286000Y-116460000D01*
X127683000Y-119000000D02*
X126286000Y-119000000D01*
X127683000Y-121540000D02*
X126286000Y-121540000D01*
X143278472Y-119000000D02*
G75*
G03X143278472Y-119000000I-2514472J0D01*
G01*
X136192000Y-124334000D02*
X144193000Y-124334000D01*
X144193000Y-124334000D02*
X144193000Y-113666000D01*
X144193000Y-113666000D02*
X136192000Y-113666000D01*
X127683000Y-124334000D02*
X136192000Y-124334000D01*
X136192000Y-124334000D02*
X136192000Y-113666000D01*
X136192000Y-113666000D02*
X127683000Y-113666000D01*
X127683000Y-119000000D02*
X127683000Y-113666000D01*
X127683000Y-119000000D02*
X127683000Y-124334000D01*
D13*
X137370000Y-129390000D02*
X155270000Y-129390000D01*
X155270000Y-129390000D02*
X155270000Y-126610000D01*
X155270000Y-126610000D02*
X137370000Y-126610000D01*
X137370000Y-126610000D02*
X137370000Y-129390000D01*
X136100000Y-129390000D02*
X134710000Y-129390000D01*
X134710000Y-129390000D02*
X134710000Y-128000000D01*
D14*
X73857143Y-104166666D02*
X73904762Y-104214285D01*
X73952381Y-104357142D01*
X73952381Y-104452380D01*
X73904762Y-104595238D01*
X73809524Y-104690476D01*
X73714286Y-104738095D01*
X73523810Y-104785714D01*
X73380952Y-104785714D01*
X73190476Y-104738095D01*
X73095238Y-104690476D01*
X73000000Y-104595238D01*
X72952381Y-104452380D01*
X72952381Y-104357142D01*
X73000000Y-104214285D01*
X73047619Y-104166666D01*
X73952381Y-103214285D02*
X73952381Y-103785714D01*
X73952381Y-103500000D02*
X72952381Y-103500000D01*
X73095238Y-103595238D01*
X73190476Y-103690476D01*
X73238095Y-103785714D01*
X72952381Y-101714286D02*
X72952381Y-101619047D01*
X73000000Y-101523809D01*
X73047619Y-101476190D01*
X73142857Y-101428571D01*
X73333333Y-101380952D01*
X73571429Y-101380952D01*
X73761905Y-101428571D01*
X73857143Y-101476190D01*
X73904762Y-101523809D01*
X73952381Y-101619047D01*
X73952381Y-101714286D01*
X73904762Y-101809524D01*
X73857143Y-101857143D01*
X73761905Y-101904762D01*
X73571429Y-101952381D01*
X73333333Y-101952381D01*
X73142857Y-101904762D01*
X73047619Y-101857143D01*
X73000000Y-101809524D01*
X72952381Y-101714286D01*
X73857143Y-100952381D02*
X73904762Y-100904762D01*
X73952381Y-100952381D01*
X73904762Y-101000000D01*
X73857143Y-100952381D01*
X73952381Y-100952381D01*
X73952381Y-99952381D02*
X73952381Y-100523810D01*
X73952381Y-100238096D02*
X72952381Y-100238096D01*
X73095238Y-100333334D01*
X73190476Y-100428572D01*
X73238095Y-100523810D01*
X73285714Y-99523810D02*
X74285714Y-99523810D01*
X73809524Y-99047619D02*
X73904762Y-99000000D01*
X73952381Y-98904762D01*
X73809524Y-99523810D02*
X73904762Y-99476191D01*
X73952381Y-99380953D01*
X73952381Y-99190476D01*
X73904762Y-99095238D01*
X73809524Y-99047619D01*
X73285714Y-99047619D01*
X73428571Y-98142857D02*
X73428571Y-98476191D01*
X73952381Y-98476191D02*
X72952381Y-98476191D01*
X72952381Y-98000000D01*
X98357143Y-106166666D02*
X98404762Y-106214285D01*
X98452381Y-106357142D01*
X98452381Y-106452380D01*
X98404762Y-106595238D01*
X98309524Y-106690476D01*
X98214286Y-106738095D01*
X98023810Y-106785714D01*
X97880952Y-106785714D01*
X97690476Y-106738095D01*
X97595238Y-106690476D01*
X97500000Y-106595238D01*
X97452381Y-106452380D01*
X97452381Y-106357142D01*
X97500000Y-106214285D01*
X97547619Y-106166666D01*
X97547619Y-105785714D02*
X97500000Y-105738095D01*
X97452381Y-105642857D01*
X97452381Y-105404761D01*
X97500000Y-105309523D01*
X97547619Y-105261904D01*
X97642857Y-105214285D01*
X97738095Y-105214285D01*
X97880952Y-105261904D01*
X98452381Y-105833333D01*
X98452381Y-105214285D01*
X98452381Y-103166666D02*
X98452381Y-103738095D01*
X98452381Y-103452381D02*
X97452381Y-103452381D01*
X97595238Y-103547619D01*
X97690476Y-103642857D01*
X97738095Y-103738095D01*
X97785714Y-102738095D02*
X98785714Y-102738095D01*
X98309524Y-102261904D02*
X98404762Y-102214285D01*
X98452381Y-102119047D01*
X98309524Y-102738095D02*
X98404762Y-102690476D01*
X98452381Y-102595238D01*
X98452381Y-102404761D01*
X98404762Y-102309523D01*
X98309524Y-102261904D01*
X97785714Y-102261904D01*
X97928571Y-101357142D02*
X97928571Y-101690476D01*
X98452381Y-101690476D02*
X97452381Y-101690476D01*
X97452381Y-101214285D01*
X101952381Y-116818095D02*
X100952381Y-116818095D01*
X100952381Y-116580000D01*
X101000000Y-116437142D01*
X101095238Y-116341904D01*
X101190476Y-116294285D01*
X101380952Y-116246666D01*
X101523810Y-116246666D01*
X101714286Y-116294285D01*
X101809524Y-116341904D01*
X101904762Y-116437142D01*
X101952381Y-116580000D01*
X101952381Y-116818095D01*
X101952381Y-115294285D02*
X101952381Y-115865714D01*
X101952381Y-115580000D02*
X100952381Y-115580000D01*
X101095238Y-115675238D01*
X101190476Y-115770476D01*
X101238095Y-115865714D01*
X79052381Y-110238095D02*
X78052381Y-110238095D01*
X78052381Y-110000000D01*
X78100000Y-109857142D01*
X78195238Y-109761904D01*
X78290476Y-109714285D01*
X78480952Y-109666666D01*
X78623810Y-109666666D01*
X78814286Y-109714285D01*
X78909524Y-109761904D01*
X79004762Y-109857142D01*
X79052381Y-110000000D01*
X79052381Y-110238095D01*
X78147619Y-109285714D02*
X78100000Y-109238095D01*
X78052381Y-109142857D01*
X78052381Y-108904761D01*
X78100000Y-108809523D01*
X78147619Y-108761904D01*
X78242857Y-108714285D01*
X78338095Y-108714285D01*
X78480952Y-108761904D01*
X79052381Y-109333333D01*
X79052381Y-108714285D01*
X79052381Y-107142857D02*
X79052381Y-107619048D01*
X78052381Y-107619048D01*
X78528571Y-106809524D02*
X78528571Y-106476190D01*
X79052381Y-106333333D02*
X79052381Y-106809524D01*
X78052381Y-106809524D01*
X78052381Y-106333333D01*
X79052381Y-105904762D02*
X78052381Y-105904762D01*
X78052381Y-105666667D01*
X78100000Y-105523809D01*
X78195238Y-105428571D01*
X78290476Y-105380952D01*
X78480952Y-105333333D01*
X78623810Y-105333333D01*
X78814286Y-105380952D01*
X78909524Y-105428571D01*
X79004762Y-105523809D01*
X79052381Y-105666667D01*
X79052381Y-105904762D01*
X106452381Y-103738095D02*
X105452381Y-103738095D01*
X105452381Y-103500000D01*
X105500000Y-103357142D01*
X105595238Y-103261904D01*
X105690476Y-103214285D01*
X105880952Y-103166666D01*
X106023810Y-103166666D01*
X106214286Y-103214285D01*
X106309524Y-103261904D01*
X106404762Y-103357142D01*
X106452381Y-103500000D01*
X106452381Y-103738095D01*
X106452381Y-102738095D02*
X105452381Y-102738095D01*
X106404762Y-102309524D02*
X106452381Y-102166667D01*
X106452381Y-101928571D01*
X106404762Y-101833333D01*
X106357143Y-101785714D01*
X106261905Y-101738095D01*
X106166667Y-101738095D01*
X106071429Y-101785714D01*
X106023810Y-101833333D01*
X105976190Y-101928571D01*
X105928571Y-102119048D01*
X105880952Y-102214286D01*
X105833333Y-102261905D01*
X105738095Y-102309524D01*
X105642857Y-102309524D01*
X105547619Y-102261905D01*
X105500000Y-102214286D01*
X105452381Y-102119048D01*
X105452381Y-101880952D01*
X105500000Y-101738095D01*
X106452381Y-101309524D02*
X105452381Y-101309524D01*
X105452381Y-100928571D01*
X105500000Y-100833333D01*
X105547619Y-100785714D01*
X105642857Y-100738095D01*
X105785714Y-100738095D01*
X105880952Y-100785714D01*
X105928571Y-100833333D01*
X105976190Y-100928571D01*
X105976190Y-101309524D01*
X106452381Y-99833333D02*
X106452381Y-100309524D01*
X105452381Y-100309524D01*
X106166667Y-99547619D02*
X106166667Y-99071428D01*
X106452381Y-99642857D02*
X105452381Y-99309524D01*
X106452381Y-98976190D01*
X105976190Y-98452381D02*
X106452381Y-98452381D01*
X105452381Y-98785714D02*
X105976190Y-98452381D01*
X105452381Y-98119047D01*
X76228571Y-128833333D02*
X76228571Y-129166667D01*
X76752381Y-129166667D02*
X75752381Y-129166667D01*
X75752381Y-128690476D01*
X76752381Y-128166667D02*
X76704762Y-128261905D01*
X76657143Y-128309524D01*
X76561905Y-128357143D01*
X76276190Y-128357143D01*
X76180952Y-128309524D01*
X76133333Y-128261905D01*
X76085714Y-128166667D01*
X76085714Y-128023809D01*
X76133333Y-127928571D01*
X76180952Y-127880952D01*
X76276190Y-127833333D01*
X76561905Y-127833333D01*
X76657143Y-127880952D01*
X76704762Y-127928571D01*
X76752381Y-128023809D01*
X76752381Y-128166667D01*
X76752381Y-127261905D02*
X76704762Y-127357143D01*
X76657143Y-127404762D01*
X76561905Y-127452381D01*
X76276190Y-127452381D01*
X76180952Y-127404762D01*
X76133333Y-127357143D01*
X76085714Y-127261905D01*
X76085714Y-127119047D01*
X76133333Y-127023809D01*
X76180952Y-126976190D01*
X76276190Y-126928571D01*
X76561905Y-126928571D01*
X76657143Y-126976190D01*
X76704762Y-127023809D01*
X76752381Y-127119047D01*
X76752381Y-127261905D01*
X76085714Y-126642857D02*
X76085714Y-126261905D01*
X75752381Y-126500000D02*
X76609524Y-126500000D01*
X76704762Y-126452381D01*
X76752381Y-126357143D01*
X76752381Y-126261905D01*
X76847619Y-126166666D02*
X76847619Y-125404761D01*
X76704762Y-125214285D02*
X76752381Y-125071428D01*
X76752381Y-124833332D01*
X76704762Y-124738094D01*
X76657143Y-124690475D01*
X76561905Y-124642856D01*
X76466667Y-124642856D01*
X76371429Y-124690475D01*
X76323810Y-124738094D01*
X76276190Y-124833332D01*
X76228571Y-125023809D01*
X76180952Y-125119047D01*
X76133333Y-125166666D01*
X76038095Y-125214285D01*
X75942857Y-125214285D01*
X75847619Y-125166666D01*
X75800000Y-125119047D01*
X75752381Y-125023809D01*
X75752381Y-124785713D01*
X75800000Y-124642856D01*
X76085714Y-124309523D02*
X76752381Y-124119047D01*
X76276190Y-123928570D01*
X76752381Y-123738094D01*
X76085714Y-123547618D01*
X76752381Y-123166666D02*
X76085714Y-123166666D01*
X75752381Y-123166666D02*
X75800000Y-123214285D01*
X75847619Y-123166666D01*
X75800000Y-123119047D01*
X75752381Y-123166666D01*
X75847619Y-123166666D01*
X76085714Y-122833333D02*
X76085714Y-122452381D01*
X75752381Y-122690476D02*
X76609524Y-122690476D01*
X76704762Y-122642857D01*
X76752381Y-122547619D01*
X76752381Y-122452381D01*
X76704762Y-121690475D02*
X76752381Y-121785713D01*
X76752381Y-121976190D01*
X76704762Y-122071428D01*
X76657143Y-122119047D01*
X76561905Y-122166666D01*
X76276190Y-122166666D01*
X76180952Y-122119047D01*
X76133333Y-122071428D01*
X76085714Y-121976190D01*
X76085714Y-121785713D01*
X76133333Y-121690475D01*
X76752381Y-121261904D02*
X75752381Y-121261904D01*
X76752381Y-120833332D02*
X76228571Y-120833332D01*
X76133333Y-120880951D01*
X76085714Y-120976189D01*
X76085714Y-121119047D01*
X76133333Y-121214285D01*
X76180952Y-121261904D01*
X86742856Y-125952381D02*
X86742856Y-124952381D01*
X87076190Y-125666667D01*
X87409523Y-124952381D01*
X87409523Y-125952381D01*
X88028570Y-125952381D02*
X87933332Y-125904762D01*
X87885713Y-125857143D01*
X87838094Y-125761905D01*
X87838094Y-125476190D01*
X87885713Y-125380952D01*
X87933332Y-125333333D01*
X88028570Y-125285714D01*
X88171428Y-125285714D01*
X88266666Y-125333333D01*
X88314285Y-125380952D01*
X88361904Y-125476190D01*
X88361904Y-125761905D01*
X88314285Y-125857143D01*
X88266666Y-125904762D01*
X88171428Y-125952381D01*
X88028570Y-125952381D01*
X88742856Y-125904762D02*
X88838094Y-125952381D01*
X89028570Y-125952381D01*
X89123809Y-125904762D01*
X89171428Y-125809524D01*
X89171428Y-125761905D01*
X89123809Y-125666667D01*
X89028570Y-125619048D01*
X88885713Y-125619048D01*
X88790475Y-125571429D01*
X88742856Y-125476190D01*
X88742856Y-125428571D01*
X88790475Y-125333333D01*
X88885713Y-125285714D01*
X89028570Y-125285714D01*
X89123809Y-125333333D01*
X89457142Y-125285714D02*
X89838094Y-125285714D01*
X89599999Y-125952381D02*
X89599999Y-125095238D01*
X89647618Y-125000000D01*
X89742856Y-124952381D01*
X89838094Y-124952381D01*
X90552381Y-125904762D02*
X90457143Y-125952381D01*
X90266666Y-125952381D01*
X90171428Y-125904762D01*
X90123809Y-125809524D01*
X90123809Y-125428571D01*
X90171428Y-125333333D01*
X90266666Y-125285714D01*
X90457143Y-125285714D01*
X90552381Y-125333333D01*
X90600000Y-125428571D01*
X90600000Y-125523810D01*
X90123809Y-125619048D01*
X90885714Y-125285714D02*
X91266666Y-125285714D01*
X91028571Y-124952381D02*
X91028571Y-125809524D01*
X91076190Y-125904762D01*
X91171428Y-125952381D01*
X91266666Y-125952381D01*
X91361905Y-126047619D02*
X92123810Y-126047619D01*
X92933334Y-125857143D02*
X92885715Y-125904762D01*
X92742858Y-125952381D01*
X92647620Y-125952381D01*
X92504762Y-125904762D01*
X92409524Y-125809524D01*
X92361905Y-125714286D01*
X92314286Y-125523810D01*
X92314286Y-125380952D01*
X92361905Y-125190476D01*
X92409524Y-125095238D01*
X92504762Y-125000000D01*
X92647620Y-124952381D01*
X92742858Y-124952381D01*
X92885715Y-125000000D01*
X92933334Y-125047619D01*
X93219048Y-124952381D02*
X93790477Y-124952381D01*
X93504762Y-125952381D02*
X93504762Y-124952381D01*
X94695239Y-125952381D02*
X94361905Y-125476190D01*
X94123810Y-125952381D02*
X94123810Y-124952381D01*
X94504763Y-124952381D01*
X94600001Y-125000000D01*
X94647620Y-125047619D01*
X94695239Y-125142857D01*
X94695239Y-125285714D01*
X94647620Y-125380952D01*
X94600001Y-125428571D01*
X94504763Y-125476190D01*
X94123810Y-125476190D01*
X95600001Y-125952381D02*
X95123810Y-125952381D01*
X95123810Y-124952381D01*
X84071905Y-96062381D02*
X84071905Y-95062381D01*
X84452858Y-95062381D01*
X84548096Y-95110000D01*
X84595715Y-95157619D01*
X84643334Y-95252857D01*
X84643334Y-95395714D01*
X84595715Y-95490952D01*
X84548096Y-95538571D01*
X84452858Y-95586190D01*
X84071905Y-95586190D01*
X85595715Y-96062381D02*
X85024286Y-96062381D01*
X85310000Y-96062381D02*
X85310000Y-95062381D01*
X85214762Y-95205238D01*
X85119524Y-95300476D01*
X85024286Y-95348095D01*
X81571905Y-108462381D02*
X81571905Y-107462381D01*
X81905239Y-108176667D01*
X82238572Y-107462381D01*
X82238572Y-108462381D01*
X83286191Y-108367143D02*
X83238572Y-108414762D01*
X83095715Y-108462381D01*
X83000477Y-108462381D01*
X82857619Y-108414762D01*
X82762381Y-108319524D01*
X82714762Y-108224286D01*
X82667143Y-108033810D01*
X82667143Y-107890952D01*
X82714762Y-107700476D01*
X82762381Y-107605238D01*
X82857619Y-107510000D01*
X83000477Y-107462381D01*
X83095715Y-107462381D01*
X83238572Y-107510000D01*
X83286191Y-107557619D01*
X83714762Y-108462381D02*
X83714762Y-107462381D01*
X84095715Y-107462381D01*
X84190953Y-107510000D01*
X84238572Y-107557619D01*
X84286191Y-107652857D01*
X84286191Y-107795714D01*
X84238572Y-107890952D01*
X84190953Y-107938571D01*
X84095715Y-107986190D01*
X83714762Y-107986190D01*
X85238572Y-108462381D02*
X84667143Y-108462381D01*
X84952857Y-108462381D02*
X84952857Y-107462381D01*
X84857619Y-107605238D01*
X84762381Y-107700476D01*
X84667143Y-107748095D01*
X86095715Y-107795714D02*
X86095715Y-108462381D01*
X85857619Y-107414762D02*
X85619524Y-108129048D01*
X86238572Y-108129048D01*
X86810000Y-107462381D02*
X86905239Y-107462381D01*
X87000477Y-107510000D01*
X87048096Y-107557619D01*
X87095715Y-107652857D01*
X87143334Y-107843333D01*
X87143334Y-108081429D01*
X87095715Y-108271905D01*
X87048096Y-108367143D01*
X87000477Y-108414762D01*
X86905239Y-108462381D01*
X86810000Y-108462381D01*
X86714762Y-108414762D01*
X86667143Y-108367143D01*
X86619524Y-108271905D01*
X86571905Y-108081429D01*
X86571905Y-107843333D01*
X86619524Y-107652857D01*
X86667143Y-107557619D01*
X86714762Y-107510000D01*
X86810000Y-107462381D01*
X87476667Y-107462381D02*
X88143334Y-107462381D01*
X87714762Y-108462381D01*
X78062381Y-72738095D02*
X77062381Y-72738095D01*
X77062381Y-72357142D01*
X77110000Y-72261904D01*
X77157619Y-72214285D01*
X77252857Y-72166666D01*
X77395714Y-72166666D01*
X77490952Y-72214285D01*
X77538571Y-72261904D01*
X77586190Y-72357142D01*
X77586190Y-72738095D01*
X77157619Y-71785714D02*
X77110000Y-71738095D01*
X77062381Y-71642857D01*
X77062381Y-71404761D01*
X77110000Y-71309523D01*
X77157619Y-71261904D01*
X77252857Y-71214285D01*
X77348095Y-71214285D01*
X77490952Y-71261904D01*
X78062381Y-71833333D01*
X78062381Y-71214285D01*
X85523810Y-71500000D02*
X85428572Y-71452381D01*
X85285715Y-71452381D01*
X85142857Y-71500000D01*
X85047619Y-71595238D01*
X85000000Y-71690476D01*
X84952381Y-71880952D01*
X84952381Y-72023810D01*
X85000000Y-72214286D01*
X85047619Y-72309524D01*
X85142857Y-72404762D01*
X85285715Y-72452381D01*
X85380953Y-72452381D01*
X85523810Y-72404762D01*
X85571429Y-72357143D01*
X85571429Y-72023810D01*
X85380953Y-72023810D01*
X86000000Y-72452381D02*
X86000000Y-71452381D01*
X86571429Y-72452381D01*
X86571429Y-71452381D01*
X87047619Y-72452381D02*
X87047619Y-71452381D01*
X87285714Y-71452381D01*
X87428572Y-71500000D01*
X87523810Y-71595238D01*
X87571429Y-71690476D01*
X87619048Y-71880952D01*
X87619048Y-72023810D01*
X87571429Y-72214286D01*
X87523810Y-72309524D01*
X87428572Y-72404762D01*
X87285714Y-72452381D01*
X87047619Y-72452381D01*
X87809524Y-72547619D02*
X88571429Y-72547619D01*
X89238096Y-72404762D02*
X89142858Y-72452381D01*
X88952381Y-72452381D01*
X88857143Y-72404762D01*
X88809524Y-72357143D01*
X88761905Y-72261905D01*
X88761905Y-71976190D01*
X88809524Y-71880952D01*
X88857143Y-71833333D01*
X88952381Y-71785714D01*
X89142858Y-71785714D01*
X89238096Y-71833333D01*
X89809524Y-72452381D02*
X89714286Y-72404762D01*
X89666667Y-72357143D01*
X89619048Y-72261905D01*
X89619048Y-71976190D01*
X89666667Y-71880952D01*
X89714286Y-71833333D01*
X89809524Y-71785714D01*
X89952382Y-71785714D01*
X90047620Y-71833333D01*
X90095239Y-71880952D01*
X90142858Y-71976190D01*
X90142858Y-72261905D01*
X90095239Y-72357143D01*
X90047620Y-72404762D01*
X89952382Y-72452381D01*
X89809524Y-72452381D01*
X90571429Y-71785714D02*
X90571429Y-72452381D01*
X90571429Y-71880952D02*
X90619048Y-71833333D01*
X90714286Y-71785714D01*
X90857144Y-71785714D01*
X90952382Y-71833333D01*
X91000001Y-71928571D01*
X91000001Y-72452381D01*
X112842381Y-72738095D02*
X111842381Y-72738095D01*
X111842381Y-72357142D01*
X111890000Y-72261904D01*
X111937619Y-72214285D01*
X112032857Y-72166666D01*
X112175714Y-72166666D01*
X112270952Y-72214285D01*
X112318571Y-72261904D01*
X112366190Y-72357142D01*
X112366190Y-72738095D01*
X111842381Y-71833333D02*
X111842381Y-71214285D01*
X112223333Y-71547619D01*
X112223333Y-71404761D01*
X112270952Y-71309523D01*
X112318571Y-71261904D01*
X112413810Y-71214285D01*
X112651905Y-71214285D01*
X112747143Y-71261904D01*
X112794762Y-71309523D01*
X112842381Y-71404761D01*
X112842381Y-71690476D01*
X112794762Y-71785714D01*
X112747143Y-71833333D01*
X99523810Y-71500000D02*
X99428572Y-71452381D01*
X99285715Y-71452381D01*
X99142857Y-71500000D01*
X99047619Y-71595238D01*
X99000000Y-71690476D01*
X98952381Y-71880952D01*
X98952381Y-72023810D01*
X99000000Y-72214286D01*
X99047619Y-72309524D01*
X99142857Y-72404762D01*
X99285715Y-72452381D01*
X99380953Y-72452381D01*
X99523810Y-72404762D01*
X99571429Y-72357143D01*
X99571429Y-72023810D01*
X99380953Y-72023810D01*
X100000000Y-72452381D02*
X100000000Y-71452381D01*
X100571429Y-72452381D01*
X100571429Y-71452381D01*
X101047619Y-72452381D02*
X101047619Y-71452381D01*
X101285714Y-71452381D01*
X101428572Y-71500000D01*
X101523810Y-71595238D01*
X101571429Y-71690476D01*
X101619048Y-71880952D01*
X101619048Y-72023810D01*
X101571429Y-72214286D01*
X101523810Y-72309524D01*
X101428572Y-72404762D01*
X101285714Y-72452381D01*
X101047619Y-72452381D01*
X101809524Y-72547619D02*
X102571429Y-72547619D01*
X103238096Y-72404762D02*
X103142858Y-72452381D01*
X102952381Y-72452381D01*
X102857143Y-72404762D01*
X102809524Y-72357143D01*
X102761905Y-72261905D01*
X102761905Y-71976190D01*
X102809524Y-71880952D01*
X102857143Y-71833333D01*
X102952381Y-71785714D01*
X103142858Y-71785714D01*
X103238096Y-71833333D01*
X103809524Y-72452381D02*
X103714286Y-72404762D01*
X103666667Y-72357143D01*
X103619048Y-72261905D01*
X103619048Y-71976190D01*
X103666667Y-71880952D01*
X103714286Y-71833333D01*
X103809524Y-71785714D01*
X103952382Y-71785714D01*
X104047620Y-71833333D01*
X104095239Y-71880952D01*
X104142858Y-71976190D01*
X104142858Y-72261905D01*
X104095239Y-72357143D01*
X104047620Y-72404762D01*
X103952382Y-72452381D01*
X103809524Y-72452381D01*
X104571429Y-71785714D02*
X104571429Y-72452381D01*
X104571429Y-71880952D02*
X104619048Y-71833333D01*
X104714286Y-71785714D01*
X104857144Y-71785714D01*
X104952382Y-71833333D01*
X105000001Y-71928571D01*
X105000001Y-72452381D01*
X110752381Y-118500001D02*
X109752381Y-118500001D01*
X109752381Y-118119048D01*
X109800000Y-118023810D01*
X109847619Y-117976191D01*
X109942857Y-117928572D01*
X110085714Y-117928572D01*
X110180952Y-117976191D01*
X110228571Y-118023810D01*
X110276190Y-118119048D01*
X110276190Y-118500001D01*
X110085714Y-117071429D02*
X110752381Y-117071429D01*
X110085714Y-117500001D02*
X110609524Y-117500001D01*
X110704762Y-117452382D01*
X110752381Y-117357144D01*
X110752381Y-117214286D01*
X110704762Y-117119048D01*
X110657143Y-117071429D01*
X110752381Y-116452382D02*
X110704762Y-116547620D01*
X110609524Y-116595239D01*
X109752381Y-116595239D01*
X110704762Y-116119048D02*
X110752381Y-116023810D01*
X110752381Y-115833334D01*
X110704762Y-115738095D01*
X110609524Y-115690476D01*
X110561905Y-115690476D01*
X110466667Y-115738095D01*
X110419048Y-115833334D01*
X110419048Y-115976191D01*
X110371429Y-116071429D01*
X110276190Y-116119048D01*
X110228571Y-116119048D01*
X110133333Y-116071429D01*
X110085714Y-115976191D01*
X110085714Y-115833334D01*
X110133333Y-115738095D01*
X110704762Y-114880952D02*
X110752381Y-114976190D01*
X110752381Y-115166667D01*
X110704762Y-115261905D01*
X110609524Y-115309524D01*
X110228571Y-115309524D01*
X110133333Y-115261905D01*
X110085714Y-115166667D01*
X110085714Y-114976190D01*
X110133333Y-114880952D01*
X110228571Y-114833333D01*
X110323810Y-114833333D01*
X110419048Y-115309524D01*
X110847619Y-114642857D02*
X110847619Y-113880952D01*
X110466667Y-113690476D02*
X110466667Y-113214285D01*
X110752381Y-113785714D02*
X109752381Y-113452381D01*
X110752381Y-113119047D01*
X110752381Y-112785714D02*
X109752381Y-112785714D01*
X109752381Y-112547619D01*
X109800000Y-112404761D01*
X109895238Y-112309523D01*
X109990476Y-112261904D01*
X110180952Y-112214285D01*
X110323810Y-112214285D01*
X110514286Y-112261904D01*
X110609524Y-112309523D01*
X110704762Y-112404761D01*
X110752381Y-112547619D01*
X110752381Y-112785714D01*
X109752381Y-111499999D02*
X110466667Y-111499999D01*
X110609524Y-111547619D01*
X110704762Y-111642857D01*
X110752381Y-111785714D01*
X110752381Y-111880952D01*
X90833334Y-84452381D02*
X90500000Y-83976190D01*
X90261905Y-84452381D02*
X90261905Y-83452381D01*
X90642858Y-83452381D01*
X90738096Y-83500000D01*
X90785715Y-83547619D01*
X90833334Y-83642857D01*
X90833334Y-83785714D01*
X90785715Y-83880952D01*
X90738096Y-83928571D01*
X90642858Y-83976190D01*
X90261905Y-83976190D01*
X91785715Y-84452381D02*
X91214286Y-84452381D01*
X91500000Y-84452381D02*
X91500000Y-83452381D01*
X91404762Y-83595238D01*
X91309524Y-83690476D01*
X91214286Y-83738095D01*
X89833333Y-87547619D02*
X89880952Y-87500000D01*
X89976190Y-87452381D01*
X90214286Y-87452381D01*
X90309524Y-87500000D01*
X90357143Y-87547619D01*
X90404762Y-87642857D01*
X90404762Y-87738095D01*
X90357143Y-87880952D01*
X89785714Y-88452381D01*
X90404762Y-88452381D01*
X91023809Y-87452381D02*
X91119048Y-87452381D01*
X91214286Y-87500000D01*
X91261905Y-87547619D01*
X91309524Y-87642857D01*
X91357143Y-87833333D01*
X91357143Y-88071429D01*
X91309524Y-88261905D01*
X91261905Y-88357143D01*
X91214286Y-88404762D01*
X91119048Y-88452381D01*
X91023809Y-88452381D01*
X90928571Y-88404762D01*
X90880952Y-88357143D01*
X90833333Y-88261905D01*
X90785714Y-88071429D01*
X90785714Y-87833333D01*
X90833333Y-87642857D01*
X90880952Y-87547619D01*
X90928571Y-87500000D01*
X91023809Y-87452381D01*
X91785714Y-88452381D02*
X91785714Y-87452381D01*
X91880952Y-88071429D02*
X92166667Y-88452381D01*
X92166667Y-87785714D02*
X91785714Y-88166667D01*
X78452381Y-113166666D02*
X77976190Y-113500000D01*
X78452381Y-113738095D02*
X77452381Y-113738095D01*
X77452381Y-113357142D01*
X77500000Y-113261904D01*
X77547619Y-113214285D01*
X77642857Y-113166666D01*
X77785714Y-113166666D01*
X77880952Y-113214285D01*
X77928571Y-113261904D01*
X77976190Y-113357142D01*
X77976190Y-113738095D01*
X77547619Y-112785714D02*
X77500000Y-112738095D01*
X77452381Y-112642857D01*
X77452381Y-112404761D01*
X77500000Y-112309523D01*
X77547619Y-112261904D01*
X77642857Y-112214285D01*
X77738095Y-112214285D01*
X77880952Y-112261904D01*
X78452381Y-112833333D01*
X78452381Y-112214285D01*
X82452381Y-113190476D02*
X82452381Y-113761905D01*
X82452381Y-113476191D02*
X81452381Y-113476191D01*
X81595238Y-113571429D01*
X81690476Y-113666667D01*
X81738095Y-113761905D01*
X81452381Y-112285714D02*
X81452381Y-112761905D01*
X81928571Y-112809524D01*
X81880952Y-112761905D01*
X81833333Y-112666667D01*
X81833333Y-112428571D01*
X81880952Y-112333333D01*
X81928571Y-112285714D01*
X82023810Y-112238095D01*
X82261905Y-112238095D01*
X82357143Y-112285714D01*
X82404762Y-112333333D01*
X82452381Y-112428571D01*
X82452381Y-112666667D01*
X82404762Y-112761905D01*
X82357143Y-112809524D01*
X81452381Y-119166666D02*
X80976190Y-119500000D01*
X81452381Y-119738095D02*
X80452381Y-119738095D01*
X80452381Y-119357142D01*
X80500000Y-119261904D01*
X80547619Y-119214285D01*
X80642857Y-119166666D01*
X80785714Y-119166666D01*
X80880952Y-119214285D01*
X80928571Y-119261904D01*
X80976190Y-119357142D01*
X80976190Y-119738095D01*
X80452381Y-118833333D02*
X80452381Y-118214285D01*
X80833333Y-118547619D01*
X80833333Y-118404761D01*
X80880952Y-118309523D01*
X80928571Y-118261904D01*
X81023810Y-118214285D01*
X81261905Y-118214285D01*
X81357143Y-118261904D01*
X81404762Y-118309523D01*
X81452381Y-118404761D01*
X81452381Y-118690476D01*
X81404762Y-118785714D01*
X81357143Y-118833333D01*
X85452381Y-119190476D02*
X85452381Y-119761905D01*
X85452381Y-119476191D02*
X84452381Y-119476191D01*
X84595238Y-119571429D01*
X84690476Y-119666667D01*
X84738095Y-119761905D01*
X84452381Y-118285714D02*
X84452381Y-118761905D01*
X84928571Y-118809524D01*
X84880952Y-118761905D01*
X84833333Y-118666667D01*
X84833333Y-118428571D01*
X84880952Y-118333333D01*
X84928571Y-118285714D01*
X85023810Y-118238095D01*
X85261905Y-118238095D01*
X85357143Y-118285714D01*
X85404762Y-118333333D01*
X85452381Y-118428571D01*
X85452381Y-118666667D01*
X85404762Y-118761905D01*
X85357143Y-118809524D01*
X84452381Y-113166666D02*
X83976190Y-113500000D01*
X84452381Y-113738095D02*
X83452381Y-113738095D01*
X83452381Y-113357142D01*
X83500000Y-113261904D01*
X83547619Y-113214285D01*
X83642857Y-113166666D01*
X83785714Y-113166666D01*
X83880952Y-113214285D01*
X83928571Y-113261904D01*
X83976190Y-113357142D01*
X83976190Y-113738095D01*
X83785714Y-112309523D02*
X84452381Y-112309523D01*
X83404762Y-112547619D02*
X84119048Y-112785714D01*
X84119048Y-112166666D01*
X88452381Y-113190476D02*
X88452381Y-113761905D01*
X88452381Y-113476191D02*
X87452381Y-113476191D01*
X87595238Y-113571429D01*
X87690476Y-113666667D01*
X87738095Y-113761905D01*
X87452381Y-112285714D02*
X87452381Y-112761905D01*
X87928571Y-112809524D01*
X87880952Y-112761905D01*
X87833333Y-112666667D01*
X87833333Y-112428571D01*
X87880952Y-112333333D01*
X87928571Y-112285714D01*
X88023810Y-112238095D01*
X88261905Y-112238095D01*
X88357143Y-112285714D01*
X88404762Y-112333333D01*
X88452381Y-112428571D01*
X88452381Y-112666667D01*
X88404762Y-112761905D01*
X88357143Y-112809524D01*
X87452381Y-121166666D02*
X86976190Y-121500000D01*
X87452381Y-121738095D02*
X86452381Y-121738095D01*
X86452381Y-121357142D01*
X86500000Y-121261904D01*
X86547619Y-121214285D01*
X86642857Y-121166666D01*
X86785714Y-121166666D01*
X86880952Y-121214285D01*
X86928571Y-121261904D01*
X86976190Y-121357142D01*
X86976190Y-121738095D01*
X86452381Y-120261904D02*
X86452381Y-120738095D01*
X86928571Y-120785714D01*
X86880952Y-120738095D01*
X86833333Y-120642857D01*
X86833333Y-120404761D01*
X86880952Y-120309523D01*
X86928571Y-120261904D01*
X87023810Y-120214285D01*
X87261905Y-120214285D01*
X87357143Y-120261904D01*
X87404762Y-120309523D01*
X87452381Y-120404761D01*
X87452381Y-120642857D01*
X87404762Y-120738095D01*
X87357143Y-120785714D01*
X91452381Y-121190476D02*
X91452381Y-121761905D01*
X91452381Y-121476191D02*
X90452381Y-121476191D01*
X90595238Y-121571429D01*
X90690476Y-121666667D01*
X90738095Y-121761905D01*
X90452381Y-120285714D02*
X90452381Y-120761905D01*
X90928571Y-120809524D01*
X90880952Y-120761905D01*
X90833333Y-120666667D01*
X90833333Y-120428571D01*
X90880952Y-120333333D01*
X90928571Y-120285714D01*
X91023810Y-120238095D01*
X91261905Y-120238095D01*
X91357143Y-120285714D01*
X91404762Y-120333333D01*
X91452381Y-120428571D01*
X91452381Y-120666667D01*
X91404762Y-120761905D01*
X91357143Y-120809524D01*
X90452381Y-113166666D02*
X89976190Y-113500000D01*
X90452381Y-113738095D02*
X89452381Y-113738095D01*
X89452381Y-113357142D01*
X89500000Y-113261904D01*
X89547619Y-113214285D01*
X89642857Y-113166666D01*
X89785714Y-113166666D01*
X89880952Y-113214285D01*
X89928571Y-113261904D01*
X89976190Y-113357142D01*
X89976190Y-113738095D01*
X89452381Y-112309523D02*
X89452381Y-112500000D01*
X89500000Y-112595238D01*
X89547619Y-112642857D01*
X89690476Y-112738095D01*
X89880952Y-112785714D01*
X90261905Y-112785714D01*
X90357143Y-112738095D01*
X90404762Y-112690476D01*
X90452381Y-112595238D01*
X90452381Y-112404761D01*
X90404762Y-112309523D01*
X90357143Y-112261904D01*
X90261905Y-112214285D01*
X90023810Y-112214285D01*
X89928571Y-112261904D01*
X89880952Y-112309523D01*
X89833333Y-112404761D01*
X89833333Y-112595238D01*
X89880952Y-112690476D01*
X89928571Y-112738095D01*
X90023810Y-112785714D01*
X94452381Y-113190476D02*
X94452381Y-113761905D01*
X94452381Y-113476191D02*
X93452381Y-113476191D01*
X93595238Y-113571429D01*
X93690476Y-113666667D01*
X93738095Y-113761905D01*
X93452381Y-112285714D02*
X93452381Y-112761905D01*
X93928571Y-112809524D01*
X93880952Y-112761905D01*
X93833333Y-112666667D01*
X93833333Y-112428571D01*
X93880952Y-112333333D01*
X93928571Y-112285714D01*
X94023810Y-112238095D01*
X94261905Y-112238095D01*
X94357143Y-112285714D01*
X94404762Y-112333333D01*
X94452381Y-112428571D01*
X94452381Y-112666667D01*
X94404762Y-112761905D01*
X94357143Y-112809524D01*
X93452381Y-121166666D02*
X92976190Y-121500000D01*
X93452381Y-121738095D02*
X92452381Y-121738095D01*
X92452381Y-121357142D01*
X92500000Y-121261904D01*
X92547619Y-121214285D01*
X92642857Y-121166666D01*
X92785714Y-121166666D01*
X92880952Y-121214285D01*
X92928571Y-121261904D01*
X92976190Y-121357142D01*
X92976190Y-121738095D01*
X92452381Y-120833333D02*
X92452381Y-120166666D01*
X93452381Y-120595238D01*
X97452381Y-121190476D02*
X97452381Y-121761905D01*
X97452381Y-121476191D02*
X96452381Y-121476191D01*
X96595238Y-121571429D01*
X96690476Y-121666667D01*
X96738095Y-121761905D01*
X96452381Y-120285714D02*
X96452381Y-120761905D01*
X96928571Y-120809524D01*
X96880952Y-120761905D01*
X96833333Y-120666667D01*
X96833333Y-120428571D01*
X96880952Y-120333333D01*
X96928571Y-120285714D01*
X97023810Y-120238095D01*
X97261905Y-120238095D01*
X97357143Y-120285714D01*
X97404762Y-120333333D01*
X97452381Y-120428571D01*
X97452381Y-120666667D01*
X97404762Y-120761905D01*
X97357143Y-120809524D01*
X96452381Y-113166666D02*
X95976190Y-113500000D01*
X96452381Y-113738095D02*
X95452381Y-113738095D01*
X95452381Y-113357142D01*
X95500000Y-113261904D01*
X95547619Y-113214285D01*
X95642857Y-113166666D01*
X95785714Y-113166666D01*
X95880952Y-113214285D01*
X95928571Y-113261904D01*
X95976190Y-113357142D01*
X95976190Y-113738095D01*
X95880952Y-112595238D02*
X95833333Y-112690476D01*
X95785714Y-112738095D01*
X95690476Y-112785714D01*
X95642857Y-112785714D01*
X95547619Y-112738095D01*
X95500000Y-112690476D01*
X95452381Y-112595238D01*
X95452381Y-112404761D01*
X95500000Y-112309523D01*
X95547619Y-112261904D01*
X95642857Y-112214285D01*
X95690476Y-112214285D01*
X95785714Y-112261904D01*
X95833333Y-112309523D01*
X95880952Y-112404761D01*
X95880952Y-112595238D01*
X95928571Y-112690476D01*
X95976190Y-112738095D01*
X96071429Y-112785714D01*
X96261905Y-112785714D01*
X96357143Y-112738095D01*
X96404762Y-112690476D01*
X96452381Y-112595238D01*
X96452381Y-112404761D01*
X96404762Y-112309523D01*
X96357143Y-112261904D01*
X96261905Y-112214285D01*
X96071429Y-112214285D01*
X95976190Y-112261904D01*
X95928571Y-112309523D01*
X95880952Y-112404761D01*
X100452381Y-113190476D02*
X100452381Y-113761905D01*
X100452381Y-113476191D02*
X99452381Y-113476191D01*
X99595238Y-113571429D01*
X99690476Y-113666667D01*
X99738095Y-113761905D01*
X99452381Y-112285714D02*
X99452381Y-112761905D01*
X99928571Y-112809524D01*
X99880952Y-112761905D01*
X99833333Y-112666667D01*
X99833333Y-112428571D01*
X99880952Y-112333333D01*
X99928571Y-112285714D01*
X100023810Y-112238095D01*
X100261905Y-112238095D01*
X100357143Y-112285714D01*
X100404762Y-112333333D01*
X100452381Y-112428571D01*
X100452381Y-112666667D01*
X100404762Y-112761905D01*
X100357143Y-112809524D01*
X99452381Y-121166666D02*
X98976190Y-121500000D01*
X99452381Y-121738095D02*
X98452381Y-121738095D01*
X98452381Y-121357142D01*
X98500000Y-121261904D01*
X98547619Y-121214285D01*
X98642857Y-121166666D01*
X98785714Y-121166666D01*
X98880952Y-121214285D01*
X98928571Y-121261904D01*
X98976190Y-121357142D01*
X98976190Y-121738095D01*
X99452381Y-120690476D02*
X99452381Y-120500000D01*
X99404762Y-120404761D01*
X99357143Y-120357142D01*
X99214286Y-120261904D01*
X99023810Y-120214285D01*
X98642857Y-120214285D01*
X98547619Y-120261904D01*
X98500000Y-120309523D01*
X98452381Y-120404761D01*
X98452381Y-120595238D01*
X98500000Y-120690476D01*
X98547619Y-120738095D01*
X98642857Y-120785714D01*
X98880952Y-120785714D01*
X98976190Y-120738095D01*
X99023810Y-120690476D01*
X99071429Y-120595238D01*
X99071429Y-120404761D01*
X99023810Y-120309523D01*
X98976190Y-120261904D01*
X98880952Y-120214285D01*
X103452381Y-121190476D02*
X103452381Y-121761905D01*
X103452381Y-121476191D02*
X102452381Y-121476191D01*
X102595238Y-121571429D01*
X102690476Y-121666667D01*
X102738095Y-121761905D01*
X102452381Y-120285714D02*
X102452381Y-120761905D01*
X102928571Y-120809524D01*
X102880952Y-120761905D01*
X102833333Y-120666667D01*
X102833333Y-120428571D01*
X102880952Y-120333333D01*
X102928571Y-120285714D01*
X103023810Y-120238095D01*
X103261905Y-120238095D01*
X103357143Y-120285714D01*
X103404762Y-120333333D01*
X103452381Y-120428571D01*
X103452381Y-120666667D01*
X103404762Y-120761905D01*
X103357143Y-120809524D01*
X94357143Y-94452381D02*
X94023809Y-93976190D01*
X93785714Y-94452381D02*
X93785714Y-93452381D01*
X94166667Y-93452381D01*
X94261905Y-93500000D01*
X94309524Y-93547619D01*
X94357143Y-93642857D01*
X94357143Y-93785714D01*
X94309524Y-93880952D01*
X94261905Y-93928571D01*
X94166667Y-93976190D01*
X93785714Y-93976190D01*
X95309524Y-94452381D02*
X94738095Y-94452381D01*
X95023809Y-94452381D02*
X95023809Y-93452381D01*
X94928571Y-93595238D01*
X94833333Y-93690476D01*
X94738095Y-93738095D01*
X95928571Y-93452381D02*
X96023810Y-93452381D01*
X96119048Y-93500000D01*
X96166667Y-93547619D01*
X96214286Y-93642857D01*
X96261905Y-93833333D01*
X96261905Y-94071429D01*
X96214286Y-94261905D01*
X96166667Y-94357143D01*
X96119048Y-94404762D01*
X96023810Y-94452381D01*
X95928571Y-94452381D01*
X95833333Y-94404762D01*
X95785714Y-94357143D01*
X95738095Y-94261905D01*
X95690476Y-94071429D01*
X95690476Y-93833333D01*
X95738095Y-93642857D01*
X95785714Y-93547619D01*
X95833333Y-93500000D01*
X95928571Y-93452381D01*
X93761905Y-97547619D02*
X93809524Y-97500000D01*
X93904762Y-97452381D01*
X94142858Y-97452381D01*
X94238096Y-97500000D01*
X94285715Y-97547619D01*
X94333334Y-97642857D01*
X94333334Y-97738095D01*
X94285715Y-97880952D01*
X93714286Y-98452381D01*
X94333334Y-98452381D01*
X94714286Y-97547619D02*
X94761905Y-97500000D01*
X94857143Y-97452381D01*
X95095239Y-97452381D01*
X95190477Y-97500000D01*
X95238096Y-97547619D01*
X95285715Y-97642857D01*
X95285715Y-97738095D01*
X95238096Y-97880952D01*
X94666667Y-98452381D01*
X95285715Y-98452381D01*
X95904762Y-97452381D02*
X96000001Y-97452381D01*
X96095239Y-97500000D01*
X96142858Y-97547619D01*
X96190477Y-97642857D01*
X96238096Y-97833333D01*
X96238096Y-98071429D01*
X96190477Y-98261905D01*
X96142858Y-98357143D01*
X96095239Y-98404762D01*
X96000001Y-98452381D01*
X95904762Y-98452381D01*
X95809524Y-98404762D01*
X95761905Y-98357143D01*
X95714286Y-98261905D01*
X95666667Y-98071429D01*
X95666667Y-97833333D01*
X95714286Y-97642857D01*
X95761905Y-97547619D01*
X95809524Y-97500000D01*
X95904762Y-97452381D01*
X72552381Y-112142857D02*
X72076190Y-112476191D01*
X72552381Y-112714286D02*
X71552381Y-112714286D01*
X71552381Y-112333333D01*
X71600000Y-112238095D01*
X71647619Y-112190476D01*
X71742857Y-112142857D01*
X71885714Y-112142857D01*
X71980952Y-112190476D01*
X72028571Y-112238095D01*
X72076190Y-112333333D01*
X72076190Y-112714286D01*
X72552381Y-111190476D02*
X72552381Y-111761905D01*
X72552381Y-111476191D02*
X71552381Y-111476191D01*
X71695238Y-111571429D01*
X71790476Y-111666667D01*
X71838095Y-111761905D01*
X72552381Y-110238095D02*
X72552381Y-110809524D01*
X72552381Y-110523810D02*
X71552381Y-110523810D01*
X71695238Y-110619048D01*
X71790476Y-110714286D01*
X71838095Y-110809524D01*
X71647619Y-108738095D02*
X71600000Y-108690476D01*
X71552381Y-108595238D01*
X71552381Y-108357142D01*
X71600000Y-108261904D01*
X71647619Y-108214285D01*
X71742857Y-108166666D01*
X71838095Y-108166666D01*
X71980952Y-108214285D01*
X72552381Y-108785714D01*
X72552381Y-108166666D01*
X71647619Y-107785714D02*
X71600000Y-107738095D01*
X71552381Y-107642857D01*
X71552381Y-107404761D01*
X71600000Y-107309523D01*
X71647619Y-107261904D01*
X71742857Y-107214285D01*
X71838095Y-107214285D01*
X71980952Y-107261904D01*
X72552381Y-107833333D01*
X72552381Y-107214285D01*
X71552381Y-106595238D02*
X71552381Y-106499999D01*
X71600000Y-106404761D01*
X71647619Y-106357142D01*
X71742857Y-106309523D01*
X71933333Y-106261904D01*
X72171429Y-106261904D01*
X72361905Y-106309523D01*
X72457143Y-106357142D01*
X72504762Y-106404761D01*
X72552381Y-106499999D01*
X72552381Y-106595238D01*
X72504762Y-106690476D01*
X72457143Y-106738095D01*
X72361905Y-106785714D01*
X72171429Y-106833333D01*
X71933333Y-106833333D01*
X71742857Y-106785714D01*
X71647619Y-106738095D01*
X71600000Y-106690476D01*
X71552381Y-106595238D01*
X78857143Y-84452381D02*
X78523809Y-83976190D01*
X78285714Y-84452381D02*
X78285714Y-83452381D01*
X78666667Y-83452381D01*
X78761905Y-83500000D01*
X78809524Y-83547619D01*
X78857143Y-83642857D01*
X78857143Y-83785714D01*
X78809524Y-83880952D01*
X78761905Y-83928571D01*
X78666667Y-83976190D01*
X78285714Y-83976190D01*
X79809524Y-84452381D02*
X79238095Y-84452381D01*
X79523809Y-84452381D02*
X79523809Y-83452381D01*
X79428571Y-83595238D01*
X79333333Y-83690476D01*
X79238095Y-83738095D01*
X80190476Y-83547619D02*
X80238095Y-83500000D01*
X80333333Y-83452381D01*
X80571429Y-83452381D01*
X80666667Y-83500000D01*
X80714286Y-83547619D01*
X80761905Y-83642857D01*
X80761905Y-83738095D01*
X80714286Y-83880952D01*
X80142857Y-84452381D01*
X80761905Y-84452381D01*
X78333333Y-87547619D02*
X78380952Y-87500000D01*
X78476190Y-87452381D01*
X78714286Y-87452381D01*
X78809524Y-87500000D01*
X78857143Y-87547619D01*
X78904762Y-87642857D01*
X78904762Y-87738095D01*
X78857143Y-87880952D01*
X78285714Y-88452381D01*
X78904762Y-88452381D01*
X79523809Y-87452381D02*
X79619048Y-87452381D01*
X79714286Y-87500000D01*
X79761905Y-87547619D01*
X79809524Y-87642857D01*
X79857143Y-87833333D01*
X79857143Y-88071429D01*
X79809524Y-88261905D01*
X79761905Y-88357143D01*
X79714286Y-88404762D01*
X79619048Y-88452381D01*
X79523809Y-88452381D01*
X79428571Y-88404762D01*
X79380952Y-88357143D01*
X79333333Y-88261905D01*
X79285714Y-88071429D01*
X79285714Y-87833333D01*
X79333333Y-87642857D01*
X79380952Y-87547619D01*
X79428571Y-87500000D01*
X79523809Y-87452381D01*
X80285714Y-88452381D02*
X80285714Y-87452381D01*
X80380952Y-88071429D02*
X80666667Y-88452381D01*
X80666667Y-87785714D02*
X80285714Y-88166667D01*
X111238096Y-125000000D02*
X111142858Y-124952381D01*
X111000001Y-124952381D01*
X110857143Y-125000000D01*
X110761905Y-125095238D01*
X110714286Y-125190476D01*
X110666667Y-125380952D01*
X110666667Y-125523810D01*
X110714286Y-125714286D01*
X110761905Y-125809524D01*
X110857143Y-125904762D01*
X111000001Y-125952381D01*
X111095239Y-125952381D01*
X111238096Y-125904762D01*
X111285715Y-125857143D01*
X111285715Y-125523810D01*
X111095239Y-125523810D01*
X111714286Y-125952381D02*
X111714286Y-124952381D01*
X112285715Y-125952381D01*
X112285715Y-124952381D01*
X112761905Y-125952381D02*
X112761905Y-124952381D01*
X113000000Y-124952381D01*
X113142858Y-125000000D01*
X113238096Y-125095238D01*
X113285715Y-125190476D01*
X113333334Y-125380952D01*
X113333334Y-125523810D01*
X113285715Y-125714286D01*
X113238096Y-125809524D01*
X113142858Y-125904762D01*
X113000000Y-125952381D01*
X112761905Y-125952381D01*
X107380953Y-125952381D02*
X106809524Y-125952381D01*
X107095238Y-125952381D02*
X107095238Y-124952381D01*
X107000000Y-125095238D01*
X106904762Y-125190476D01*
X106809524Y-125238095D01*
X107761905Y-125047619D02*
X107809524Y-125000000D01*
X107904762Y-124952381D01*
X108142858Y-124952381D01*
X108238096Y-125000000D01*
X108285715Y-125047619D01*
X108333334Y-125142857D01*
X108333334Y-125238095D01*
X108285715Y-125380952D01*
X107714286Y-125952381D01*
X108333334Y-125952381D01*
X108619048Y-124952381D02*
X108952381Y-125952381D01*
X109285715Y-124952381D01*
X128062381Y-72738095D02*
X127062381Y-72738095D01*
X127062381Y-72357142D01*
X127110000Y-72261904D01*
X127157619Y-72214285D01*
X127252857Y-72166666D01*
X127395714Y-72166666D01*
X127490952Y-72214285D01*
X127538571Y-72261904D01*
X127586190Y-72357142D01*
X127586190Y-72738095D01*
X127395714Y-71309523D02*
X128062381Y-71309523D01*
X127014762Y-71547619D02*
X127729048Y-71785714D01*
X127729048Y-71166666D01*
X135523810Y-71500000D02*
X135428572Y-71452381D01*
X135285715Y-71452381D01*
X135142857Y-71500000D01*
X135047619Y-71595238D01*
X135000000Y-71690476D01*
X134952381Y-71880952D01*
X134952381Y-72023810D01*
X135000000Y-72214286D01*
X135047619Y-72309524D01*
X135142857Y-72404762D01*
X135285715Y-72452381D01*
X135380953Y-72452381D01*
X135523810Y-72404762D01*
X135571429Y-72357143D01*
X135571429Y-72023810D01*
X135380953Y-72023810D01*
X136000000Y-72452381D02*
X136000000Y-71452381D01*
X136571429Y-72452381D01*
X136571429Y-71452381D01*
X137047619Y-72452381D02*
X137047619Y-71452381D01*
X137285714Y-71452381D01*
X137428572Y-71500000D01*
X137523810Y-71595238D01*
X137571429Y-71690476D01*
X137619048Y-71880952D01*
X137619048Y-72023810D01*
X137571429Y-72214286D01*
X137523810Y-72309524D01*
X137428572Y-72404762D01*
X137285714Y-72452381D01*
X137047619Y-72452381D01*
X137809524Y-72547619D02*
X138571429Y-72547619D01*
X139238096Y-72404762D02*
X139142858Y-72452381D01*
X138952381Y-72452381D01*
X138857143Y-72404762D01*
X138809524Y-72357143D01*
X138761905Y-72261905D01*
X138761905Y-71976190D01*
X138809524Y-71880952D01*
X138857143Y-71833333D01*
X138952381Y-71785714D01*
X139142858Y-71785714D01*
X139238096Y-71833333D01*
X139809524Y-72452381D02*
X139714286Y-72404762D01*
X139666667Y-72357143D01*
X139619048Y-72261905D01*
X139619048Y-71976190D01*
X139666667Y-71880952D01*
X139714286Y-71833333D01*
X139809524Y-71785714D01*
X139952382Y-71785714D01*
X140047620Y-71833333D01*
X140095239Y-71880952D01*
X140142858Y-71976190D01*
X140142858Y-72261905D01*
X140095239Y-72357143D01*
X140047620Y-72404762D01*
X139952382Y-72452381D01*
X139809524Y-72452381D01*
X140571429Y-71785714D02*
X140571429Y-72452381D01*
X140571429Y-71880952D02*
X140619048Y-71833333D01*
X140714286Y-71785714D01*
X140857144Y-71785714D01*
X140952382Y-71833333D01*
X141000001Y-71928571D01*
X141000001Y-72452381D01*
X162842381Y-72738095D02*
X161842381Y-72738095D01*
X161842381Y-72357142D01*
X161890000Y-72261904D01*
X161937619Y-72214285D01*
X162032857Y-72166666D01*
X162175714Y-72166666D01*
X162270952Y-72214285D01*
X162318571Y-72261904D01*
X162366190Y-72357142D01*
X162366190Y-72738095D01*
X161842381Y-71261904D02*
X161842381Y-71738095D01*
X162318571Y-71785714D01*
X162270952Y-71738095D01*
X162223333Y-71642857D01*
X162223333Y-71404761D01*
X162270952Y-71309523D01*
X162318571Y-71261904D01*
X162413810Y-71214285D01*
X162651905Y-71214285D01*
X162747143Y-71261904D01*
X162794762Y-71309523D01*
X162842381Y-71404761D01*
X162842381Y-71642857D01*
X162794762Y-71738095D01*
X162747143Y-71785714D01*
X149523810Y-71500000D02*
X149428572Y-71452381D01*
X149285715Y-71452381D01*
X149142857Y-71500000D01*
X149047619Y-71595238D01*
X149000000Y-71690476D01*
X148952381Y-71880952D01*
X148952381Y-72023810D01*
X149000000Y-72214286D01*
X149047619Y-72309524D01*
X149142857Y-72404762D01*
X149285715Y-72452381D01*
X149380953Y-72452381D01*
X149523810Y-72404762D01*
X149571429Y-72357143D01*
X149571429Y-72023810D01*
X149380953Y-72023810D01*
X150000000Y-72452381D02*
X150000000Y-71452381D01*
X150571429Y-72452381D01*
X150571429Y-71452381D01*
X151047619Y-72452381D02*
X151047619Y-71452381D01*
X151285714Y-71452381D01*
X151428572Y-71500000D01*
X151523810Y-71595238D01*
X151571429Y-71690476D01*
X151619048Y-71880952D01*
X151619048Y-72023810D01*
X151571429Y-72214286D01*
X151523810Y-72309524D01*
X151428572Y-72404762D01*
X151285714Y-72452381D01*
X151047619Y-72452381D01*
X151809524Y-72547619D02*
X152571429Y-72547619D01*
X153238096Y-72404762D02*
X153142858Y-72452381D01*
X152952381Y-72452381D01*
X152857143Y-72404762D01*
X152809524Y-72357143D01*
X152761905Y-72261905D01*
X152761905Y-71976190D01*
X152809524Y-71880952D01*
X152857143Y-71833333D01*
X152952381Y-71785714D01*
X153142858Y-71785714D01*
X153238096Y-71833333D01*
X153809524Y-72452381D02*
X153714286Y-72404762D01*
X153666667Y-72357143D01*
X153619048Y-72261905D01*
X153619048Y-71976190D01*
X153666667Y-71880952D01*
X153714286Y-71833333D01*
X153809524Y-71785714D01*
X153952382Y-71785714D01*
X154047620Y-71833333D01*
X154095239Y-71880952D01*
X154142858Y-71976190D01*
X154142858Y-72261905D01*
X154095239Y-72357143D01*
X154047620Y-72404762D01*
X153952382Y-72452381D01*
X153809524Y-72452381D01*
X154571429Y-71785714D02*
X154571429Y-72452381D01*
X154571429Y-71880952D02*
X154619048Y-71833333D01*
X154714286Y-71785714D01*
X154857144Y-71785714D01*
X154952382Y-71833333D01*
X155000001Y-71928571D01*
X155000001Y-72452381D01*
X155166667Y-115452381D02*
X155166667Y-114452381D01*
X156214286Y-115452381D02*
X155880952Y-114976190D01*
X155642857Y-115452381D02*
X155642857Y-114452381D01*
X156023810Y-114452381D01*
X156119048Y-114500000D01*
X156166667Y-114547619D01*
X156214286Y-114642857D01*
X156214286Y-114785714D01*
X156166667Y-114880952D01*
X156119048Y-114928571D01*
X156023810Y-114976190D01*
X155642857Y-114976190D01*
X156976191Y-114928571D02*
X156642857Y-114928571D01*
X156642857Y-115452381D02*
X156642857Y-114452381D01*
X157119048Y-114452381D01*
X158023810Y-115452381D02*
X157452381Y-115452381D01*
X157738095Y-115452381D02*
X157738095Y-114452381D01*
X157642857Y-114595238D01*
X157547619Y-114690476D01*
X157452381Y-114738095D01*
X158880953Y-114785714D02*
X158880953Y-115452381D01*
X158642857Y-114404762D02*
X158404762Y-115119048D01*
X159023810Y-115119048D01*
X159595238Y-114452381D02*
X159690477Y-114452381D01*
X159785715Y-114500000D01*
X159833334Y-114547619D01*
X159880953Y-114642857D01*
X159928572Y-114833333D01*
X159928572Y-115071429D01*
X159880953Y-115261905D01*
X159833334Y-115357143D01*
X159785715Y-115404762D01*
X159690477Y-115452381D01*
X159595238Y-115452381D01*
X159500000Y-115404762D01*
X159452381Y-115357143D01*
X159404762Y-115261905D01*
X159357143Y-115071429D01*
X159357143Y-114833333D01*
X159404762Y-114642857D01*
X159452381Y-114547619D01*
X159500000Y-114500000D01*
X159595238Y-114452381D01*
X160833334Y-114452381D02*
X160357143Y-114452381D01*
X160309524Y-114928571D01*
X160357143Y-114880952D01*
X160452381Y-114833333D01*
X160690477Y-114833333D01*
X160785715Y-114880952D01*
X160833334Y-114928571D01*
X160880953Y-115023810D01*
X160880953Y-115261905D01*
X160833334Y-115357143D01*
X160785715Y-115404762D01*
X160690477Y-115452381D01*
X160452381Y-115452381D01*
X160357143Y-115404762D01*
X160309524Y-115357143D01*
X155166667Y-102452381D02*
X155166667Y-101452381D01*
X156214286Y-102452381D02*
X155880952Y-101976190D01*
X155642857Y-102452381D02*
X155642857Y-101452381D01*
X156023810Y-101452381D01*
X156119048Y-101500000D01*
X156166667Y-101547619D01*
X156214286Y-101642857D01*
X156214286Y-101785714D01*
X156166667Y-101880952D01*
X156119048Y-101928571D01*
X156023810Y-101976190D01*
X155642857Y-101976190D01*
X156976191Y-101928571D02*
X156642857Y-101928571D01*
X156642857Y-102452381D02*
X156642857Y-101452381D01*
X157119048Y-101452381D01*
X158023810Y-102452381D02*
X157452381Y-102452381D01*
X157738095Y-102452381D02*
X157738095Y-101452381D01*
X157642857Y-101595238D01*
X157547619Y-101690476D01*
X157452381Y-101738095D01*
X158880953Y-101785714D02*
X158880953Y-102452381D01*
X158642857Y-101404762D02*
X158404762Y-102119048D01*
X159023810Y-102119048D01*
X159595238Y-101452381D02*
X159690477Y-101452381D01*
X159785715Y-101500000D01*
X159833334Y-101547619D01*
X159880953Y-101642857D01*
X159928572Y-101833333D01*
X159928572Y-102071429D01*
X159880953Y-102261905D01*
X159833334Y-102357143D01*
X159785715Y-102404762D01*
X159690477Y-102452381D01*
X159595238Y-102452381D01*
X159500000Y-102404762D01*
X159452381Y-102357143D01*
X159404762Y-102261905D01*
X159357143Y-102071429D01*
X159357143Y-101833333D01*
X159404762Y-101642857D01*
X159452381Y-101547619D01*
X159500000Y-101500000D01*
X159595238Y-101452381D01*
X160833334Y-101452381D02*
X160357143Y-101452381D01*
X160309524Y-101928571D01*
X160357143Y-101880952D01*
X160452381Y-101833333D01*
X160690477Y-101833333D01*
X160785715Y-101880952D01*
X160833334Y-101928571D01*
X160880953Y-102023810D01*
X160880953Y-102261905D01*
X160833334Y-102357143D01*
X160785715Y-102404762D01*
X160690477Y-102452381D01*
X160452381Y-102452381D01*
X160357143Y-102404762D01*
X160309524Y-102357143D01*
X155166667Y-89452381D02*
X155166667Y-88452381D01*
X156214286Y-89452381D02*
X155880952Y-88976190D01*
X155642857Y-89452381D02*
X155642857Y-88452381D01*
X156023810Y-88452381D01*
X156119048Y-88500000D01*
X156166667Y-88547619D01*
X156214286Y-88642857D01*
X156214286Y-88785714D01*
X156166667Y-88880952D01*
X156119048Y-88928571D01*
X156023810Y-88976190D01*
X155642857Y-88976190D01*
X156976191Y-88928571D02*
X156642857Y-88928571D01*
X156642857Y-89452381D02*
X156642857Y-88452381D01*
X157119048Y-88452381D01*
X158023810Y-89452381D02*
X157452381Y-89452381D01*
X157738095Y-89452381D02*
X157738095Y-88452381D01*
X157642857Y-88595238D01*
X157547619Y-88690476D01*
X157452381Y-88738095D01*
X158880953Y-88785714D02*
X158880953Y-89452381D01*
X158642857Y-88404762D02*
X158404762Y-89119048D01*
X159023810Y-89119048D01*
X159595238Y-88452381D02*
X159690477Y-88452381D01*
X159785715Y-88500000D01*
X159833334Y-88547619D01*
X159880953Y-88642857D01*
X159928572Y-88833333D01*
X159928572Y-89071429D01*
X159880953Y-89261905D01*
X159833334Y-89357143D01*
X159785715Y-89404762D01*
X159690477Y-89452381D01*
X159595238Y-89452381D01*
X159500000Y-89404762D01*
X159452381Y-89357143D01*
X159404762Y-89261905D01*
X159357143Y-89071429D01*
X159357143Y-88833333D01*
X159404762Y-88642857D01*
X159452381Y-88547619D01*
X159500000Y-88500000D01*
X159595238Y-88452381D01*
X160833334Y-88452381D02*
X160357143Y-88452381D01*
X160309524Y-88928571D01*
X160357143Y-88880952D01*
X160452381Y-88833333D01*
X160690477Y-88833333D01*
X160785715Y-88880952D01*
X160833334Y-88928571D01*
X160880953Y-89023810D01*
X160880953Y-89261905D01*
X160833334Y-89357143D01*
X160785715Y-89404762D01*
X160690477Y-89452381D01*
X160452381Y-89452381D01*
X160357143Y-89404762D01*
X160309524Y-89357143D01*
X155166667Y-76452381D02*
X155166667Y-75452381D01*
X156214286Y-76452381D02*
X155880952Y-75976190D01*
X155642857Y-76452381D02*
X155642857Y-75452381D01*
X156023810Y-75452381D01*
X156119048Y-75500000D01*
X156166667Y-75547619D01*
X156214286Y-75642857D01*
X156214286Y-75785714D01*
X156166667Y-75880952D01*
X156119048Y-75928571D01*
X156023810Y-75976190D01*
X155642857Y-75976190D01*
X156976191Y-75928571D02*
X156642857Y-75928571D01*
X156642857Y-76452381D02*
X156642857Y-75452381D01*
X157119048Y-75452381D01*
X158023810Y-76452381D02*
X157452381Y-76452381D01*
X157738095Y-76452381D02*
X157738095Y-75452381D01*
X157642857Y-75595238D01*
X157547619Y-75690476D01*
X157452381Y-75738095D01*
X158880953Y-75785714D02*
X158880953Y-76452381D01*
X158642857Y-75404762D02*
X158404762Y-76119048D01*
X159023810Y-76119048D01*
X159595238Y-75452381D02*
X159690477Y-75452381D01*
X159785715Y-75500000D01*
X159833334Y-75547619D01*
X159880953Y-75642857D01*
X159928572Y-75833333D01*
X159928572Y-76071429D01*
X159880953Y-76261905D01*
X159833334Y-76357143D01*
X159785715Y-76404762D01*
X159690477Y-76452381D01*
X159595238Y-76452381D01*
X159500000Y-76404762D01*
X159452381Y-76357143D01*
X159404762Y-76261905D01*
X159357143Y-76071429D01*
X159357143Y-75833333D01*
X159404762Y-75642857D01*
X159452381Y-75547619D01*
X159500000Y-75500000D01*
X159595238Y-75452381D01*
X160833334Y-75452381D02*
X160357143Y-75452381D01*
X160309524Y-75928571D01*
X160357143Y-75880952D01*
X160452381Y-75833333D01*
X160690477Y-75833333D01*
X160785715Y-75880952D01*
X160833334Y-75928571D01*
X160880953Y-76023810D01*
X160880953Y-76261905D01*
X160833334Y-76357143D01*
X160785715Y-76404762D01*
X160690477Y-76452381D01*
X160452381Y-76452381D01*
X160357143Y-76404762D01*
X160309524Y-76357143D01*
X129166667Y-76452381D02*
X129166667Y-75452381D01*
X130214286Y-76452381D02*
X129880952Y-75976190D01*
X129642857Y-76452381D02*
X129642857Y-75452381D01*
X130023810Y-75452381D01*
X130119048Y-75500000D01*
X130166667Y-75547619D01*
X130214286Y-75642857D01*
X130214286Y-75785714D01*
X130166667Y-75880952D01*
X130119048Y-75928571D01*
X130023810Y-75976190D01*
X129642857Y-75976190D01*
X130976191Y-75928571D02*
X130642857Y-75928571D01*
X130642857Y-76452381D02*
X130642857Y-75452381D01*
X131119048Y-75452381D01*
X132023810Y-76452381D02*
X131452381Y-76452381D01*
X131738095Y-76452381D02*
X131738095Y-75452381D01*
X131642857Y-75595238D01*
X131547619Y-75690476D01*
X131452381Y-75738095D01*
X132880953Y-75785714D02*
X132880953Y-76452381D01*
X132642857Y-75404762D02*
X132404762Y-76119048D01*
X133023810Y-76119048D01*
X133595238Y-75452381D02*
X133690477Y-75452381D01*
X133785715Y-75500000D01*
X133833334Y-75547619D01*
X133880953Y-75642857D01*
X133928572Y-75833333D01*
X133928572Y-76071429D01*
X133880953Y-76261905D01*
X133833334Y-76357143D01*
X133785715Y-76404762D01*
X133690477Y-76452381D01*
X133595238Y-76452381D01*
X133500000Y-76404762D01*
X133452381Y-76357143D01*
X133404762Y-76261905D01*
X133357143Y-76071429D01*
X133357143Y-75833333D01*
X133404762Y-75642857D01*
X133452381Y-75547619D01*
X133500000Y-75500000D01*
X133595238Y-75452381D01*
X134833334Y-75452381D02*
X134357143Y-75452381D01*
X134309524Y-75928571D01*
X134357143Y-75880952D01*
X134452381Y-75833333D01*
X134690477Y-75833333D01*
X134785715Y-75880952D01*
X134833334Y-75928571D01*
X134880953Y-76023810D01*
X134880953Y-76261905D01*
X134833334Y-76357143D01*
X134785715Y-76404762D01*
X134690477Y-76452381D01*
X134452381Y-76452381D01*
X134357143Y-76404762D01*
X134309524Y-76357143D01*
X129166667Y-89452381D02*
X129166667Y-88452381D01*
X130214286Y-89452381D02*
X129880952Y-88976190D01*
X129642857Y-89452381D02*
X129642857Y-88452381D01*
X130023810Y-88452381D01*
X130119048Y-88500000D01*
X130166667Y-88547619D01*
X130214286Y-88642857D01*
X130214286Y-88785714D01*
X130166667Y-88880952D01*
X130119048Y-88928571D01*
X130023810Y-88976190D01*
X129642857Y-88976190D01*
X130976191Y-88928571D02*
X130642857Y-88928571D01*
X130642857Y-89452381D02*
X130642857Y-88452381D01*
X131119048Y-88452381D01*
X132023810Y-89452381D02*
X131452381Y-89452381D01*
X131738095Y-89452381D02*
X131738095Y-88452381D01*
X131642857Y-88595238D01*
X131547619Y-88690476D01*
X131452381Y-88738095D01*
X132880953Y-88785714D02*
X132880953Y-89452381D01*
X132642857Y-88404762D02*
X132404762Y-89119048D01*
X133023810Y-89119048D01*
X133595238Y-88452381D02*
X133690477Y-88452381D01*
X133785715Y-88500000D01*
X133833334Y-88547619D01*
X133880953Y-88642857D01*
X133928572Y-88833333D01*
X133928572Y-89071429D01*
X133880953Y-89261905D01*
X133833334Y-89357143D01*
X133785715Y-89404762D01*
X133690477Y-89452381D01*
X133595238Y-89452381D01*
X133500000Y-89404762D01*
X133452381Y-89357143D01*
X133404762Y-89261905D01*
X133357143Y-89071429D01*
X133357143Y-88833333D01*
X133404762Y-88642857D01*
X133452381Y-88547619D01*
X133500000Y-88500000D01*
X133595238Y-88452381D01*
X134833334Y-88452381D02*
X134357143Y-88452381D01*
X134309524Y-88928571D01*
X134357143Y-88880952D01*
X134452381Y-88833333D01*
X134690477Y-88833333D01*
X134785715Y-88880952D01*
X134833334Y-88928571D01*
X134880953Y-89023810D01*
X134880953Y-89261905D01*
X134833334Y-89357143D01*
X134785715Y-89404762D01*
X134690477Y-89452381D01*
X134452381Y-89452381D01*
X134357143Y-89404762D01*
X134309524Y-89357143D01*
X129166667Y-102452381D02*
X129166667Y-101452381D01*
X130214286Y-102452381D02*
X129880952Y-101976190D01*
X129642857Y-102452381D02*
X129642857Y-101452381D01*
X130023810Y-101452381D01*
X130119048Y-101500000D01*
X130166667Y-101547619D01*
X130214286Y-101642857D01*
X130214286Y-101785714D01*
X130166667Y-101880952D01*
X130119048Y-101928571D01*
X130023810Y-101976190D01*
X129642857Y-101976190D01*
X130976191Y-101928571D02*
X130642857Y-101928571D01*
X130642857Y-102452381D02*
X130642857Y-101452381D01*
X131119048Y-101452381D01*
X132023810Y-102452381D02*
X131452381Y-102452381D01*
X131738095Y-102452381D02*
X131738095Y-101452381D01*
X131642857Y-101595238D01*
X131547619Y-101690476D01*
X131452381Y-101738095D01*
X132880953Y-101785714D02*
X132880953Y-102452381D01*
X132642857Y-101404762D02*
X132404762Y-102119048D01*
X133023810Y-102119048D01*
X133595238Y-101452381D02*
X133690477Y-101452381D01*
X133785715Y-101500000D01*
X133833334Y-101547619D01*
X133880953Y-101642857D01*
X133928572Y-101833333D01*
X133928572Y-102071429D01*
X133880953Y-102261905D01*
X133833334Y-102357143D01*
X133785715Y-102404762D01*
X133690477Y-102452381D01*
X133595238Y-102452381D01*
X133500000Y-102404762D01*
X133452381Y-102357143D01*
X133404762Y-102261905D01*
X133357143Y-102071429D01*
X133357143Y-101833333D01*
X133404762Y-101642857D01*
X133452381Y-101547619D01*
X133500000Y-101500000D01*
X133595238Y-101452381D01*
X134833334Y-101452381D02*
X134357143Y-101452381D01*
X134309524Y-101928571D01*
X134357143Y-101880952D01*
X134452381Y-101833333D01*
X134690477Y-101833333D01*
X134785715Y-101880952D01*
X134833334Y-101928571D01*
X134880953Y-102023810D01*
X134880953Y-102261905D01*
X134833334Y-102357143D01*
X134785715Y-102404762D01*
X134690477Y-102452381D01*
X134452381Y-102452381D01*
X134357143Y-102404762D01*
X134309524Y-102357143D01*
X129166667Y-115452381D02*
X129166667Y-114452381D01*
X130214286Y-115452381D02*
X129880952Y-114976190D01*
X129642857Y-115452381D02*
X129642857Y-114452381D01*
X130023810Y-114452381D01*
X130119048Y-114500000D01*
X130166667Y-114547619D01*
X130214286Y-114642857D01*
X130214286Y-114785714D01*
X130166667Y-114880952D01*
X130119048Y-114928571D01*
X130023810Y-114976190D01*
X129642857Y-114976190D01*
X130976191Y-114928571D02*
X130642857Y-114928571D01*
X130642857Y-115452381D02*
X130642857Y-114452381D01*
X131119048Y-114452381D01*
X132023810Y-115452381D02*
X131452381Y-115452381D01*
X131738095Y-115452381D02*
X131738095Y-114452381D01*
X131642857Y-114595238D01*
X131547619Y-114690476D01*
X131452381Y-114738095D01*
X132880953Y-114785714D02*
X132880953Y-115452381D01*
X132642857Y-114404762D02*
X132404762Y-115119048D01*
X133023810Y-115119048D01*
X133595238Y-114452381D02*
X133690477Y-114452381D01*
X133785715Y-114500000D01*
X133833334Y-114547619D01*
X133880953Y-114642857D01*
X133928572Y-114833333D01*
X133928572Y-115071429D01*
X133880953Y-115261905D01*
X133833334Y-115357143D01*
X133785715Y-115404762D01*
X133690477Y-115452381D01*
X133595238Y-115452381D01*
X133500000Y-115404762D01*
X133452381Y-115357143D01*
X133404762Y-115261905D01*
X133357143Y-115071429D01*
X133357143Y-114833333D01*
X133404762Y-114642857D01*
X133452381Y-114547619D01*
X133500000Y-114500000D01*
X133595238Y-114452381D01*
X134833334Y-114452381D02*
X134357143Y-114452381D01*
X134309524Y-114928571D01*
X134357143Y-114880952D01*
X134452381Y-114833333D01*
X134690477Y-114833333D01*
X134785715Y-114880952D01*
X134833334Y-114928571D01*
X134880953Y-115023810D01*
X134880953Y-115261905D01*
X134833334Y-115357143D01*
X134785715Y-115404762D01*
X134690477Y-115452381D01*
X134452381Y-115452381D01*
X134357143Y-115404762D01*
X134309524Y-115357143D01*
X136742856Y-125952381D02*
X136742856Y-124952381D01*
X137076190Y-125666667D01*
X137409523Y-124952381D01*
X137409523Y-125952381D01*
X138028570Y-125952381D02*
X137933332Y-125904762D01*
X137885713Y-125857143D01*
X137838094Y-125761905D01*
X137838094Y-125476190D01*
X137885713Y-125380952D01*
X137933332Y-125333333D01*
X138028570Y-125285714D01*
X138171428Y-125285714D01*
X138266666Y-125333333D01*
X138314285Y-125380952D01*
X138361904Y-125476190D01*
X138361904Y-125761905D01*
X138314285Y-125857143D01*
X138266666Y-125904762D01*
X138171428Y-125952381D01*
X138028570Y-125952381D01*
X138742856Y-125904762D02*
X138838094Y-125952381D01*
X139028570Y-125952381D01*
X139123809Y-125904762D01*
X139171428Y-125809524D01*
X139171428Y-125761905D01*
X139123809Y-125666667D01*
X139028570Y-125619048D01*
X138885713Y-125619048D01*
X138790475Y-125571429D01*
X138742856Y-125476190D01*
X138742856Y-125428571D01*
X138790475Y-125333333D01*
X138885713Y-125285714D01*
X139028570Y-125285714D01*
X139123809Y-125333333D01*
X139457142Y-125285714D02*
X139838094Y-125285714D01*
X139599999Y-125952381D02*
X139599999Y-125095238D01*
X139647618Y-125000000D01*
X139742856Y-124952381D01*
X139838094Y-124952381D01*
X140552381Y-125904762D02*
X140457143Y-125952381D01*
X140266666Y-125952381D01*
X140171428Y-125904762D01*
X140123809Y-125809524D01*
X140123809Y-125428571D01*
X140171428Y-125333333D01*
X140266666Y-125285714D01*
X140457143Y-125285714D01*
X140552381Y-125333333D01*
X140600000Y-125428571D01*
X140600000Y-125523810D01*
X140123809Y-125619048D01*
X140885714Y-125285714D02*
X141266666Y-125285714D01*
X141028571Y-124952381D02*
X141028571Y-125809524D01*
X141076190Y-125904762D01*
X141171428Y-125952381D01*
X141266666Y-125952381D01*
X141361905Y-126047619D02*
X142123810Y-126047619D01*
X142933334Y-125857143D02*
X142885715Y-125904762D01*
X142742858Y-125952381D01*
X142647620Y-125952381D01*
X142504762Y-125904762D01*
X142409524Y-125809524D01*
X142361905Y-125714286D01*
X142314286Y-125523810D01*
X142314286Y-125380952D01*
X142361905Y-125190476D01*
X142409524Y-125095238D01*
X142504762Y-125000000D01*
X142647620Y-124952381D01*
X142742858Y-124952381D01*
X142885715Y-125000000D01*
X142933334Y-125047619D01*
X143219048Y-124952381D02*
X143790477Y-124952381D01*
X143504762Y-125952381D02*
X143504762Y-124952381D01*
X144695239Y-125952381D02*
X144361905Y-125476190D01*
X144123810Y-125952381D02*
X144123810Y-124952381D01*
X144504763Y-124952381D01*
X144600001Y-125000000D01*
X144647620Y-125047619D01*
X144695239Y-125142857D01*
X144695239Y-125285714D01*
X144647620Y-125380952D01*
X144600001Y-125428571D01*
X144504763Y-125476190D01*
X144123810Y-125476190D01*
X145600001Y-125952381D02*
X145123810Y-125952381D01*
X145123810Y-124952381D01*
M02*
